<svg xmlns="http://www.w3.org/2000/svg" width="798.285" height="128" viewBox="0 0 798.285 128">
  <g id="_25Years_Converted" data-name="25Years_Converted" transform="translate(-432.102 -1279)">
    <g id="Group_155932" data-name="Group 155932" transform="translate(-23 118)">
      <path id="Path_183434" data-name="Path 183434" d="M64.277,0H5.8V-11.6L33.4-41.016a68.083,68.083,0,0,0,8.408-10.84,17.415,17.415,0,0,0,2.725-8.789q0-5.684-2.871-8.936t-8.2-3.252A11.178,11.178,0,0,0,24.4-68.877q-3.311,3.955-3.311,10.4H4.1A27.969,27.969,0,0,1,7.822-72.715,26.224,26.224,0,0,1,18.34-82.822a31.968,31.968,0,0,1,15.41-3.662q13.184,0,20.479,6.328t7.295,17.871a28.685,28.685,0,0,1-3.281,12.891Q54.961-42.832,46.992-34.1L27.6-13.652h36.68Zm6.891-41.953L76.09-85.312H123.9v14.121H89.977l-2.109,18.34A26.847,26.847,0,0,1,100.7-56.074q12.188,0,19.1,7.559t6.914,21.152a30.931,30.931,0,0,1-3.486,14.795,24.607,24.607,0,0,1-9.99,10.137,31.187,31.187,0,0,1-15.352,3.6A33.118,33.118,0,0,1,83.531-1.963a25.463,25.463,0,0,1-10.459-8.818A24.034,24.034,0,0,1,69-23.73H85.758a12.517,12.517,0,0,0,3.721,8.291,11.8,11.8,0,0,0,8.35,2.959,10.41,10.41,0,0,0,8.848-4.131q3.105-4.131,3.105-11.689,0-7.266-3.574-11.133T96.07-43.3a14.658,14.658,0,0,0-9.785,3.164l-1.641,1.523Z" transform="translate(451 1271)" fill="#0b1370"/>
      <path id="Path_183433" data-name="Path 183433" d="M11.973-14.16l7.422-14.277h4.258l-9.8,17.832V0H10.1V-10.605L.293-28.437h4.3ZM35.527.391a9.234,9.234,0,0,1-6.992-2.822,10.475,10.475,0,0,1-2.7-7.549v-.664a12.681,12.681,0,0,1,1.2-5.615A9.37,9.37,0,0,1,30.4-20.127a8.446,8.446,0,0,1,4.678-1.4,7.915,7.915,0,0,1,6.406,2.715q2.285,2.715,2.285,7.773v1.5H29.453a7.512,7.512,0,0,0,1.826,5.049,5.74,5.74,0,0,0,4.443,1.924,6.293,6.293,0,0,0,3.242-.781,8.146,8.146,0,0,0,2.324-2.07L43.5-3.691A8.874,8.874,0,0,1,35.527.391Zm-.449-18.945a4.82,4.82,0,0,0-3.672,1.592A7.737,7.737,0,0,0,29.57-12.5H40.156v-.273a6.882,6.882,0,0,0-1.484-4.268A4.538,4.538,0,0,0,35.078-18.555ZM61,0a7.59,7.59,0,0,1-.508-2.227A8.062,8.062,0,0,1,54.473.391a7.46,7.46,0,0,1-5.127-1.768,5.719,5.719,0,0,1-2-4.482,5.974,5.974,0,0,1,2.51-5.127,11.833,11.833,0,0,1,7.061-1.826H60.43v-1.66A4.058,4.058,0,0,0,59.3-17.49a4.553,4.553,0,0,0-3.34-1.123,5.269,5.269,0,0,0-3.242.977,2.878,2.878,0,0,0-1.309,2.363H47.773A4.987,4.987,0,0,1,48.9-18.33a7.665,7.665,0,0,1,3.047-2.334,10.25,10.25,0,0,1,4.229-.859A8.354,8.354,0,0,1,61.895-19.7a6.588,6.588,0,0,1,2.148,5.029v9.727a11.892,11.892,0,0,0,.742,4.629V0ZM55-2.754a6.35,6.35,0,0,0,3.223-.879A5.316,5.316,0,0,0,60.43-5.918v-4.336H57.6q-6.641,0-6.641,3.887A3.289,3.289,0,0,0,52.09-3.711,4.354,4.354,0,0,0,55-2.754ZM79.922-17.891a10.828,10.828,0,0,0-1.777-.137A4.762,4.762,0,0,0,73.32-15V0H69.707V-21.133h3.516l.059,2.441a5.626,5.626,0,0,1,5.039-2.832,3.691,3.691,0,0,1,1.6.273ZM95.547-5.605a2.66,2.66,0,0,0-1.1-2.275,10.622,10.622,0,0,0-3.848-1.4,18.191,18.191,0,0,1-4.355-1.406,6.2,6.2,0,0,1-2.383-1.953,4.672,4.672,0,0,1-.771-2.7,5.482,5.482,0,0,1,2.2-4.395,8.581,8.581,0,0,1,5.615-1.8,8.83,8.83,0,0,1,5.83,1.855,5.893,5.893,0,0,1,2.236,4.746H95.332a3.262,3.262,0,0,0-1.26-2.559A4.72,4.72,0,0,0,90.9-18.555a4.94,4.94,0,0,0-3.086.859A2.705,2.705,0,0,0,86.7-15.449a2.192,2.192,0,0,0,1.035,1.973,12.736,12.736,0,0,0,3.74,1.27,19.488,19.488,0,0,1,4.385,1.445A6.4,6.4,0,0,1,98.35-8.74a4.97,4.97,0,0,1,.811,2.881,5.408,5.408,0,0,1-2.266,4.541A9.5,9.5,0,0,1,91.016.391a10.642,10.642,0,0,1-4.492-.9,7.306,7.306,0,0,1-3.057-2.51,6.049,6.049,0,0,1-1.1-3.486h3.613a3.741,3.741,0,0,0,1.455,2.881,5.645,5.645,0,0,0,3.584,1.064,5.827,5.827,0,0,0,3.291-.83A2.551,2.551,0,0,0,95.547-5.605Zm17.266-5.156a12.482,12.482,0,0,1,1.221-5.586,9.106,9.106,0,0,1,3.4-3.828,9.251,9.251,0,0,1,4.971-1.348,8.912,8.912,0,0,1,6.982,2.988,11.5,11.5,0,0,1,2.666,7.949v.254a12.591,12.591,0,0,1-1.182,5.537A8.972,8.972,0,0,1,127.49-.977,9.357,9.357,0,0,1,122.441.391,8.89,8.89,0,0,1,115.479-2.6a11.439,11.439,0,0,1-2.666-7.91Zm3.633.43a9.041,9.041,0,0,0,1.631,5.645,5.219,5.219,0,0,0,4.365,2.129,5.188,5.188,0,0,0,4.375-2.158,9.886,9.886,0,0,0,1.621-6.045,9.025,9.025,0,0,0-1.65-5.635,5.247,5.247,0,0,0-4.385-2.158,5.189,5.189,0,0,0-4.316,2.129A9.813,9.813,0,0,0,116.445-10.332ZM138.359,0V-18.34h-3.34v-2.793h3.34V-23.3a7.2,7.2,0,0,1,1.816-5.254,6.862,6.862,0,0,1,5.137-1.855,9.482,9.482,0,0,1,2.48.332l-.2,2.93a10.377,10.377,0,0,0-1.953-.176A3.531,3.531,0,0,0,142.93-26.3a4.15,4.15,0,0,0-.957,2.939v2.227h4.512v2.793h-4.512V0ZM19.648,25.676H8.4v7.617H21.6V38H2.539V9.563H21.563v4.746H8.4v6.777h11.25Zm13.066-2.5,3.555-6.309H42.3L36.289,27.219,42.559,38H36.5l-3.77-6.641L28.984,38H22.91l6.27-10.781-6-10.352h6.055Zm31.328,4.453a12.674,12.674,0,0,1-2.217,7.822,7.107,7.107,0,0,1-5.986,2.939,6.584,6.584,0,0,1-5.176-2.227v9.961H45.02V16.867h5.234l.2,2.07A6.634,6.634,0,0,1,55.8,16.477a7.156,7.156,0,0,1,6.074,2.891q2.168,2.891,2.168,7.969Zm-5.645-.41a8.317,8.317,0,0,0-1.045-4.551,3.4,3.4,0,0,0-3.037-1.6A3.7,3.7,0,0,0,50.664,23.1V31.75a3.759,3.759,0,0,0,3.691,2.09Q58.4,33.84,58.4,27.219ZM77.266,38.391A10.374,10.374,0,0,1,69.7,35.539a10.136,10.136,0,0,1-2.92-7.6v-.547a12.766,12.766,0,0,1,1.23-5.693,9.03,9.03,0,0,1,3.486-3.867,9.785,9.785,0,0,1,5.146-1.357,8.77,8.77,0,0,1,6.826,2.734q2.49,2.734,2.49,7.754v2.3H72.5a5.244,5.244,0,0,0,1.65,3.32,4.989,4.989,0,0,0,3.486,1.25,6.093,6.093,0,0,0,5.1-2.363l2.773,3.105a8.473,8.473,0,0,1-3.437,2.8A11.278,11.278,0,0,1,77.266,38.391Zm-.645-17.344A3.535,3.535,0,0,0,73.9,22.18a5.852,5.852,0,0,0-1.338,3.242H80.41v-.449a4.173,4.173,0,0,0-1.016-2.9A3.648,3.648,0,0,0,76.621,21.047Zm24.414,1.113A15.335,15.335,0,0,0,99,22q-3.2,0-4.2,2.168V38H89.16V16.867h5.332l.156,2.52a5.23,5.23,0,0,1,4.707-2.91,5.914,5.914,0,0,1,1.758.254Zm10.449-10.488v5.2H115.1v4.141h-3.613V31.555a2.518,2.518,0,0,0,.449,1.68,2.256,2.256,0,0,0,1.719.508,9,9,0,0,0,1.66-.137v4.277a11.62,11.62,0,0,1-3.418.508q-5.938,0-6.055-6V21.008h-3.086V16.867h3.086v-5.2ZM124.2,38h-5.664V16.867H124.2Zm-6-26.6a2.78,2.78,0,0,1,.85-2.09,3.661,3.661,0,0,1,4.619,0,2.764,2.764,0,0,1,.859,2.09,2.771,2.771,0,0,1-.869,2.109,3.62,3.62,0,0,1-4.59,0A2.771,2.771,0,0,1,118.2,11.4Zm22.09,20.762a1.819,1.819,0,0,0-1.025-1.631,11.647,11.647,0,0,0-3.291-1.064q-7.539-1.582-7.539-6.406a5.807,5.807,0,0,1,2.334-4.7,9.415,9.415,0,0,1,6.1-1.885,10.133,10.133,0,0,1,6.436,1.895,5.971,5.971,0,0,1,2.412,4.922h-5.645a2.731,2.731,0,0,0-.781-2,3.306,3.306,0,0,0-2.441-.791,3.378,3.378,0,0,0-2.207.645,2.035,2.035,0,0,0-.781,1.641,1.739,1.739,0,0,0,.889,1.514,9.142,9.142,0,0,0,3,1,24.488,24.488,0,0,1,3.555.947q4.473,1.641,4.473,5.684A5.513,5.513,0,0,1,143.3,36.6a10.7,10.7,0,0,1-6.406,1.787,11.176,11.176,0,0,1-4.717-.947,7.914,7.914,0,0,1-3.232-2.6,6.036,6.036,0,0,1-1.172-3.564h5.352a2.947,2.947,0,0,0,1.113,2.3,4.416,4.416,0,0,0,2.773.8,4.087,4.087,0,0,0,2.451-.615A1.914,1.914,0,0,0,140.293,32.16Zm18.848,6.23a10.374,10.374,0,0,1-7.568-2.852,10.136,10.136,0,0,1-2.92-7.6v-.547a12.766,12.766,0,0,1,1.23-5.693,9.03,9.03,0,0,1,3.486-3.867,9.785,9.785,0,0,1,5.146-1.357,8.77,8.77,0,0,1,6.826,2.734q2.49,2.734,2.49,7.754v2.3H154.375a5.244,5.244,0,0,0,1.65,3.32,4.989,4.989,0,0,0,3.486,1.25,6.093,6.093,0,0,0,5.1-2.363l2.773,3.105a8.473,8.473,0,0,1-3.437,2.8A11.278,11.278,0,0,1,159.141,38.391ZM158.5,21.047a3.535,3.535,0,0,0-2.725,1.133,5.852,5.852,0,0,0-1.338,3.242h7.852v-.449a4.173,4.173,0,0,0-1.016-2.9A3.648,3.648,0,0,0,158.5,21.047Z" transform="translate(636 1226)" fill="#0b1370" opacity="0.803"/>
      <path id="Path_183435" data-name="Path 183435" d="M0,0H7V128H0Z" transform="translate(885 1161)" fill="#5a3ed9"/>
    </g>
    <g id="Group_155933" data-name="Group 155933" transform="translate(457 145)">
      <path id="Path_183432" data-name="Path 183432" d="M-145.925,0h-11.289V-43.516l-13.477,4.18v-9.18l23.555-8.437h1.211Zm52.758-23.516q0,11.8-4.883,18.047t-14.3,6.25q-9.3,0-14.219-6.133T-131.6-22.93V-33.4q0-11.914,4.941-18.086t14.238-6.172q9.3,0,14.219,6.113t5.039,17.559ZM-104.457-35q0-7.07-1.934-10.293a6.536,6.536,0,0,0-6.035-3.223,6.42,6.42,0,0,0-5.879,3.066q-1.895,3.066-2.012,9.59v13.828q0,6.953,1.895,10.332a6.449,6.449,0,0,0,6.074,3.379,6.341,6.341,0,0,0,5.977-3.242q1.836-3.242,1.914-9.922Zm53.188,11.484q0,11.8-4.883,18.047t-14.3,6.25q-9.3,0-14.219-6.133T-89.707-22.93V-33.4q0-11.914,4.941-18.086t14.238-6.172q9.3,0,14.219,6.113t5.039,17.559ZM-62.558-35q0-7.07-1.934-10.293a6.536,6.536,0,0,0-6.035-3.223,6.42,6.42,0,0,0-5.879,3.066q-1.895,3.066-2.012,9.59v13.828q0,6.953,1.895,10.332A6.449,6.449,0,0,0-70.449-8.32a6.341,6.341,0,0,0,5.977-3.242q1.836-3.242,1.914-9.922ZM-15.1-24.025H-2.615v5.383H-15.1v14.15h-5.722v-14.15H-33.315v-5.383h12.489V-37.1H-15.1Z" transform="translate(663 1217)" fill="#0b1370"/>
      <path id="Path_183431" data-name="Path 183431" d="M4.583-7.236V0H2.146V-18.484H8.963a6.849,6.849,0,0,1,4.754,1.549,5.251,5.251,0,0,1,1.72,4.1A5.181,5.181,0,0,1,13.755-8.69,7.155,7.155,0,0,1,8.938-7.236Zm0-1.993h4.38a4.384,4.384,0,0,0,3-.92A3.362,3.362,0,0,0,13-12.81a3.474,3.474,0,0,0-1.041-2.641A4.107,4.107,0,0,0,9.1-16.479H4.583Zm20.236-2.4a7.038,7.038,0,0,0-1.155-.089A3.1,3.1,0,0,0,20.528-9.75V0H18.18V-13.736h2.285l.038,1.587a3.657,3.657,0,0,1,3.275-1.841,2.4,2.4,0,0,1,1.041.178ZM26.1-7a8.113,8.113,0,0,1,.793-3.631A5.919,5.919,0,0,1,29.1-13.114a6.013,6.013,0,0,1,3.231-.876,5.793,5.793,0,0,1,4.539,1.942,7.473,7.473,0,0,1,1.733,5.167v.165a8.184,8.184,0,0,1-.768,3.6,5.832,5.832,0,0,1-2.2,2.482A6.082,6.082,0,0,1,32.36.254a5.778,5.778,0,0,1-4.526-1.942A7.435,7.435,0,0,1,26.1-6.83Zm2.361.279a5.877,5.877,0,0,0,1.06,3.669A3.393,3.393,0,0,0,32.36-1.663a3.372,3.372,0,0,0,2.844-1.4A6.426,6.426,0,0,0,36.258-7a5.866,5.866,0,0,0-1.073-3.663,3.41,3.41,0,0,0-2.85-1.4,3.373,3.373,0,0,0-2.806,1.384A6.378,6.378,0,0,0,28.463-6.716Zm15.514-7.021V1.587q0,3.961-3.593,3.961a4.358,4.358,0,0,1-1.435-.229V3.44a4.541,4.541,0,0,0,1.066.1,1.6,1.6,0,0,0,1.2-.425,2.1,2.1,0,0,0,.413-1.479V-13.736Zm-2.59-3.644a1.408,1.408,0,0,1,.349-.958,1.284,1.284,0,0,1,1.022-.4,1.331,1.331,0,0,1,1.041.394,1.387,1.387,0,0,1,.355.965,1.342,1.342,0,0,1-.355.952,1.355,1.355,0,0,1-1.041.381,1.314,1.314,0,0,1-1.028-.381A1.37,1.37,0,0,1,41.387-17.38ZM53.46.254a6,6,0,0,1-4.545-1.834,6.809,6.809,0,0,1-1.752-4.907v-.432a8.243,8.243,0,0,1,.781-3.65,6.091,6.091,0,0,1,2.184-2.514,5.49,5.49,0,0,1,3.041-.908,5.144,5.144,0,0,1,4.164,1.765,7.64,7.64,0,0,1,1.485,5.053V-6.2H49.512A4.883,4.883,0,0,0,50.7-2.914a3.731,3.731,0,0,0,2.888,1.25,4.091,4.091,0,0,0,2.107-.508,5.3,5.3,0,0,0,1.511-1.346L58.64-2.4A5.768,5.768,0,0,1,53.46.254Zm-.292-12.314a3.133,3.133,0,0,0-2.387,1.035,5.029,5.029,0,0,0-1.193,2.9h6.881V-8.3a4.473,4.473,0,0,0-.965-2.774A2.949,2.949,0,0,0,53.168-12.061Zm13.876,10.4a3.383,3.383,0,0,0,2.2-.762,2.68,2.68,0,0,0,1.041-1.9H72.5a4.259,4.259,0,0,1-.812,2.247,5.351,5.351,0,0,1-2,1.7,5.769,5.769,0,0,1-2.647.635,5.659,5.659,0,0,1-4.462-1.873,7.458,7.458,0,0,1-1.657-5.123v-.394a8.27,8.27,0,0,1,.736-3.567,5.608,5.608,0,0,1,2.114-2.425,6,6,0,0,1,3.256-.863,5.509,5.509,0,0,1,3.84,1.384A4.945,4.945,0,0,1,72.5-9.014H70.281a3.237,3.237,0,0,0-1.009-2.19,3.14,3.14,0,0,0-2.241-.857,3.287,3.287,0,0,0-2.774,1.289,6.052,6.052,0,0,0-.984,3.726V-6.6a5.931,5.931,0,0,0,.978,3.656A3.3,3.3,0,0,0,67.044-1.663Zm11.286-15.4v3.326h2.564v1.815H78.33V-3.4a1.9,1.9,0,0,0,.343,1.238,1.444,1.444,0,0,0,1.168.413A5.686,5.686,0,0,0,80.958-1.9V0a6.809,6.809,0,0,1-1.8.254A2.925,2.925,0,0,1,76.781-.7a4.09,4.09,0,0,1-.8-2.7v-8.519h-2.5v-1.815h2.5v-3.326Zm13.3,13.419a1.729,1.729,0,0,0-.717-1.479,6.9,6.9,0,0,0-2.5-.908,11.824,11.824,0,0,1-2.831-.914,4.028,4.028,0,0,1-1.549-1.27,3.037,3.037,0,0,1-.5-1.752,3.563,3.563,0,0,1,1.428-2.856,5.578,5.578,0,0,1,3.65-1.168,5.74,5.74,0,0,1,3.79,1.206A3.831,3.831,0,0,1,93.856-9.7H91.5a2.12,2.12,0,0,0-.819-1.663,3.068,3.068,0,0,0-2.063-.7,3.211,3.211,0,0,0-2.006.559,1.758,1.758,0,0,0-.724,1.46,1.425,1.425,0,0,0,.673,1.282,8.279,8.279,0,0,0,2.431.825A12.667,12.667,0,0,1,91.838-7a4.157,4.157,0,0,1,1.619,1.314,3.231,3.231,0,0,1,.527,1.873A3.515,3.515,0,0,1,92.511-.857,6.177,6.177,0,0,1,88.689.254,6.917,6.917,0,0,1,85.77-.33a4.749,4.749,0,0,1-1.987-1.631,3.932,3.932,0,0,1-.717-2.266h2.349a2.432,2.432,0,0,0,.946,1.873,3.669,3.669,0,0,0,2.33.692,3.788,3.788,0,0,0,2.139-.54A1.658,1.658,0,0,0,91.635-3.644ZM118.4,0h-3.809V-7.922h-7.427V0h-3.809V-18.484h3.809v7.49h7.427v-7.49H118.4Zm11.045,0a4.074,4.074,0,0,1-.368-1.231A4.439,4.439,0,0,1,125.607.254a4.877,4.877,0,0,1-3.345-1.168,3.756,3.756,0,0,1-1.327-2.945,3.882,3.882,0,0,1,1.619-3.352,7.987,7.987,0,0,1,4.678-1.181h1.688v-.787a2.264,2.264,0,0,0-.489-1.523,1.923,1.923,0,0,0-1.542-.571,2.186,2.186,0,0,0-1.454.444,1.509,1.509,0,0,0-.527,1.219H121.24a3.686,3.686,0,0,1,.736-2.209,4.867,4.867,0,0,1,2.082-1.593,7.588,7.588,0,0,1,3.021-.578,6,6,0,0,1,4.031,1.276A4.463,4.463,0,0,1,132.6-9.128v5.954a6.567,6.567,0,0,0,.546,2.958V0Zm-3.034-2.552a3.16,3.16,0,0,0,1.5-.362,2.376,2.376,0,0,0,1.016-.971V-6.246H127.55q-2.755,0-2.933,1.9l-.013.216A1.469,1.469,0,0,0,125.087-3,1.874,1.874,0,0,0,126.407-2.552ZM138.8-13.736l.114,1.587a4.8,4.8,0,0,1,3.948-1.841,3.986,3.986,0,0,1,3.25,1.282A5.982,5.982,0,0,1,147.2-8.874V0h-3.669V-8.785a2.38,2.38,0,0,0-.508-1.695,2.273,2.273,0,0,0-1.688-.527,2.524,2.524,0,0,0-2.323,1.32V0h-3.669V-13.736ZM149.411-6.97a8.278,8.278,0,0,1,1.441-5.116,4.675,4.675,0,0,1,3.942-1.9,4.207,4.207,0,0,1,3.313,1.5V-19.5h3.682V0h-3.313L158.3-1.46A4.318,4.318,0,0,1,154.769.254a4.663,4.663,0,0,1-3.891-1.911A8.545,8.545,0,0,1,149.411-6.97Zm3.669.267a5.408,5.408,0,0,0,.673,2.958,2.193,2.193,0,0,0,1.955,1.028,2.455,2.455,0,0,0,2.4-1.435V-9.572a2.42,2.42,0,0,0-2.374-1.435Q153.08-11.007,153.08-6.7ZM168.5,0h-3.682V-19.5H168.5Zm9.344.254A6.743,6.743,0,0,1,172.929-1.6a6.588,6.588,0,0,1-1.9-4.938v-.355a8.3,8.3,0,0,1,.8-3.7,5.87,5.87,0,0,1,2.266-2.514,6.36,6.36,0,0,1,3.345-.882,5.7,5.7,0,0,1,4.437,1.777,7.222,7.222,0,0,1,1.619,5.04v1.5h-8.747a3.408,3.408,0,0,0,1.073,2.158,3.243,3.243,0,0,0,2.266.813A3.96,3.96,0,0,0,181.4-4.24l1.8,2.019A5.508,5.508,0,0,1,180.972-.4,7.331,7.331,0,0,1,177.849.254ZM177.43-11.02a2.3,2.3,0,0,0-1.771.736,3.8,3.8,0,0,0-.87,2.107h5.1v-.292a2.712,2.712,0,0,0-.66-1.885A2.371,2.371,0,0,0,177.43-11.02Zm7.579,4.05a8.278,8.278,0,0,1,1.441-5.116,4.675,4.675,0,0,1,3.942-1.9,4.207,4.207,0,0,1,3.313,1.5V-19.5h3.682V0h-3.313L193.9-1.46A4.318,4.318,0,0,1,190.366.254a4.663,4.663,0,0,1-3.891-1.911A8.545,8.545,0,0,1,185.009-6.97Zm3.669.267a5.408,5.408,0,0,0,.673,2.958,2.193,2.193,0,0,0,1.955,1.028,2.455,2.455,0,0,0,2.4-1.435V-9.572a2.42,2.42,0,0,0-2.374-1.435Q188.678-11.007,188.678-6.7Z" transform="translate(576 1249)" fill="#0b1370" opacity="0.8"/>
    </g>
  </g>
</svg>
