<svg xmlns="http://www.w3.org/2000/svg" xmlns:xlink="http://www.w3.org/1999/xlink" width="282" height="252" viewBox="0 0 282 252">
  <defs>
    <clipPath id="clip-path">
      <rect width="282" height="252" fill="none"/>
    </clipPath>
  </defs>
  <g id="Repeat_Grid_1" data-name="Repeat Grid 1" opacity="0.089" clip-path="url(#clip-path)">
    <g transform="translate(-1025 -1137)">
      <circle id="Ellipse_63" data-name="Ellipse 63" cx="4" cy="4" r="4" transform="translate(1025 1137)" fill="#421ad5"/>
    </g>
    <g transform="translate(-1003 -1137)">
      <circle id="Ellipse_63-2" data-name="Ellipse 63" cx="4" cy="4" r="4" transform="translate(1025 1137)" fill="#421ad5"/>
    </g>
    <g transform="translate(-981 -1137)">
      <circle id="Ellipse_63-3" data-name="Ellipse 63" cx="4" cy="4" r="4" transform="translate(1025 1137)" fill="#421ad5"/>
    </g>
    <g transform="translate(-959 -1137)">
      <circle id="Ellipse_63-4" data-name="Ellipse 63" cx="4" cy="4" r="4" transform="translate(1025 1137)" fill="#421ad5"/>
    </g>
    <g transform="translate(-937 -1137)">
      <circle id="Ellipse_63-5" data-name="Ellipse 63" cx="4" cy="4" r="4" transform="translate(1025 1137)" fill="#421ad5"/>
    </g>
    <g transform="translate(-915 -1137)">
      <circle id="Ellipse_63-6" data-name="Ellipse 63" cx="4" cy="4" r="4" transform="translate(1025 1137)" fill="#421ad5"/>
    </g>
    <g transform="translate(-893 -1137)">
      <circle id="Ellipse_63-7" data-name="Ellipse 63" cx="4" cy="4" r="4" transform="translate(1025 1137)" fill="#421ad5"/>
    </g>
    <g transform="translate(-871 -1137)">
      <circle id="Ellipse_63-8" data-name="Ellipse 63" cx="4" cy="4" r="4" transform="translate(1025 1137)" fill="#421ad5"/>
    </g>
    <g transform="translate(-849 -1137)">
      <circle id="Ellipse_63-9" data-name="Ellipse 63" cx="4" cy="4" r="4" transform="translate(1025 1137)" fill="#421ad5"/>
    </g>
    <g transform="translate(-827 -1137)">
      <circle id="Ellipse_63-10" data-name="Ellipse 63" cx="4" cy="4" r="4" transform="translate(1025 1137)" fill="#421ad5"/>
    </g>
    <g transform="translate(-805 -1137)">
      <circle id="Ellipse_63-11" data-name="Ellipse 63" cx="4" cy="4" r="4" transform="translate(1025 1137)" fill="#421ad5"/>
    </g>
    <g transform="translate(-783 -1137)">
      <circle id="Ellipse_63-12" data-name="Ellipse 63" cx="4" cy="4" r="4" transform="translate(1025 1137)" fill="#421ad5"/>
    </g>
    <g transform="translate(-761 -1137)">
      <circle id="Ellipse_63-13" data-name="Ellipse 63" cx="4" cy="4" r="4" transform="translate(1025 1137)" fill="#421ad5"/>
    </g>
    <g transform="translate(-1025 -1115)">
      <circle id="Ellipse_63-14" data-name="Ellipse 63" cx="4" cy="4" r="4" transform="translate(1025 1137)" fill="#421ad5"/>
    </g>
    <g transform="translate(-1003 -1115)">
      <circle id="Ellipse_63-15" data-name="Ellipse 63" cx="4" cy="4" r="4" transform="translate(1025 1137)" fill="#421ad5"/>
    </g>
    <g transform="translate(-981 -1115)">
      <circle id="Ellipse_63-16" data-name="Ellipse 63" cx="4" cy="4" r="4" transform="translate(1025 1137)" fill="#421ad5"/>
    </g>
    <g transform="translate(-959 -1115)">
      <circle id="Ellipse_63-17" data-name="Ellipse 63" cx="4" cy="4" r="4" transform="translate(1025 1137)" fill="#421ad5"/>
    </g>
    <g transform="translate(-937 -1115)">
      <circle id="Ellipse_63-18" data-name="Ellipse 63" cx="4" cy="4" r="4" transform="translate(1025 1137)" fill="#421ad5"/>
    </g>
    <g transform="translate(-915 -1115)">
      <circle id="Ellipse_63-19" data-name="Ellipse 63" cx="4" cy="4" r="4" transform="translate(1025 1137)" fill="#421ad5"/>
    </g>
    <g transform="translate(-893 -1115)">
      <circle id="Ellipse_63-20" data-name="Ellipse 63" cx="4" cy="4" r="4" transform="translate(1025 1137)" fill="#421ad5"/>
    </g>
    <g transform="translate(-871 -1115)">
      <circle id="Ellipse_63-21" data-name="Ellipse 63" cx="4" cy="4" r="4" transform="translate(1025 1137)" fill="#421ad5"/>
    </g>
    <g transform="translate(-849 -1115)">
      <circle id="Ellipse_63-22" data-name="Ellipse 63" cx="4" cy="4" r="4" transform="translate(1025 1137)" fill="#421ad5"/>
    </g>
    <g transform="translate(-827 -1115)">
      <circle id="Ellipse_63-23" data-name="Ellipse 63" cx="4" cy="4" r="4" transform="translate(1025 1137)" fill="#421ad5"/>
    </g>
    <g transform="translate(-805 -1115)">
      <circle id="Ellipse_63-24" data-name="Ellipse 63" cx="4" cy="4" r="4" transform="translate(1025 1137)" fill="#421ad5"/>
    </g>
    <g transform="translate(-783 -1115)">
      <circle id="Ellipse_63-25" data-name="Ellipse 63" cx="4" cy="4" r="4" transform="translate(1025 1137)" fill="#421ad5"/>
    </g>
    <g transform="translate(-761 -1115)">
      <circle id="Ellipse_63-26" data-name="Ellipse 63" cx="4" cy="4" r="4" transform="translate(1025 1137)" fill="#421ad5"/>
    </g>
    <g transform="translate(-1025 -1093)">
      <circle id="Ellipse_63-27" data-name="Ellipse 63" cx="4" cy="4" r="4" transform="translate(1025 1137)" fill="#421ad5"/>
    </g>
    <g transform="translate(-1003 -1093)">
      <circle id="Ellipse_63-28" data-name="Ellipse 63" cx="4" cy="4" r="4" transform="translate(1025 1137)" fill="#421ad5"/>
    </g>
    <g transform="translate(-981 -1093)">
      <circle id="Ellipse_63-29" data-name="Ellipse 63" cx="4" cy="4" r="4" transform="translate(1025 1137)" fill="#421ad5"/>
    </g>
    <g transform="translate(-959 -1093)">
      <circle id="Ellipse_63-30" data-name="Ellipse 63" cx="4" cy="4" r="4" transform="translate(1025 1137)" fill="#421ad5"/>
    </g>
    <g transform="translate(-937 -1093)">
      <circle id="Ellipse_63-31" data-name="Ellipse 63" cx="4" cy="4" r="4" transform="translate(1025 1137)" fill="#421ad5"/>
    </g>
    <g transform="translate(-915 -1093)">
      <circle id="Ellipse_63-32" data-name="Ellipse 63" cx="4" cy="4" r="4" transform="translate(1025 1137)" fill="#421ad5"/>
    </g>
    <g transform="translate(-893 -1093)">
      <circle id="Ellipse_63-33" data-name="Ellipse 63" cx="4" cy="4" r="4" transform="translate(1025 1137)" fill="#421ad5"/>
    </g>
    <g transform="translate(-871 -1093)">
      <circle id="Ellipse_63-34" data-name="Ellipse 63" cx="4" cy="4" r="4" transform="translate(1025 1137)" fill="#421ad5"/>
    </g>
    <g transform="translate(-849 -1093)">
      <circle id="Ellipse_63-35" data-name="Ellipse 63" cx="4" cy="4" r="4" transform="translate(1025 1137)" fill="#421ad5"/>
    </g>
    <g transform="translate(-827 -1093)">
      <circle id="Ellipse_63-36" data-name="Ellipse 63" cx="4" cy="4" r="4" transform="translate(1025 1137)" fill="#421ad5"/>
    </g>
    <g transform="translate(-805 -1093)">
      <circle id="Ellipse_63-37" data-name="Ellipse 63" cx="4" cy="4" r="4" transform="translate(1025 1137)" fill="#421ad5"/>
    </g>
    <g transform="translate(-783 -1093)">
      <circle id="Ellipse_63-38" data-name="Ellipse 63" cx="4" cy="4" r="4" transform="translate(1025 1137)" fill="#421ad5"/>
    </g>
    <g transform="translate(-761 -1093)">
      <circle id="Ellipse_63-39" data-name="Ellipse 63" cx="4" cy="4" r="4" transform="translate(1025 1137)" fill="#421ad5"/>
    </g>
    <g transform="translate(-1025 -1071)">
      <circle id="Ellipse_63-40" data-name="Ellipse 63" cx="4" cy="4" r="4" transform="translate(1025 1137)" fill="#421ad5"/>
    </g>
    <g transform="translate(-1003 -1071)">
      <circle id="Ellipse_63-41" data-name="Ellipse 63" cx="4" cy="4" r="4" transform="translate(1025 1137)" fill="#421ad5"/>
    </g>
    <g transform="translate(-981 -1071)">
      <circle id="Ellipse_63-42" data-name="Ellipse 63" cx="4" cy="4" r="4" transform="translate(1025 1137)" fill="#421ad5"/>
    </g>
    <g transform="translate(-959 -1071)">
      <circle id="Ellipse_63-43" data-name="Ellipse 63" cx="4" cy="4" r="4" transform="translate(1025 1137)" fill="#421ad5"/>
    </g>
    <g transform="translate(-937 -1071)">
      <circle id="Ellipse_63-44" data-name="Ellipse 63" cx="4" cy="4" r="4" transform="translate(1025 1137)" fill="#421ad5"/>
    </g>
    <g transform="translate(-915 -1071)">
      <circle id="Ellipse_63-45" data-name="Ellipse 63" cx="4" cy="4" r="4" transform="translate(1025 1137)" fill="#421ad5"/>
    </g>
    <g transform="translate(-893 -1071)">
      <circle id="Ellipse_63-46" data-name="Ellipse 63" cx="4" cy="4" r="4" transform="translate(1025 1137)" fill="#421ad5"/>
    </g>
    <g transform="translate(-871 -1071)">
      <circle id="Ellipse_63-47" data-name="Ellipse 63" cx="4" cy="4" r="4" transform="translate(1025 1137)" fill="#421ad5"/>
    </g>
    <g transform="translate(-849 -1071)">
      <circle id="Ellipse_63-48" data-name="Ellipse 63" cx="4" cy="4" r="4" transform="translate(1025 1137)" fill="#421ad5"/>
    </g>
    <g transform="translate(-827 -1071)">
      <circle id="Ellipse_63-49" data-name="Ellipse 63" cx="4" cy="4" r="4" transform="translate(1025 1137)" fill="#421ad5"/>
    </g>
    <g transform="translate(-805 -1071)">
      <circle id="Ellipse_63-50" data-name="Ellipse 63" cx="4" cy="4" r="4" transform="translate(1025 1137)" fill="#421ad5"/>
    </g>
    <g transform="translate(-783 -1071)">
      <circle id="Ellipse_63-51" data-name="Ellipse 63" cx="4" cy="4" r="4" transform="translate(1025 1137)" fill="#421ad5"/>
    </g>
    <g transform="translate(-761 -1071)">
      <circle id="Ellipse_63-52" data-name="Ellipse 63" cx="4" cy="4" r="4" transform="translate(1025 1137)" fill="#421ad5"/>
    </g>
    <g transform="translate(-1025 -1049)">
      <circle id="Ellipse_63-53" data-name="Ellipse 63" cx="4" cy="4" r="4" transform="translate(1025 1137)" fill="#421ad5"/>
    </g>
    <g transform="translate(-1003 -1049)">
      <circle id="Ellipse_63-54" data-name="Ellipse 63" cx="4" cy="4" r="4" transform="translate(1025 1137)" fill="#421ad5"/>
    </g>
    <g transform="translate(-981 -1049)">
      <circle id="Ellipse_63-55" data-name="Ellipse 63" cx="4" cy="4" r="4" transform="translate(1025 1137)" fill="#421ad5"/>
    </g>
    <g transform="translate(-959 -1049)">
      <circle id="Ellipse_63-56" data-name="Ellipse 63" cx="4" cy="4" r="4" transform="translate(1025 1137)" fill="#421ad5"/>
    </g>
    <g transform="translate(-937 -1049)">
      <circle id="Ellipse_63-57" data-name="Ellipse 63" cx="4" cy="4" r="4" transform="translate(1025 1137)" fill="#421ad5"/>
    </g>
    <g transform="translate(-915 -1049)">
      <circle id="Ellipse_63-58" data-name="Ellipse 63" cx="4" cy="4" r="4" transform="translate(1025 1137)" fill="#421ad5"/>
    </g>
    <g transform="translate(-893 -1049)">
      <circle id="Ellipse_63-59" data-name="Ellipse 63" cx="4" cy="4" r="4" transform="translate(1025 1137)" fill="#421ad5"/>
    </g>
    <g transform="translate(-871 -1049)">
      <circle id="Ellipse_63-60" data-name="Ellipse 63" cx="4" cy="4" r="4" transform="translate(1025 1137)" fill="#421ad5"/>
    </g>
    <g transform="translate(-849 -1049)">
      <circle id="Ellipse_63-61" data-name="Ellipse 63" cx="4" cy="4" r="4" transform="translate(1025 1137)" fill="#421ad5"/>
    </g>
    <g transform="translate(-827 -1049)">
      <circle id="Ellipse_63-62" data-name="Ellipse 63" cx="4" cy="4" r="4" transform="translate(1025 1137)" fill="#421ad5"/>
    </g>
    <g transform="translate(-805 -1049)">
      <circle id="Ellipse_63-63" data-name="Ellipse 63" cx="4" cy="4" r="4" transform="translate(1025 1137)" fill="#421ad5"/>
    </g>
    <g transform="translate(-783 -1049)">
      <circle id="Ellipse_63-64" data-name="Ellipse 63" cx="4" cy="4" r="4" transform="translate(1025 1137)" fill="#421ad5"/>
    </g>
    <g transform="translate(-761 -1049)">
      <circle id="Ellipse_63-65" data-name="Ellipse 63" cx="4" cy="4" r="4" transform="translate(1025 1137)" fill="#421ad5"/>
    </g>
    <g transform="translate(-1025 -1027)">
      <circle id="Ellipse_63-66" data-name="Ellipse 63" cx="4" cy="4" r="4" transform="translate(1025 1137)" fill="#421ad5"/>
    </g>
    <g transform="translate(-1003 -1027)">
      <circle id="Ellipse_63-67" data-name="Ellipse 63" cx="4" cy="4" r="4" transform="translate(1025 1137)" fill="#421ad5"/>
    </g>
    <g transform="translate(-981 -1027)">
      <circle id="Ellipse_63-68" data-name="Ellipse 63" cx="4" cy="4" r="4" transform="translate(1025 1137)" fill="#421ad5"/>
    </g>
    <g transform="translate(-959 -1027)">
      <circle id="Ellipse_63-69" data-name="Ellipse 63" cx="4" cy="4" r="4" transform="translate(1025 1137)" fill="#421ad5"/>
    </g>
    <g transform="translate(-937 -1027)">
      <circle id="Ellipse_63-70" data-name="Ellipse 63" cx="4" cy="4" r="4" transform="translate(1025 1137)" fill="#421ad5"/>
    </g>
    <g transform="translate(-915 -1027)">
      <circle id="Ellipse_63-71" data-name="Ellipse 63" cx="4" cy="4" r="4" transform="translate(1025 1137)" fill="#421ad5"/>
    </g>
    <g transform="translate(-893 -1027)">
      <circle id="Ellipse_63-72" data-name="Ellipse 63" cx="4" cy="4" r="4" transform="translate(1025 1137)" fill="#421ad5"/>
    </g>
    <g transform="translate(-871 -1027)">
      <circle id="Ellipse_63-73" data-name="Ellipse 63" cx="4" cy="4" r="4" transform="translate(1025 1137)" fill="#421ad5"/>
    </g>
    <g transform="translate(-849 -1027)">
      <circle id="Ellipse_63-74" data-name="Ellipse 63" cx="4" cy="4" r="4" transform="translate(1025 1137)" fill="#421ad5"/>
    </g>
    <g transform="translate(-827 -1027)">
      <circle id="Ellipse_63-75" data-name="Ellipse 63" cx="4" cy="4" r="4" transform="translate(1025 1137)" fill="#421ad5"/>
    </g>
    <g transform="translate(-805 -1027)">
      <circle id="Ellipse_63-76" data-name="Ellipse 63" cx="4" cy="4" r="4" transform="translate(1025 1137)" fill="#421ad5"/>
    </g>
    <g transform="translate(-783 -1027)">
      <circle id="Ellipse_63-77" data-name="Ellipse 63" cx="4" cy="4" r="4" transform="translate(1025 1137)" fill="#421ad5"/>
    </g>
    <g transform="translate(-761 -1027)">
      <circle id="Ellipse_63-78" data-name="Ellipse 63" cx="4" cy="4" r="4" transform="translate(1025 1137)" fill="#421ad5"/>
    </g>
    <g transform="translate(-1025 -1005)">
      <circle id="Ellipse_63-79" data-name="Ellipse 63" cx="4" cy="4" r="4" transform="translate(1025 1137)" fill="#421ad5"/>
    </g>
    <g transform="translate(-1003 -1005)">
      <circle id="Ellipse_63-80" data-name="Ellipse 63" cx="4" cy="4" r="4" transform="translate(1025 1137)" fill="#421ad5"/>
    </g>
    <g transform="translate(-981 -1005)">
      <circle id="Ellipse_63-81" data-name="Ellipse 63" cx="4" cy="4" r="4" transform="translate(1025 1137)" fill="#421ad5"/>
    </g>
    <g transform="translate(-959 -1005)">
      <circle id="Ellipse_63-82" data-name="Ellipse 63" cx="4" cy="4" r="4" transform="translate(1025 1137)" fill="#421ad5"/>
    </g>
    <g transform="translate(-937 -1005)">
      <circle id="Ellipse_63-83" data-name="Ellipse 63" cx="4" cy="4" r="4" transform="translate(1025 1137)" fill="#421ad5"/>
    </g>
    <g transform="translate(-915 -1005)">
      <circle id="Ellipse_63-84" data-name="Ellipse 63" cx="4" cy="4" r="4" transform="translate(1025 1137)" fill="#421ad5"/>
    </g>
    <g transform="translate(-893 -1005)">
      <circle id="Ellipse_63-85" data-name="Ellipse 63" cx="4" cy="4" r="4" transform="translate(1025 1137)" fill="#421ad5"/>
    </g>
    <g transform="translate(-871 -1005)">
      <circle id="Ellipse_63-86" data-name="Ellipse 63" cx="4" cy="4" r="4" transform="translate(1025 1137)" fill="#421ad5"/>
    </g>
    <g transform="translate(-849 -1005)">
      <circle id="Ellipse_63-87" data-name="Ellipse 63" cx="4" cy="4" r="4" transform="translate(1025 1137)" fill="#421ad5"/>
    </g>
    <g transform="translate(-827 -1005)">
      <circle id="Ellipse_63-88" data-name="Ellipse 63" cx="4" cy="4" r="4" transform="translate(1025 1137)" fill="#421ad5"/>
    </g>
    <g transform="translate(-805 -1005)">
      <circle id="Ellipse_63-89" data-name="Ellipse 63" cx="4" cy="4" r="4" transform="translate(1025 1137)" fill="#421ad5"/>
    </g>
    <g transform="translate(-783 -1005)">
      <circle id="Ellipse_63-90" data-name="Ellipse 63" cx="4" cy="4" r="4" transform="translate(1025 1137)" fill="#421ad5"/>
    </g>
    <g transform="translate(-761 -1005)">
      <circle id="Ellipse_63-91" data-name="Ellipse 63" cx="4" cy="4" r="4" transform="translate(1025 1137)" fill="#421ad5"/>
    </g>
    <g transform="translate(-1025 -983)">
      <circle id="Ellipse_63-92" data-name="Ellipse 63" cx="4" cy="4" r="4" transform="translate(1025 1137)" fill="#421ad5"/>
    </g>
    <g transform="translate(-1003 -983)">
      <circle id="Ellipse_63-93" data-name="Ellipse 63" cx="4" cy="4" r="4" transform="translate(1025 1137)" fill="#421ad5"/>
    </g>
    <g transform="translate(-981 -983)">
      <circle id="Ellipse_63-94" data-name="Ellipse 63" cx="4" cy="4" r="4" transform="translate(1025 1137)" fill="#421ad5"/>
    </g>
    <g transform="translate(-959 -983)">
      <circle id="Ellipse_63-95" data-name="Ellipse 63" cx="4" cy="4" r="4" transform="translate(1025 1137)" fill="#421ad5"/>
    </g>
    <g transform="translate(-937 -983)">
      <circle id="Ellipse_63-96" data-name="Ellipse 63" cx="4" cy="4" r="4" transform="translate(1025 1137)" fill="#421ad5"/>
    </g>
    <g transform="translate(-915 -983)">
      <circle id="Ellipse_63-97" data-name="Ellipse 63" cx="4" cy="4" r="4" transform="translate(1025 1137)" fill="#421ad5"/>
    </g>
    <g transform="translate(-893 -983)">
      <circle id="Ellipse_63-98" data-name="Ellipse 63" cx="4" cy="4" r="4" transform="translate(1025 1137)" fill="#421ad5"/>
    </g>
    <g transform="translate(-871 -983)">
      <circle id="Ellipse_63-99" data-name="Ellipse 63" cx="4" cy="4" r="4" transform="translate(1025 1137)" fill="#421ad5"/>
    </g>
    <g transform="translate(-849 -983)">
      <circle id="Ellipse_63-100" data-name="Ellipse 63" cx="4" cy="4" r="4" transform="translate(1025 1137)" fill="#421ad5"/>
    </g>
    <g transform="translate(-827 -983)">
      <circle id="Ellipse_63-101" data-name="Ellipse 63" cx="4" cy="4" r="4" transform="translate(1025 1137)" fill="#421ad5"/>
    </g>
    <g transform="translate(-805 -983)">
      <circle id="Ellipse_63-102" data-name="Ellipse 63" cx="4" cy="4" r="4" transform="translate(1025 1137)" fill="#421ad5"/>
    </g>
    <g transform="translate(-783 -983)">
      <circle id="Ellipse_63-103" data-name="Ellipse 63" cx="4" cy="4" r="4" transform="translate(1025 1137)" fill="#421ad5"/>
    </g>
    <g transform="translate(-761 -983)">
      <circle id="Ellipse_63-104" data-name="Ellipse 63" cx="4" cy="4" r="4" transform="translate(1025 1137)" fill="#421ad5"/>
    </g>
    <g transform="translate(-1025 -961)">
      <circle id="Ellipse_63-105" data-name="Ellipse 63" cx="4" cy="4" r="4" transform="translate(1025 1137)" fill="#421ad5"/>
    </g>
    <g transform="translate(-1003 -961)">
      <circle id="Ellipse_63-106" data-name="Ellipse 63" cx="4" cy="4" r="4" transform="translate(1025 1137)" fill="#421ad5"/>
    </g>
    <g transform="translate(-981 -961)">
      <circle id="Ellipse_63-107" data-name="Ellipse 63" cx="4" cy="4" r="4" transform="translate(1025 1137)" fill="#421ad5"/>
    </g>
    <g transform="translate(-959 -961)">
      <circle id="Ellipse_63-108" data-name="Ellipse 63" cx="4" cy="4" r="4" transform="translate(1025 1137)" fill="#421ad5"/>
    </g>
    <g transform="translate(-937 -961)">
      <circle id="Ellipse_63-109" data-name="Ellipse 63" cx="4" cy="4" r="4" transform="translate(1025 1137)" fill="#421ad5"/>
    </g>
    <g transform="translate(-915 -961)">
      <circle id="Ellipse_63-110" data-name="Ellipse 63" cx="4" cy="4" r="4" transform="translate(1025 1137)" fill="#421ad5"/>
    </g>
    <g transform="translate(-893 -961)">
      <circle id="Ellipse_63-111" data-name="Ellipse 63" cx="4" cy="4" r="4" transform="translate(1025 1137)" fill="#421ad5"/>
    </g>
    <g transform="translate(-871 -961)">
      <circle id="Ellipse_63-112" data-name="Ellipse 63" cx="4" cy="4" r="4" transform="translate(1025 1137)" fill="#421ad5"/>
    </g>
    <g transform="translate(-849 -961)">
      <circle id="Ellipse_63-113" data-name="Ellipse 63" cx="4" cy="4" r="4" transform="translate(1025 1137)" fill="#421ad5"/>
    </g>
    <g transform="translate(-827 -961)">
      <circle id="Ellipse_63-114" data-name="Ellipse 63" cx="4" cy="4" r="4" transform="translate(1025 1137)" fill="#421ad5"/>
    </g>
    <g transform="translate(-805 -961)">
      <circle id="Ellipse_63-115" data-name="Ellipse 63" cx="4" cy="4" r="4" transform="translate(1025 1137)" fill="#421ad5"/>
    </g>
    <g transform="translate(-783 -961)">
      <circle id="Ellipse_63-116" data-name="Ellipse 63" cx="4" cy="4" r="4" transform="translate(1025 1137)" fill="#421ad5"/>
    </g>
    <g transform="translate(-761 -961)">
      <circle id="Ellipse_63-117" data-name="Ellipse 63" cx="4" cy="4" r="4" transform="translate(1025 1137)" fill="#421ad5"/>
    </g>
    <g transform="translate(-1025 -939)">
      <circle id="Ellipse_63-118" data-name="Ellipse 63" cx="4" cy="4" r="4" transform="translate(1025 1137)" fill="#421ad5"/>
    </g>
    <g transform="translate(-1003 -939)">
      <circle id="Ellipse_63-119" data-name="Ellipse 63" cx="4" cy="4" r="4" transform="translate(1025 1137)" fill="#421ad5"/>
    </g>
    <g transform="translate(-981 -939)">
      <circle id="Ellipse_63-120" data-name="Ellipse 63" cx="4" cy="4" r="4" transform="translate(1025 1137)" fill="#421ad5"/>
    </g>
    <g transform="translate(-959 -939)">
      <circle id="Ellipse_63-121" data-name="Ellipse 63" cx="4" cy="4" r="4" transform="translate(1025 1137)" fill="#421ad5"/>
    </g>
    <g transform="translate(-937 -939)">
      <circle id="Ellipse_63-122" data-name="Ellipse 63" cx="4" cy="4" r="4" transform="translate(1025 1137)" fill="#421ad5"/>
    </g>
    <g transform="translate(-915 -939)">
      <circle id="Ellipse_63-123" data-name="Ellipse 63" cx="4" cy="4" r="4" transform="translate(1025 1137)" fill="#421ad5"/>
    </g>
    <g transform="translate(-893 -939)">
      <circle id="Ellipse_63-124" data-name="Ellipse 63" cx="4" cy="4" r="4" transform="translate(1025 1137)" fill="#421ad5"/>
    </g>
    <g transform="translate(-871 -939)">
      <circle id="Ellipse_63-125" data-name="Ellipse 63" cx="4" cy="4" r="4" transform="translate(1025 1137)" fill="#421ad5"/>
    </g>
    <g transform="translate(-849 -939)">
      <circle id="Ellipse_63-126" data-name="Ellipse 63" cx="4" cy="4" r="4" transform="translate(1025 1137)" fill="#421ad5"/>
    </g>
    <g transform="translate(-827 -939)">
      <circle id="Ellipse_63-127" data-name="Ellipse 63" cx="4" cy="4" r="4" transform="translate(1025 1137)" fill="#421ad5"/>
    </g>
    <g transform="translate(-805 -939)">
      <circle id="Ellipse_63-128" data-name="Ellipse 63" cx="4" cy="4" r="4" transform="translate(1025 1137)" fill="#421ad5"/>
    </g>
    <g transform="translate(-783 -939)">
      <circle id="Ellipse_63-129" data-name="Ellipse 63" cx="4" cy="4" r="4" transform="translate(1025 1137)" fill="#421ad5"/>
    </g>
    <g transform="translate(-761 -939)">
      <circle id="Ellipse_63-130" data-name="Ellipse 63" cx="4" cy="4" r="4" transform="translate(1025 1137)" fill="#421ad5"/>
    </g>
    <g transform="translate(-1025 -917)">
      <circle id="Ellipse_63-131" data-name="Ellipse 63" cx="4" cy="4" r="4" transform="translate(1025 1137)" fill="#421ad5"/>
    </g>
    <g transform="translate(-1003 -917)">
      <circle id="Ellipse_63-132" data-name="Ellipse 63" cx="4" cy="4" r="4" transform="translate(1025 1137)" fill="#421ad5"/>
    </g>
    <g transform="translate(-981 -917)">
      <circle id="Ellipse_63-133" data-name="Ellipse 63" cx="4" cy="4" r="4" transform="translate(1025 1137)" fill="#421ad5"/>
    </g>
    <g transform="translate(-959 -917)">
      <circle id="Ellipse_63-134" data-name="Ellipse 63" cx="4" cy="4" r="4" transform="translate(1025 1137)" fill="#421ad5"/>
    </g>
    <g transform="translate(-937 -917)">
      <circle id="Ellipse_63-135" data-name="Ellipse 63" cx="4" cy="4" r="4" transform="translate(1025 1137)" fill="#421ad5"/>
    </g>
    <g transform="translate(-915 -917)">
      <circle id="Ellipse_63-136" data-name="Ellipse 63" cx="4" cy="4" r="4" transform="translate(1025 1137)" fill="#421ad5"/>
    </g>
    <g transform="translate(-893 -917)">
      <circle id="Ellipse_63-137" data-name="Ellipse 63" cx="4" cy="4" r="4" transform="translate(1025 1137)" fill="#421ad5"/>
    </g>
    <g transform="translate(-871 -917)">
      <circle id="Ellipse_63-138" data-name="Ellipse 63" cx="4" cy="4" r="4" transform="translate(1025 1137)" fill="#421ad5"/>
    </g>
    <g transform="translate(-849 -917)">
      <circle id="Ellipse_63-139" data-name="Ellipse 63" cx="4" cy="4" r="4" transform="translate(1025 1137)" fill="#421ad5"/>
    </g>
    <g transform="translate(-827 -917)">
      <circle id="Ellipse_63-140" data-name="Ellipse 63" cx="4" cy="4" r="4" transform="translate(1025 1137)" fill="#421ad5"/>
    </g>
    <g transform="translate(-805 -917)">
      <circle id="Ellipse_63-141" data-name="Ellipse 63" cx="4" cy="4" r="4" transform="translate(1025 1137)" fill="#421ad5"/>
    </g>
    <g transform="translate(-783 -917)">
      <circle id="Ellipse_63-142" data-name="Ellipse 63" cx="4" cy="4" r="4" transform="translate(1025 1137)" fill="#421ad5"/>
    </g>
    <g transform="translate(-761 -917)">
      <circle id="Ellipse_63-143" data-name="Ellipse 63" cx="4" cy="4" r="4" transform="translate(1025 1137)" fill="#421ad5"/>
    </g>
    <g transform="translate(-1025 -895)">
      <circle id="Ellipse_63-144" data-name="Ellipse 63" cx="4" cy="4" r="4" transform="translate(1025 1137)" fill="#421ad5"/>
    </g>
    <g transform="translate(-1003 -895)">
      <circle id="Ellipse_63-145" data-name="Ellipse 63" cx="4" cy="4" r="4" transform="translate(1025 1137)" fill="#421ad5"/>
    </g>
    <g transform="translate(-981 -895)">
      <circle id="Ellipse_63-146" data-name="Ellipse 63" cx="4" cy="4" r="4" transform="translate(1025 1137)" fill="#421ad5"/>
    </g>
    <g transform="translate(-959 -895)">
      <circle id="Ellipse_63-147" data-name="Ellipse 63" cx="4" cy="4" r="4" transform="translate(1025 1137)" fill="#421ad5"/>
    </g>
    <g transform="translate(-937 -895)">
      <circle id="Ellipse_63-148" data-name="Ellipse 63" cx="4" cy="4" r="4" transform="translate(1025 1137)" fill="#421ad5"/>
    </g>
    <g transform="translate(-915 -895)">
      <circle id="Ellipse_63-149" data-name="Ellipse 63" cx="4" cy="4" r="4" transform="translate(1025 1137)" fill="#421ad5"/>
    </g>
    <g transform="translate(-893 -895)">
      <circle id="Ellipse_63-150" data-name="Ellipse 63" cx="4" cy="4" r="4" transform="translate(1025 1137)" fill="#421ad5"/>
    </g>
    <g transform="translate(-871 -895)">
      <circle id="Ellipse_63-151" data-name="Ellipse 63" cx="4" cy="4" r="4" transform="translate(1025 1137)" fill="#421ad5"/>
    </g>
    <g transform="translate(-849 -895)">
      <circle id="Ellipse_63-152" data-name="Ellipse 63" cx="4" cy="4" r="4" transform="translate(1025 1137)" fill="#421ad5"/>
    </g>
    <g transform="translate(-827 -895)">
      <circle id="Ellipse_63-153" data-name="Ellipse 63" cx="4" cy="4" r="4" transform="translate(1025 1137)" fill="#421ad5"/>
    </g>
    <g transform="translate(-805 -895)">
      <circle id="Ellipse_63-154" data-name="Ellipse 63" cx="4" cy="4" r="4" transform="translate(1025 1137)" fill="#421ad5"/>
    </g>
    <g transform="translate(-783 -895)">
      <circle id="Ellipse_63-155" data-name="Ellipse 63" cx="4" cy="4" r="4" transform="translate(1025 1137)" fill="#421ad5"/>
    </g>
    <g transform="translate(-761 -895)">
      <circle id="Ellipse_63-156" data-name="Ellipse 63" cx="4" cy="4" r="4" transform="translate(1025 1137)" fill="#421ad5"/>
    </g>
  </g>
</svg>
