<svg id="Instagram_Icon" xmlns="http://www.w3.org/2000/svg" width="20" height="20" viewBox="0 0 20 20">
  <rect id="Rectangle_2671" data-name="Rectangle 2671" width="20" height="20" fill="#fff" opacity="0"/>
  <g id="Group_95" data-name="Group 95" transform="translate(0 0)">
    <path id="Path_97" data-name="Path 97" d="M-119.282-176.762c2.619,0,2.929.01,3.963.058a5.425,5.425,0,0,1,1.821.337,3.04,3.04,0,0,1,1.127.734,3.04,3.04,0,0,1,.734,1.127,5.442,5.442,0,0,1,.337,1.821c.047,1.034.058,1.344.058,3.963s-.011,2.929-.058,3.962a5.433,5.433,0,0,1-.337,1.82,3.037,3.037,0,0,1-.734,1.128,3.04,3.04,0,0,1-1.127.734,5.438,5.438,0,0,1-1.821.338c-1.034.046-1.344.056-3.963.056s-2.929-.01-3.962-.056a5.429,5.429,0,0,1-1.82-.338,3.037,3.037,0,0,1-1.128-.734,3.037,3.037,0,0,1-.734-1.128,5.43,5.43,0,0,1-.338-1.82c-.046-1.034-.056-1.344-.056-3.962s.01-2.929.056-3.963a5.439,5.439,0,0,1,.338-1.821,3.04,3.04,0,0,1,.734-1.127,3.037,3.037,0,0,1,1.128-.734,5.416,5.416,0,0,1,1.82-.337c1.034-.048,1.344-.058,3.962-.058m0-1.767c-2.663,0-3,.011-4.043.059a7.2,7.2,0,0,0-2.381.456,4.8,4.8,0,0,0-1.737,1.131,4.8,4.8,0,0,0-1.131,1.737,7.2,7.2,0,0,0-.456,2.38c-.048,1.046-.059,1.38-.059,4.043s.011,3,.059,4.043a7.208,7.208,0,0,0,.456,2.381,4.8,4.8,0,0,0,1.131,1.737,4.814,4.814,0,0,0,1.737,1.131,7.223,7.223,0,0,0,2.381.455c1.046.048,1.38.059,4.043.059s3-.011,4.043-.059a7.219,7.219,0,0,0,2.38-.455,4.811,4.811,0,0,0,1.737-1.131,4.8,4.8,0,0,0,1.131-1.737,7.209,7.209,0,0,0,.456-2.381c.048-1.046.059-1.38.059-4.043s-.011-3-.059-4.043a7.2,7.2,0,0,0-.456-2.38,4.8,4.8,0,0,0-1.131-1.737,4.8,4.8,0,0,0-1.737-1.131,7.2,7.2,0,0,0-2.38-.456c-1.046-.048-1.38-.059-4.043-.059" transform="translate(129.088 178.529)" fill="#896eeb"/>
    <path id="Path_98" data-name="Path 98" d="M-116.867-171.343a5.036,5.036,0,0,0-5.035,5.036,5.036,5.036,0,0,0,5.035,5.035,5.036,5.036,0,0,0,5.036-5.035,5.036,5.036,0,0,0-5.036-5.036m0,8.3a3.268,3.268,0,0,1-3.268-3.269,3.269,3.269,0,0,1,3.268-3.269,3.269,3.269,0,0,1,3.269,3.269,3.269,3.269,0,0,1-3.269,3.269" transform="translate(126.673 176.114)" fill="#896eeb"/>
    <path id="Path_99" data-name="Path 99" d="M-105.852-172.239a1.177,1.177,0,0,1-1.176,1.177,1.177,1.177,0,0,1-1.177-1.177,1.177,1.177,0,0,1,1.177-1.176,1.176,1.176,0,0,1,1.176,1.176" transform="translate(122.07 176.81)" fill="#896eeb"/>
  </g>
</svg>
