<svg xmlns="http://www.w3.org/2000/svg" xmlns:xlink="http://www.w3.org/1999/xlink" width="194.896" height="60" viewBox="0 0 194.896 60">
  <defs>
    <linearGradient id="linear-gradient" x1="0.902" y1="0.227" x2="0.614" y2="0.171" gradientUnits="objectBoundingBox">
      <stop offset="0" stop-color="#fb2cfe"/>
      <stop offset="1" stop-color="#892fc1"/>
    </linearGradient>
    <linearGradient id="linear-gradient-2" x1="0.85" y1="0.15" x2="0.5" y2="0.2" gradientUnits="objectBoundingBox">
      <stop offset="0" stop-color="#bc3dfb"/>
      <stop offset="1" stop-color="#952ec7"/>
    </linearGradient>
    <linearGradient id="linear-gradient-3" x1="0.611" y1="0.147" x2="0.235" y2="0.41" gradientUnits="objectBoundingBox">
      <stop offset="0" stop-color="#896eeb"/>
      <stop offset="1" stop-color="#593acb"/>
    </linearGradient>
    <linearGradient id="linear-gradient-4" x1="0.544" y1="0.688" x2="0.352" y2="0.296" gradientUnits="objectBoundingBox">
      <stop offset="0" stop-color="#1922a8"/>
      <stop offset="1" stop-color="#081066"/>
    </linearGradient>
  </defs>
  <g id="Logo" transform="translate(-319.946 -263.978)">
    <g id="Icon" transform="translate(319.946 263.978)">
      <path id="Path_155035" data-name="Path 155035" d="M11736.452,8840.979h0c-.119-.1-.244-.215-.387-.344a34.249,34.249,0,0,1,2.973-53.275,34.105,34.105,0,0,1,12.964-5.668,34.63,34.63,0,0,1,6.981-.713h0a34.323,34.323,0,0,1,12.058,2.184,33.986,33.986,0,0,1,10.833,6.594l.382.35-9.691,10.763c-.151-.116-.306-.245-.459-.382l-.027-.023-.02-.02c-.035-.033-.065-.061-.094-.09l0,0a20.227,20.227,0,0,0-6.982-4.125,20.407,20.407,0,0,0-6.688-1.117c-.354,0-.716.011-1.075.028a20.694,20.694,0,0,0-3.881.577,20.478,20.478,0,0,0-3.725,1.318c-.42.2-.832.406-1.223.623s-.8.459-1.2.721a20.357,20.357,0,0,0-3.09,2.459c-.33.316-.66.659-.982,1.017a20.666,20.666,0,0,0-3.5,5.384,20.2,20.2,0,0,0-1.016,2.813,20.56,20.56,0,0,0,1.649,15.112c.243.456.519.925.817,1.392a20.333,20.333,0,0,0,4.146,4.688l-8.763,9.732Z" transform="translate(-11724.755 -8780.979)" fill="url(#linear-gradient)"/>
      <path id="Path_155036" data-name="Path 155036" d="M11736.451,8841.081h0c-.138-.121-.265-.233-.386-.343a34.333,34.333,0,0,1-4.654-5.128,33.987,33.987,0,0,1-3.436-5.781,34.207,34.207,0,0,1,29.063-48.692,7.862,7.862,0,0,1,.944.565,7.6,7.6,0,0,1,3.142,4.933,7.538,7.538,0,0,1-.2,3.492,7.724,7.724,0,0,1-1.652,2.95,7.607,7.607,0,0,1-4.352,2.41l-.187.03,0,0a20.359,20.359,0,0,0-10.641,5.426c-.323.312-.653.654-.98,1.018a21.176,21.176,0,0,0-1.565,1.967,20.811,20.811,0,0,0-1.936,3.415,20.594,20.594,0,0,0-1.255,3.746,20.391,20.391,0,0,0,6.852,20.259l-8.762,9.732Z" transform="translate(-11724.755 -8781.081)" fill="url(#linear-gradient-2)"/>
      <path id="Path_155037" data-name="Path 155037" d="M11736.452,8861.6h0c-.129-.112-.256-.225-.387-.344a34.212,34.212,0,0,1-2.534-48.346l.088-.1c.179-.035.358-.065.536-.088a7.725,7.725,0,0,1,.963-.061,7.639,7.639,0,0,1,6.33,11.914l-.08.117-.027.04h0a20.311,20.311,0,0,0-3.486,11.423,20.549,20.549,0,0,0,3.312,11.175,20.312,20.312,0,0,0,4.042,4.541l-8.756,9.725Z" transform="translate(-11724.755 -8801.597)" fill="url(#linear-gradient-3)"/>
      <path id="Path_155038" data-name="Path 155038" d="M11736.465,8900.78h0c-.129-.112-.256-.225-.387-.343a34.427,34.427,0,0,1-4.822-5.356,34.1,34.1,0,0,1-5.662-12.595,34.55,34.55,0,0,1-.818-6.793c.082-.1.166-.2.248-.291a7.59,7.59,0,0,1,4.217-2.385,7.631,7.631,0,0,1,3.037.022,7.632,7.632,0,0,1,5.922,6.021l.018.088.018.1h0a20.264,20.264,0,0,0,3.1,7.5,20.538,20.538,0,0,0,2.516,3.049c.438.435.9.858,1.379,1.257l-8.762,9.73Z" transform="translate(-11724.769 -8840.781)" fill="url(#linear-gradient-4)"/>
    </g>
    <g id="Text" transform="translate(337.777 282.845)">
      <path id="A" d="M12226.63,8930.7a7.335,7.335,0,0,1,.865-3.65,6.376,6.376,0,0,1,2.424-2.375,11.68,11.68,0,0,1,3.679-1.269,37.615,37.615,0,0,1,4.7-.531l3.546-.031.073-.6a6.061,6.061,0,0,0,.076-1.776,2.251,2.251,0,0,0-.5-1.211,3.678,3.678,0,0,0-2.585-.841c-1.106-.038-3.21.25-3.728,2.213h-6.3a8.45,8.45,0,0,1,6.456-6.635,16.6,16.6,0,0,1,3.869-.367c3.629,0,6.238.889,7.752,2.643,1.361,1.574,1.814,3.83,1.348,6.706l-1.073,6.737c-.478,2.914-.866,5.2-1.156,7.25h-6.144c.2-1.214.279-1.519.393-2.521a8.392,8.392,0,0,1-2.316,1.658,8.139,8.139,0,0,1-4.041,1C12229.512,8937.1,12226.63,8934.587,12226.63,8930.7Zm7.728-2.988a2.435,2.435,0,0,0-1.245,2.353,2.277,2.277,0,0,0,.724,1.729,3.252,3.252,0,0,0,2.239.729,5.05,5.05,0,0,0,3.188-1.033,4.483,4.483,0,0,0,1.623-2.933v0l.3-1.694h-2.715A8.41,8.41,0,0,0,12234.357,8927.713Z" transform="translate(-12071.422 -8905.93)" fill="#0b1370"/>
      <path id="R" d="M11843.051,8930.012h0c2.04-12.94,3.431-20.363,3.839-23.121h6.77c-.295,1.785-.176,1.105-.359,2.194,1.223-1.4,2.935-2.146,7.518-2.132.386,0,.855-.012,1.295,0a11.665,11.665,0,0,0-1.217,1.188,15.826,15.826,0,0,0-2.23,3.05,15.991,15.991,0,0,0-1.139,2.555,7.187,7.187,0,0,0-3.895.482c-1.662,1.02-1.787,3.482-2.133,5.666l-1.7,10.117h-6.744Z" transform="translate(-11702.251 -8899.222)" fill="#0b1370"/>
      <path id="T" d="M12135.379,8927.519c-1.164-1.366-1.543-3.38-1.123-5.982l1.713-10.757h-2.924l.754-4.846a4.831,4.831,0,0,0,3.051-1.3,7.876,7.876,0,0,0,1.408-3.627h6.033l-.883,4.932h5.162l-.947,4.846h-4.943l-1.748,10.68a2.637,2.637,0,0,0,.277,2.133,2.16,2.16,0,0,0,1.732.547,6.621,6.621,0,0,0,2.338-.424l.283-.111-.85,5.287-.092.037a9.8,9.8,0,0,1-3.645.624C12138.412,8929.552,12136.529,8928.867,12135.379,8927.519Z" transform="translate(-12005.711 -8898.382)" fill="#0b1370"/>
      <path id="C" d="M12063.656,8935.042a10.183,10.183,0,0,1-3.151-7.8,15.775,15.775,0,0,1,.974-5.623,12.254,12.254,0,0,1,2.683-4.25,11.645,11.645,0,0,1,4.023-2.684,13.262,13.262,0,0,1,4.98-.933,14.272,14.272,0,0,1,3.959.52,9.331,9.331,0,0,1,3.232,1.624,7.86,7.86,0,0,1,2.225,2.817,10.581,10.581,0,0,1,.932,4.067l.006.182h-6.275l-.017-.155a4.188,4.188,0,0,0-1.308-2.945,4.466,4.466,0,0,0-2.929-.828,5,5,0,0,0-4.255,2.271,10.527,10.527,0,0,0-1.552,5.98,6.121,6.121,0,0,0,1.208,4.088,4.721,4.721,0,0,0,3.768,1.456,4.848,4.848,0,0,0,3.174-1.084,4.636,4.636,0,0,0,1.083-1.33,6.094,6.094,0,0,0,.636-1.853l.027-.143h6.067l-.03.2a12.125,12.125,0,0,1-1.259,3.925,9.57,9.57,0,0,1-2.372,2.9,10.11,10.11,0,0,1-3.352,1.792,13.785,13.785,0,0,1-4.191.61A12.067,12.067,0,0,1,12063.656,8935.042Z" transform="translate(-11956.823 -8906.766)" fill="#0b1370"/>
      <path id="E" d="M11991.062,8935.159a8.874,8.874,0,0,1-2.344-3.237,11.206,11.206,0,0,1-.838-4.414,16.148,16.148,0,0,1,.97-5.647,13.013,13.013,0,0,1,2.685-4.387,11.936,11.936,0,0,1,4.057-2.84,12.9,12.9,0,0,1,5.08-1.009c3.581,0,6.439,1.127,8.266,3.255a8.96,8.96,0,0,1,1.917,3.952,14.568,14.568,0,0,1,.074,5.349v0l-.2,1.148h-16.256v.48a5.585,5.585,0,0,0,1.125,3.744,4.683,4.683,0,0,0,3.721,1.406,5.457,5.457,0,0,0,3.085-.81,4.19,4.19,0,0,0,1.638-2.256l.04-.121h6.329l-.052.216a10.178,10.178,0,0,1-1.487,3.395,9.305,9.305,0,0,1-2.486,2.45,11.079,11.079,0,0,1-3.3,1.479,15.114,15.114,0,0,1-3.939.494A12.064,12.064,0,0,1,11991.062,8935.159Zm7.828-16.546a5.064,5.064,0,0,0-1.58.867,7.236,7.236,0,0,0-2.254,3.618h9.645a7.157,7.157,0,0,0-.134-2.094,3.446,3.446,0,0,0-.79-1.569,3.118,3.118,0,0,0-1.267-.812,5.649,5.649,0,0,0-1.882-.283A5.519,5.519,0,0,0,11998.89,8918.613Z" transform="translate(-11908.644 -8906.641)" fill="#0b1370"/>
      <path id="P" d="M11849.641,8932.475H11843l3.7-23.557c.171-1.053.335-2.027.48-2.888l.01-.063c.3-1.8.564-3.35.752-4.8h6.364c-.137.832-.155.961-.261,1.67l0,.022c-.019.123-.04.264-.063.429l-.014.087.03-.022a10.169,10.169,0,0,1,2.622-1.592,13.806,13.806,0,0,1,4.836-.762,8.88,8.88,0,0,1,3.468.672,7.848,7.848,0,0,1,2.773,1.967,10.865,10.865,0,0,1,2.49,7.445,17.642,17.642,0,0,1-.792,5.447,13.51,13.51,0,0,1-2.307,4.457,10.406,10.406,0,0,1-3.588,2.9,10.513,10.513,0,0,1-4.641,1.034,10.322,10.322,0,0,1-2.774-.364,8.112,8.112,0,0,1-2.2-.979l-.092-.059a7.723,7.723,0,0,1-2.4-2.046Zm10.186-26.689a5.349,5.349,0,0,0-1.887.354,6.408,6.408,0,0,0-1.742,1,7.841,7.841,0,0,0-2.494,3.6,8.671,8.671,0,0,0-.475,2.72,7.473,7.473,0,0,0,.4,2.527,5.11,5.11,0,0,0,3.115,3.3,4.664,4.664,0,0,0,1.53.256c2.585,0,4.76-2.084,5.788-5.066a7.993,7.993,0,0,0,.1-5.187c-.553-1.595-1.3-2.747-2.745-3.243A4.854,4.854,0,0,0,11859.826,8905.785Z" transform="translate(-11792.388 -8894.016)" fill="#0b1370"/>
      <path id="S" d="M11848.75,8937.314a8.945,8.945,0,0,1-3.105-1.559,6.757,6.757,0,0,1-1.951-2.48A7.956,7.956,0,0,1,11843,8930v-.176h6.231l.012.162a3.116,3.116,0,0,0,.91,2.186,3,3,0,0,0,1.159.643,6.153,6.153,0,0,0,1.816.239,3.99,3.99,0,0,0,2.425-.608,2.04,2.04,0,0,0,.762-1.748,1.584,1.584,0,0,0-.768-1.492,10.5,10.5,0,0,0-3.241-1.088,11.9,11.9,0,0,1-5.658-2.405,5.057,5.057,0,0,1-1.343-1.944,6.892,6.892,0,0,1-.428-2.544,6.8,6.8,0,0,1,2.794-5.687,9.286,9.286,0,0,1,3.012-1.432,13.664,13.664,0,0,1,3.8-.479,11.038,11.038,0,0,1,6.479,1.686,6.961,6.961,0,0,1,2.818,5.553l.012.184h-6.108l-.015-.16a2.6,2.6,0,0,0-.951-1.844,3.752,3.752,0,0,0-2.41-.746,4.03,4.03,0,0,0-2.359.59,1.851,1.851,0,0,0-.784,1.594,1.51,1.51,0,0,0,.824,1.4,10.328,10.328,0,0,0,3.013,1,22.881,22.881,0,0,1,3.479.982,8.36,8.36,0,0,1,2.457,1.4,5.929,5.929,0,0,1,1.928,4.863,7.41,7.41,0,0,1-.73,3.32,6.738,6.738,0,0,1-2.052,2.429,11.971,11.971,0,0,1-7.172,1.978A15.028,15.028,0,0,1,11848.75,8937.314Z" transform="translate(-11811.569 -8906.987)" fill="#0b1370"/>
      <path id="O" d="M15.716,6.286a9.43,9.43,0,1,0,9.43,9.43,9.44,9.44,0,0,0-9.43-9.43m0-6.286A15.716,15.716,0,1,1,0,15.716,15.716,15.716,0,0,1,15.716,0Z" transform="translate(0 0)" fill="#0b1370"/>
    </g>
  </g>
</svg>
