<svg xmlns="http://www.w3.org/2000/svg" xmlns:xlink="http://www.w3.org/1999/xlink" width="100" height="100" viewBox="0 0 100 100">
  <defs>
    <linearGradient id="linear-gradient" x1="0.902" y1="0.227" x2="0.614" y2="0.171" gradientUnits="objectBoundingBox">
      <stop offset="0" stop-color="#fb2cfe"/>
      <stop offset="1" stop-color="#892fc1"/>
    </linearGradient>
    <linearGradient id="linear-gradient-2" x1="0.85" y1="0.15" x2="0.5" y2="0.2" gradientUnits="objectBoundingBox">
      <stop offset="0" stop-color="#bc3dfb"/>
      <stop offset="1" stop-color="#952ec7"/>
    </linearGradient>
    <linearGradient id="linear-gradient-3" x1="0.611" y1="0.147" x2="0.235" y2="0.41" gradientUnits="objectBoundingBox">
      <stop offset="0" stop-color="#896eeb"/>
      <stop offset="1" stop-color="#593acb"/>
    </linearGradient>
    <linearGradient id="linear-gradient-4" x1="0.544" y1="0.688" x2="0.352" y2="0.296" gradientUnits="objectBoundingBox">
      <stop offset="0" stop-color="#1922a8"/>
      <stop offset="1" stop-color="#081066"/>
    </linearGradient>
  </defs>
  <g id="Logo" transform="translate(-313.946 -258.978)">
    <rect id="Rectangle_6100" data-name="Rectangle 6100" width="100" height="100" transform="translate(313.946 258.978)" fill="#fff" opacity="0"/>
    <g id="Icon" transform="translate(322.518 266.12)">
      <path id="Path_155035" data-name="Path 155035" d="M11741.467,8866.693h0c-.172-.146-.35-.307-.553-.491a48.925,48.925,0,0,1,4.246-76.107,48.715,48.715,0,0,1,18.52-8.1,49.519,49.519,0,0,1,9.975-1.019h0a49.069,49.069,0,0,1,17.225,3.12,48.57,48.57,0,0,1,15.477,9.419l.545.5-13.846,15.375c-.215-.166-.436-.35-.654-.545l-.039-.034-.029-.027c-.049-.048-.094-.087-.133-.129l-.006.006a28.89,28.89,0,0,0-9.975-5.893,29.652,29.652,0,0,0-5.49-1.317,30,30,0,0,0-4.064-.279c-.508,0-1.023.016-1.537.041a29.255,29.255,0,0,0-10.865,2.708c-.6.28-1.187.58-1.746.89s-1.139.656-1.713,1.029a29,29,0,0,0-4.414,3.514c-.473.451-.943.941-1.4,1.452a29.512,29.512,0,0,0-5,7.69,28.732,28.732,0,0,0-2.42,9.487,29.39,29.39,0,0,0,.076,5.53,29.056,29.056,0,0,0,3.25,10.59c.348.651.74,1.321,1.168,1.988a29,29,0,0,0,5.922,6.7l-12.518,13.9Z" transform="translate(-11724.755 -8780.979)" fill="url(#linear-gradient)"/>
      <path id="Path_155036" data-name="Path 155036" d="M11741.465,8866.772v0c-.2-.173-.379-.333-.551-.489a49.147,49.147,0,0,1-6.65-7.325,48.742,48.742,0,0,1-8.061-17.173,49.31,49.31,0,0,1-.977-18.666,48.738,48.738,0,0,1,36.416-40.573,49.348,49.348,0,0,1,9.232-1.408,11.367,11.367,0,0,1,1.348.809,10.845,10.845,0,0,1,4.488,7.046,10.744,10.744,0,0,1-.279,4.989,11.026,11.026,0,0,1-2.359,4.215,10.868,10.868,0,0,1-6.217,3.442c-.07.013-.148.025-.268.044l0,0a29.1,29.1,0,0,0-15.2,7.752c-.461.444-.932.935-1.4,1.453a30.343,30.343,0,0,0-2.236,2.81,29.676,29.676,0,0,0-2.764,4.879,29.257,29.257,0,0,0-1.793,5.352,29.127,29.127,0,0,0,9.787,28.941l-12.516,13.9Z" transform="translate(-11724.755 -8781.058)" fill="url(#linear-gradient-2)"/>
      <path id="Path_155037" data-name="Path 155037" d="M11741.467,8882.569h0c-.186-.16-.367-.321-.553-.491a48.879,48.879,0,0,1-3.621-69.065c.043-.046.084-.092.125-.138.256-.051.514-.094.768-.126a11.13,11.13,0,0,1,1.375-.086,10.912,10.912,0,0,1,9.043,17.02l-.115.168-.039.057v0a29.015,29.015,0,0,0-4.98,16.318,29.4,29.4,0,0,0,4.73,15.964,29.045,29.045,0,0,0,5.775,6.487l-12.508,13.892Z" transform="translate(-11724.755 -8796.855)" fill="url(#linear-gradient-3)"/>
      <path id="Path_155038" data-name="Path 155038" d="M11741.475,8912.739h0c-.184-.16-.365-.32-.553-.489a49.181,49.181,0,0,1-6.889-7.652,48.71,48.71,0,0,1-8.09-17.992,49.446,49.446,0,0,1-1.168-9.7c.117-.144.236-.285.354-.416a10.85,10.85,0,0,1,6.025-3.407,10.9,10.9,0,0,1,4.338.032,10.9,10.9,0,0,1,8.459,8.6l.025.125.025.145,0,0a28.925,28.925,0,0,0,4.422,10.707,29.228,29.228,0,0,0,3.594,4.355c.625.621,1.289,1.227,1.969,1.8l-12.516,13.9Z" transform="translate(-11724.766 -8827.026)" fill="url(#linear-gradient-4)"/>
    </g>
    <g id="Text" transform="translate(347.99 293.073)">
      <path id="O" d="M22.452,8.981A13.471,13.471,0,1,0,35.922,22.452,13.486,13.486,0,0,0,22.452,8.981m0-8.981A22.452,22.452,0,1,1,0,22.452,22.452,22.452,0,0,1,22.452,0Z" transform="translate(0 0)" fill="#0b1370"/>
    </g>
  </g>
</svg>
