<svg xmlns="http://www.w3.org/2000/svg" xmlns:xlink="http://www.w3.org/1999/xlink" width="1340" height="700" viewBox="0 0 1340 700">
  <defs>
    <linearGradient id="linear-gradient" x1="0.1" x2="0.1" y2="0.2" gradientUnits="objectBoundingBox">
      <stop offset="0" stop-color="#00aeef"/>
      <stop offset="0.212" stop-color="#0097dc"/>
      <stop offset="0.519" stop-color="#007cc5"/>
      <stop offset="0.792" stop-color="#006cb8"/>
      <stop offset="1" stop-color="#0066b3"/>
    </linearGradient>
  </defs>
  <g id="Group_156053" data-name="Group 156053" transform="translate(28.056 -9.5)">
    <rect id="Rectangle_2712" data-name="Rectangle 2712" width="1340" height="700" transform="translate(-28.056 9.5)" fill="#fff" opacity="0"/>
    <g id="Group_156019" data-name="Group 156019" transform="translate(3 9)">
      <rect id="Rectangle_2697" data-name="Rectangle 2697" width="1045" height="491" rx="10" transform="translate(175 110)" fill="#a899eb" opacity="0.2"/>
      <g id="Group_156020" data-name="Group 156020">
        <rect id="Rectangle_2692" data-name="Rectangle 2692" width="321.667" height="77.778" rx="10" transform="translate(195 130)" fill="#5f44da"/>
        <rect id="Rectangle_2707" data-name="Rectangle 2707" width="321.667" height="77.778" rx="10" transform="translate(195 228)" fill="#5f44da"/>
        <rect id="Rectangle_2708" data-name="Rectangle 2708" width="321.667" height="175.558" rx="10" transform="translate(195 326)" fill="#5f44da"/>
        <rect id="Rectangle_2698" data-name="Rectangle 2698" width="321.667" height="77.778" rx="10" transform="translate(537 130)" fill="#9583e6"/>
        <rect id="Rectangle_2699" data-name="Rectangle 2699" width="321.667" height="77.778" rx="10" transform="translate(878.34 130)" fill="#5f44da"/>
        <rect id="Rectangle_2700" data-name="Rectangle 2700" width="321.667" height="77.778" rx="10" transform="translate(878.34 228)" fill="#5f44da"/>
        <rect id="Rectangle_2704" data-name="Rectangle 2704" width="321.667" height="177.998" rx="10" transform="translate(537 228)" fill="#5f44da"/>
        <rect id="Rectangle_2701" data-name="Rectangle 2701" width="321.667" height="77.778" rx="10" transform="translate(878.34 325.56)" fill="#9583e6"/>
        <rect id="Rectangle_2702" data-name="Rectangle 2702" width="321.667" height="77.778" rx="10" transform="translate(878.34 423)" fill="#5f44da"/>
        <rect id="Rectangle_2703" data-name="Rectangle 2703" width="322" height="60" rx="10" transform="translate(878 521)" fill="#5f44da"/>
        <rect id="Rectangle_2705" data-name="Rectangle 2705" width="322" height="60" rx="10" transform="translate(536 521)" fill="#5f44da"/>
        <rect id="Rectangle_2706" data-name="Rectangle 2706" width="322" height="60" rx="10" transform="translate(194 521)" fill="#5f44da"/>
        <text id="SaaS_Internal_Applications" data-name="SaaS &amp; Internal Applications" transform="translate(698 177)" fill="#fff" font-size="20" font-family="Roboto-Medium, Roboto" font-weight="500"><tspan x="-126.831" y="0">SaaS &amp; Internal Applications</tspan></text>
        <text id="AI_Agents" data-name="AI Agents" transform="translate(355 177)" fill="#fff" font-size="20" font-family="Roboto-Medium, Roboto" font-weight="500"><tspan x="-43.706" y="0">AI Agents</tspan></text>
        <text id="Content_Knowledge_Creation" data-name="Content &amp; Knowledge Creation" transform="translate(355 275)" fill="#fff" font-size="20" font-family="Roboto-Medium, Roboto" font-weight="500"><tspan x="-136.768" y="0">Content &amp; Knowledge Creation</tspan></text>
        <text id="Multi-Model_RAG_Reasoning_Engine" data-name="Multi-Model
RAG &amp; Reasoning
Engine" transform="translate(355 398)" fill="#fff" font-size="20" font-family="Roboto-Medium, Roboto" font-weight="500"><tspan x="-54.038" y="0">Multi-Model</tspan><tspan x="-78.291" y="24">RAG &amp; Reasoning</tspan><tspan x="-30.366" y="48">Engine</tspan></text>
        <text id="LAM_Large_Action_Model_" data-name="LAM (Large Action Model)" transform="translate(697 559)" fill="#fff" font-size="20" font-family="Roboto-Medium, Roboto" font-weight="500"><tspan x="-117.803" y="0">LAM (Large Action Model)</tspan></text>
        <text id="M_L_Prediction_Models" data-name="M/L Prediction Models" transform="translate(1039 559)" fill="#fff" font-size="20" font-family="Roboto-Medium, Roboto" font-weight="500"><tspan x="-102.114" y="0">M/L Prediction Models</tspan></text>
        <text id="LLM_Reasoning_Models" data-name="LLM &amp; Reasoning Models" transform="translate(355 559)" fill="#fff" font-size="20" font-family="Roboto-Medium, Roboto" font-weight="500"><tspan x="-113.828" y="0">LLM &amp; Reasoning Models</tspan></text>
        <text id="Inteligent_Orchestration" data-name="Inteligent
Orchestration" transform="translate(698 313)" fill="#fff" font-size="22" font-family="Roboto-Medium, Roboto" font-weight="500"><tspan x="-46.315" y="0">Inteligent</tspan><tspan x="-66.967" y="24">Orchestration</tspan></text>
        <text id="Knowledge_Model" data-name="Knowledge Model" transform="translate(1039 177)" fill="#fff" font-size="20" font-family="Roboto-Medium, Roboto" font-weight="500"><tspan x="-80.093" y="0">Knowledge Model</tspan></text>
        <text id="System_of_Records" data-name="System of Records" transform="translate(1039 371.56)" fill="#fff" font-size="20" font-family="Roboto-Medium, Roboto" font-weight="500"><tspan x="-84.531" y="0">System of Records</tspan></text>
        <text id="Guardrails_Governance" data-name="Guardrails &amp; Governance" transform="translate(1039 470)" fill="#fff" font-size="20" font-family="Roboto-Medium, Roboto" font-weight="500"><tspan x="-110.742" y="0">Guardrails &amp; Governance</tspan></text>
        <text id="Real-Time_Adaptation_Self-Learning" data-name="Real-Time Adaptation &amp;
Self-Learning" transform="translate(1039 263)" fill="#fff" font-size="20" font-family="Roboto-Medium, Roboto" font-weight="500"><tspan x="-106.123" y="0">Real-Time Adaptation &amp;</tspan><tspan x="-59.829" y="24">Self-Learning</tspan></text>
        <g id="Group_156035" data-name="Group 156035" transform="translate(0 2)">
          <text id="Enterprise_Data" data-name="Enterprise
Data" transform="translate(697 457)" fill="#5035cb" font-size="22" font-family="Roboto-Medium, Roboto" font-weight="500"><tspan x="-50.214" y="0">Enterprise</tspan><tspan x="-22.747" y="24">Data</tspan></text>
          <g id="database-svgrepo-com_2_" data-name="database-svgrepo-com (2)" transform="translate(568 422)">
            <g id="Group_156034" data-name="Group 156034">
              <g id="Group_156029" data-name="Group 156029" transform="translate(0 39.781)">
                <g id="Group_156028" data-name="Group 156028">
                  <path id="Path_193271" data-name="Path 193271" d="M60.759,275.685v16.808c0,5.628-13.6,10.182-30.38,10.182-10.63,0-19.993-1.829-25.416-4.605-2.788-1.42-4.528-3.083-4.886-4.886A3.173,3.173,0,0,1,0,292.493V275.685a.627.627,0,0,1,.013-.153c-.013-.026-.013-.038,0-.051a1.9,1.9,0,0,1,.026-.269c.013-.038.013-.077.026-.115a1.34,1.34,0,0,1,.077-.307v-.013a3.778,3.778,0,0,1,.218-.6c1.688-3.671,9.223-6.7,19.328-7.969,1.318-.166,2.686-.307,4.08-.409h.077c2.111-.166,4.3-.243,6.536-.243s4.426.077,6.536.243h.077c1.394.1,2.763.243,4.08.409,10.105,1.266,17.639,4.3,19.328,7.969a3.778,3.778,0,0,1,.217.6v.013a1.348,1.348,0,0,1,.077.307,3.469,3.469,0,0,1,.051.384v.051A.613.613,0,0,1,60.759,275.685Z" transform="translate(0 -265.337)" fill="#5035cb"/>
                  <path id="Path_193272" data-name="Path 193272" d="M60.759,333.152v.806c0,5.628-13.6,10.195-30.38,10.195S0,339.586,0,333.958v-.806a3.145,3.145,0,0,0,.025.358c.4,3.965,7.572,7.368,17.767,8.916l1.062.153c.576.089,1.151.166,1.74.23.243.013.5.038.755.077,1.42.154,2.891.269,4.4.345,1.011.051,2.034.089,3.07.1.512.013,1.036.013,1.561.013s1.049,0,1.56-.013c1.036-.013,2.059-.051,3.07-.1,1.509-.077,2.98-.192,4.4-.345.256-.038.512-.064.755-.077.588-.064,1.164-.141,1.74-.23l1.062-.153c10.195-1.548,17.371-4.95,17.767-8.916A3.109,3.109,0,0,0,60.759,333.152Z" transform="translate(0 -322.753)" fill="#d9d1ff" opacity="0.1"/>
                  <path id="Path_193273" data-name="Path 193273" d="M60.759,274.407v.1a3.144,3.144,0,0,1-.026.358c-.537,3.978-7.675,7.342-17.767,8.916l-1.062.153c-.358.051-.716.089-1.074.141-.217.026-.448.051-.665.09-.243.013-.5.038-.755.077-.947.089-1.919.179-2.9.243-.5.038-1,.077-1.5.1-1.011.038-2.034.077-3.07.1-.512.013-1.036.013-1.56.013s-1.049,0-1.561-.013c-1.036-.026-2.059-.064-3.07-.1-.5-.026-1-.064-1.5-.1-.985-.064-1.957-.154-2.9-.243-.256-.038-.512-.064-.755-.077-.217-.038-.448-.064-.665-.09-.358-.051-.716-.089-1.074-.141l-1.062-.153C7.7,282.21.563,278.846.025,274.868A3.145,3.145,0,0,1,0,274.509v-.1a.283.283,0,0,1,.013-.1c-.013-.026-.013-.038,0-.051a3.47,3.47,0,0,1,.051-.384.987.987,0,0,0,.025-.192A.085.085,0,0,1,.1,273.6a.318.318,0,0,1,.013-.1,1.782,1.782,0,0,1,.077-.243c.038-.115.09-.243.141-.371,1.586-3.646,8.813-6.664,18.573-8.007,1.164-.166,2.366-.307,3.607-.409a.077.077,0,0,1,.051-.013c2.494-.23,5.117-.345,7.816-.345s5.321.115,7.816.345a.077.077,0,0,1,.051.013c1.241.1,2.443.243,3.607.409,9.76,1.343,16.987,4.362,18.573,8.007a3.933,3.933,0,0,1,.218.614c.026.128.026.243.051.371a3.468,3.468,0,0,1,.051.384v.051C60.746,274.33,60.759,274.369,60.759,274.407Z" transform="translate(0 -264.11)" fill="#d9d1ff"/>
                </g>
                <path id="Path_193274" data-name="Path 193274" d="M289.74,426.451v4.7a57.251,57.251,0,0,1-8.327,1.791v-4.7A57.246,57.246,0,0,0,289.74,426.451Z" transform="translate(-239.026 -401.999)" fill="#d9d1ff"/>
              </g>
              <path id="Path_193275" data-name="Path 193275" d="M61.293,273.5c-.013.026-.013.038-.026.051v.013c-1.433,5.168-14.416,9.21-30.239,9.21S2.222,278.731.79,273.563v-.013a.047.047,0,0,1-.013-.038L.764,273.5a1.782,1.782,0,0,1,.077-.243c.038-.115.09-.243.141-.371,1.586-3.646,8.813-6.664,18.573-8.007,1.164-.166,2.366-.307,3.607-.409a.077.077,0,0,1,.051-.013c2.494-.23,5.117-.345,7.816-.345s5.321.115,7.816.345a.077.077,0,0,1,.051.013c1.241.1,2.443.243,3.607.409,9.76,1.343,16.987,4.362,18.573,8.007A3.933,3.933,0,0,1,61.293,273.5Z" transform="translate(-0.649 -224.329)" fill="#9c84ff"/>
              <g id="Group_156031" data-name="Group 156031" transform="translate(0 20.108)">
                <g id="Group_156030" data-name="Group 156030">
                  <path id="Path_193276" data-name="Path 193276" d="M60.759,143.642v16.8a3.7,3.7,0,0,1-.333,1.509.216.216,0,0,0-.026.064c-2.264,4.886-14.838,8.609-30.021,8.609S2.622,166.9.358,162.011a.216.216,0,0,0-.026-.064c-.051-.128-.1-.256-.141-.371s-.077-.243-.1-.371v-.026a1.4,1.4,0,0,1-.064-.333c-.013-.141-.025-.269-.025-.409V143.63a3.425,3.425,0,0,1,.128-.883c.013-.026.013-.051.026-.064a4.216,4.216,0,0,1,.2-.563c1.7-3.671,9.248-6.7,19.34-7.969,1.318-.166,2.673-.307,4.068-.409,2.123-.153,4.336-.243,6.613-.243s4.49.09,6.613.243c1.394.1,2.75.243,4.068.409,10.092,1.266,17.639,4.3,19.34,7.969a4.216,4.216,0,0,1,.2.563c.013.013.013.038.026.064A3.522,3.522,0,0,1,60.759,143.642Z" transform="translate(0 -133.499)" fill="#5035cb"/>
                  <path id="Path_193277" data-name="Path 193277" d="M60.759,201.182v.806c0,4.259-7.816,7.905-18.906,9.44-.256.026-.524.064-.78.1a89.72,89.72,0,0,1-21.387,0c-.256-.038-.524-.077-.78-.1C7.816,209.893,0,206.247,0,201.988v-.806a3.365,3.365,0,0,0,.025.358c.409,4.055,7.931,7.521,18.522,9.018l.307.038c.819.128,1.637.217,2.494.307l1.164.115c.409.038.831.077,1.253.1h.077c1.612.128,3.275.2,4.976.23.512.013,1.036.013,1.561.013s1.049,0,1.56-.013c1.7-.026,3.364-.1,4.976-.23h.077c.422-.026.844-.064,1.253-.1l1.164-.115c.857-.09,1.676-.179,2.494-.307l.307-.038c10.591-1.5,18.112-4.963,18.522-9.018A3.366,3.366,0,0,0,60.759,201.182Z" transform="translate(0 -190.987)" fill="#d9d1ff" opacity="0.1"/>
                  <path id="Path_193278" data-name="Path 193278" d="M60.759,195.368v.115a3.365,3.365,0,0,1-.026.358c-.55,4.055-8.033,7.5-18.522,9.018l-.307.038c-.358.051-.716.089-1.074.141-.473.051-.934.1-1.42.166-.4.038-.806.077-1.215.1l-1.279.115c-.141,0-.269.013-.409.026-.5.038-1,.064-1.5.09q-1.516.077-3.07.115H28.819q-1.554-.038-3.07-.115c-.5-.026-1-.051-1.5-.09-.141-.013-.269-.026-.409-.026l-1.279-.115c-.409-.026-.819-.064-1.215-.1-.486-.064-.947-.115-1.42-.166-.358-.051-.716-.089-1.074-.141l-.307-.038C8.058,203.337.576,199.9.025,195.842A3.365,3.365,0,0,1,0,195.484v-.115c0-.128.013-.256.025-.384a2,2,0,0,1,.064-.384.455.455,0,0,1,.026-.128H60.644c.028.107.024.217.042.324a3.383,3.383,0,0,1,.061.473C60.747,195.3,60.759,195.335,60.759,195.368Z" transform="translate(0 -185.289)" fill="#d9d1ff"/>
                </g>
                <path id="Path_193279" data-name="Path 193279" d="M289.74,294.411v4.7a57.251,57.251,0,0,1-8.327,1.791v-4.7A57.267,57.267,0,0,0,289.74,294.411Z" transform="translate(-239.026 -270.174)" fill="#d9d1ff"/>
              </g>
              <path id="Path_193280" data-name="Path 193280" d="M61.352,194.472v.064c-1.471,5.168-14.441,9.21-30.251,9.21S2.32,199.7.849,194.536v-.064Z" transform="translate(-0.721 -165.18)" fill="#9b84ff"/>
              <g id="Group_156033" data-name="Group 156033">
                <g id="Group_156032" data-name="Group 156032">
                  <path id="Path_193281" data-name="Path 193281" d="M60.759,11.659v16.8a3.814,3.814,0,0,1-.358,1.573,6.076,6.076,0,0,1-.307.563c-2.917,4.605-15.107,8.059-29.714,8.059S3.582,35.195.665,30.59a6.077,6.077,0,0,1-.307-.563.216.216,0,0,0-.026-.064,3.168,3.168,0,0,1-.141-.371,2.776,2.776,0,0,1-.09-.307.454.454,0,0,1-.025-.128,2.363,2.363,0,0,1-.051-.294C.013,28.722,0,28.595,0,28.454V11.646C.1,6.043,13.661,1.528,30.38,1.528c10.335,0,19.468,1.727,24.956,4.375,3.2,1.535,5.168,3.39,5.4,5.4A3.4,3.4,0,0,1,60.759,11.659Z" transform="translate(0 -1.298)" fill="#5035cb"/>
                  <path id="Path_193282" data-name="Path 193282" d="M60.759,69.127v.806c0,4.362-8.187,8.084-19.7,9.542a87.808,87.808,0,0,1-10.681.64,87.811,87.811,0,0,1-10.681-.64C8.186,78.017,0,74.295,0,69.933v-.806c0,4.579,8.98,8.442,21.349,9.721.793.077,1.6.153,2.418.217,2.123.154,4.336.243,6.613.243s4.49-.089,6.613-.243c.819-.064,1.624-.141,2.418-.217C51.779,77.569,60.759,73.706,60.759,69.127Z" transform="translate(0 -58.715)" fill="#e8e8e9" opacity="0.1"/>
                  <path id="Path_193283" data-name="Path 193283" d="M60.759,10.3v.064c-.077,4.592-9.031,8.468-21.349,9.773-.793.077-1.6.153-2.418.217-2.123.154-4.336.243-6.613.243s-4.49-.089-6.613-.243c-.819-.064-1.624-.141-2.418-.217C9.031,18.829.077,14.953,0,10.361V10.3C0,4.618,13.6,0,30.38,0,40.51,0,49.477,1.688,55,4.272c3.454,1.612,5.564,3.594,5.73,5.731A1.1,1.1,0,0,1,60.759,10.3Z" fill="#d9d1ff"/>
                </g>
                <path id="Path_193284" data-name="Path 193284" d="M289.74,162.37v4.7a57.251,57.251,0,0,1-8.327,1.791v-4.7A57.247,57.247,0,0,0,289.74,162.37Z" transform="translate(-239.026 -137.913)" fill="#d9d1ff"/>
              </g>
            </g>
            <path id="Path_193285" data-name="Path 193285" d="M30.38,0V77.119c-10.63,0-19.993-1.829-25.416-4.605C2.175,71.094.435,69.431.077,67.628A3.164,3.164,0,0,1,0,66.937V50.078a.283.283,0,0,1,.013-.1C0,49.95,0,49.938.013,49.925a1.9,1.9,0,0,1,.026-.269.859.859,0,0,1,.051-.307A.085.085,0,0,1,.1,49.272a.108.108,0,0,1,.026-.09,1.852,1.852,0,0,1,.064-.256c.038-.115.09-.243.141-.371-.051-.128-.1-.256-.141-.371s-.077-.243-.1-.371v-.026a1.4,1.4,0,0,1-.064-.333C.013,47.315,0,47.187,0,47.047V30.188c0-.128.013-.256.025-.384a2,2,0,0,1,.064-.384.286.286,0,0,1,.038-.128,2.982,2.982,0,0,1,.2-.627,3.168,3.168,0,0,1-.141-.371,2.776,2.776,0,0,1-.09-.307.454.454,0,0,1-.025-.128,2.363,2.363,0,0,1-.051-.294C.013,27.425,0,27.3,0,27.156V10.3C0,4.618,13.6,0,30.38,0Z" fill="#fff" opacity="0.2"/>
          </g>
          <g id="database-svgrepo-com_2_2" data-name="database-svgrepo-com (2)" transform="translate(766 422)">
            <g id="Group_156034-2" data-name="Group 156034">
              <g id="Group_156029-2" data-name="Group 156029" transform="translate(0 39.781)">
                <g id="Group_156028-2" data-name="Group 156028">
                  <path id="Path_193271-2" data-name="Path 193271" d="M60.759,275.685v16.808c0,5.628-13.6,10.182-30.38,10.182-10.63,0-19.993-1.829-25.416-4.605-2.788-1.42-4.528-3.083-4.886-4.886A3.173,3.173,0,0,1,0,292.493V275.685a.627.627,0,0,1,.013-.153c-.013-.026-.013-.038,0-.051a1.9,1.9,0,0,1,.026-.269c.013-.038.013-.077.026-.115a1.34,1.34,0,0,1,.077-.307v-.013a3.778,3.778,0,0,1,.218-.6c1.688-3.671,9.223-6.7,19.328-7.969,1.318-.166,2.686-.307,4.08-.409h.077c2.111-.166,4.3-.243,6.536-.243s4.426.077,6.536.243h.077c1.394.1,2.763.243,4.08.409,10.105,1.266,17.639,4.3,19.328,7.969a3.778,3.778,0,0,1,.217.6v.013a1.348,1.348,0,0,1,.077.307,3.469,3.469,0,0,1,.051.384v.051A.613.613,0,0,1,60.759,275.685Z" transform="translate(0 -265.337)" fill="#5035cb"/>
                  <path id="Path_193272-2" data-name="Path 193272" d="M60.759,333.152v.806c0,5.628-13.6,10.195-30.38,10.195S0,339.586,0,333.958v-.806a3.145,3.145,0,0,0,.025.358c.4,3.965,7.572,7.368,17.767,8.916l1.062.153c.576.089,1.151.166,1.74.23.243.013.5.038.755.077,1.42.154,2.891.269,4.4.345,1.011.051,2.034.089,3.07.1.512.013,1.036.013,1.561.013s1.049,0,1.56-.013c1.036-.013,2.059-.051,3.07-.1,1.509-.077,2.98-.192,4.4-.345.256-.038.512-.064.755-.077.588-.064,1.164-.141,1.74-.23l1.062-.153c10.195-1.548,17.371-4.95,17.767-8.916A3.109,3.109,0,0,0,60.759,333.152Z" transform="translate(0 -322.753)" fill="#d9d1ff" opacity="0.1"/>
                  <path id="Path_193273-2" data-name="Path 193273" d="M60.759,274.407v.1a3.144,3.144,0,0,1-.026.358c-.537,3.978-7.675,7.342-17.767,8.916l-1.062.153c-.358.051-.716.089-1.074.141-.217.026-.448.051-.665.09-.243.013-.5.038-.755.077-.947.089-1.919.179-2.9.243-.5.038-1,.077-1.5.1-1.011.038-2.034.077-3.07.1-.512.013-1.036.013-1.56.013s-1.049,0-1.561-.013c-1.036-.026-2.059-.064-3.07-.1-.5-.026-1-.064-1.5-.1-.985-.064-1.957-.154-2.9-.243-.256-.038-.512-.064-.755-.077-.217-.038-.448-.064-.665-.09-.358-.051-.716-.089-1.074-.141l-1.062-.153C7.7,282.21.563,278.846.025,274.868A3.145,3.145,0,0,1,0,274.509v-.1a.283.283,0,0,1,.013-.1c-.013-.026-.013-.038,0-.051a3.47,3.47,0,0,1,.051-.384.987.987,0,0,0,.025-.192A.085.085,0,0,1,.1,273.6a.318.318,0,0,1,.013-.1,1.782,1.782,0,0,1,.077-.243c.038-.115.09-.243.141-.371,1.586-3.646,8.813-6.664,18.573-8.007,1.164-.166,2.366-.307,3.607-.409a.077.077,0,0,1,.051-.013c2.494-.23,5.117-.345,7.816-.345s5.321.115,7.816.345a.077.077,0,0,1,.051.013c1.241.1,2.443.243,3.607.409,9.76,1.343,16.987,4.362,18.573,8.007a3.933,3.933,0,0,1,.218.614c.026.128.026.243.051.371a3.468,3.468,0,0,1,.051.384v.051C60.746,274.33,60.759,274.369,60.759,274.407Z" transform="translate(0 -264.11)" fill="#d9d1ff"/>
                </g>
                <path id="Path_193274-2" data-name="Path 193274" d="M289.74,426.451v4.7a57.251,57.251,0,0,1-8.327,1.791v-4.7A57.246,57.246,0,0,0,289.74,426.451Z" transform="translate(-239.026 -401.999)" fill="#d9d1ff"/>
              </g>
              <path id="Path_193275-2" data-name="Path 193275" d="M61.293,273.5c-.013.026-.013.038-.026.051v.013c-1.433,5.168-14.416,9.21-30.239,9.21S2.222,278.731.79,273.563v-.013a.047.047,0,0,1-.013-.038L.764,273.5a1.782,1.782,0,0,1,.077-.243c.038-.115.09-.243.141-.371,1.586-3.646,8.813-6.664,18.573-8.007,1.164-.166,2.366-.307,3.607-.409a.077.077,0,0,1,.051-.013c2.494-.23,5.117-.345,7.816-.345s5.321.115,7.816.345a.077.077,0,0,1,.051.013c1.241.1,2.443.243,3.607.409,9.76,1.343,16.987,4.362,18.573,8.007A3.933,3.933,0,0,1,61.293,273.5Z" transform="translate(-0.649 -224.329)" fill="#9c84ff"/>
              <g id="Group_156031-2" data-name="Group 156031" transform="translate(0 20.108)">
                <g id="Group_156030-2" data-name="Group 156030">
                  <path id="Path_193276-2" data-name="Path 193276" d="M60.759,143.642v16.8a3.7,3.7,0,0,1-.333,1.509.216.216,0,0,0-.026.064c-2.264,4.886-14.838,8.609-30.021,8.609S2.622,166.9.358,162.011a.216.216,0,0,0-.026-.064c-.051-.128-.1-.256-.141-.371s-.077-.243-.1-.371v-.026a1.4,1.4,0,0,1-.064-.333c-.013-.141-.025-.269-.025-.409V143.63a3.425,3.425,0,0,1,.128-.883c.013-.026.013-.051.026-.064a4.216,4.216,0,0,1,.2-.563c1.7-3.671,9.248-6.7,19.34-7.969,1.318-.166,2.673-.307,4.068-.409,2.123-.153,4.336-.243,6.613-.243s4.49.09,6.613.243c1.394.1,2.75.243,4.068.409,10.092,1.266,17.639,4.3,19.34,7.969a4.216,4.216,0,0,1,.2.563c.013.013.013.038.026.064A3.522,3.522,0,0,1,60.759,143.642Z" transform="translate(0 -133.499)" fill="#5035cb"/>
                  <path id="Path_193277-2" data-name="Path 193277" d="M60.759,201.182v.806c0,4.259-7.816,7.905-18.906,9.44-.256.026-.524.064-.78.1a89.72,89.72,0,0,1-21.387,0c-.256-.038-.524-.077-.78-.1C7.816,209.893,0,206.247,0,201.988v-.806a3.365,3.365,0,0,0,.025.358c.409,4.055,7.931,7.521,18.522,9.018l.307.038c.819.128,1.637.217,2.494.307l1.164.115c.409.038.831.077,1.253.1h.077c1.612.128,3.275.2,4.976.23.512.013,1.036.013,1.561.013s1.049,0,1.56-.013c1.7-.026,3.364-.1,4.976-.23h.077c.422-.026.844-.064,1.253-.1l1.164-.115c.857-.09,1.676-.179,2.494-.307l.307-.038c10.591-1.5,18.112-4.963,18.522-9.018A3.366,3.366,0,0,0,60.759,201.182Z" transform="translate(0 -190.987)" fill="#d9d1ff" opacity="0.1"/>
                  <path id="Path_193278-2" data-name="Path 193278" d="M60.759,195.368v.115a3.365,3.365,0,0,1-.026.358c-.55,4.055-8.033,7.5-18.522,9.018l-.307.038c-.358.051-.716.089-1.074.141-.473.051-.934.1-1.42.166-.4.038-.806.077-1.215.1l-1.279.115c-.141,0-.269.013-.409.026-.5.038-1,.064-1.5.09q-1.516.077-3.07.115H28.819q-1.554-.038-3.07-.115c-.5-.026-1-.051-1.5-.09-.141-.013-.269-.026-.409-.026l-1.279-.115c-.409-.026-.819-.064-1.215-.1-.486-.064-.947-.115-1.42-.166-.358-.051-.716-.089-1.074-.141l-.307-.038C8.058,203.337.576,199.9.025,195.842A3.365,3.365,0,0,1,0,195.484v-.115c0-.128.013-.256.025-.384a2,2,0,0,1,.064-.384.455.455,0,0,1,.026-.128H60.644c.028.107.024.217.042.324a3.383,3.383,0,0,1,.061.473C60.747,195.3,60.759,195.335,60.759,195.368Z" transform="translate(0 -185.289)" fill="#d9d1ff"/>
                </g>
                <path id="Path_193279-2" data-name="Path 193279" d="M289.74,294.411v4.7a57.251,57.251,0,0,1-8.327,1.791v-4.7A57.267,57.267,0,0,0,289.74,294.411Z" transform="translate(-239.026 -270.174)" fill="#d9d1ff"/>
              </g>
              <path id="Path_193280-2" data-name="Path 193280" d="M61.352,194.472v.064c-1.471,5.168-14.441,9.21-30.251,9.21S2.32,199.7.849,194.536v-.064Z" transform="translate(-0.721 -165.18)" fill="#9b84ff"/>
              <g id="Group_156033-2" data-name="Group 156033">
                <g id="Group_156032-2" data-name="Group 156032">
                  <path id="Path_193281-2" data-name="Path 193281" d="M60.759,11.659v16.8a3.814,3.814,0,0,1-.358,1.573,6.076,6.076,0,0,1-.307.563c-2.917,4.605-15.107,8.059-29.714,8.059S3.582,35.195.665,30.59a6.077,6.077,0,0,1-.307-.563.216.216,0,0,0-.026-.064,3.168,3.168,0,0,1-.141-.371,2.776,2.776,0,0,1-.09-.307.454.454,0,0,1-.025-.128,2.363,2.363,0,0,1-.051-.294C.013,28.722,0,28.595,0,28.454V11.646C.1,6.043,13.661,1.528,30.38,1.528c10.335,0,19.468,1.727,24.956,4.375,3.2,1.535,5.168,3.39,5.4,5.4A3.4,3.4,0,0,1,60.759,11.659Z" transform="translate(0 -1.298)" fill="#5035cb"/>
                  <path id="Path_193282-2" data-name="Path 193282" d="M60.759,69.127v.806c0,4.362-8.187,8.084-19.7,9.542a87.808,87.808,0,0,1-10.681.64,87.811,87.811,0,0,1-10.681-.64C8.186,78.017,0,74.295,0,69.933v-.806c0,4.579,8.98,8.442,21.349,9.721.793.077,1.6.153,2.418.217,2.123.154,4.336.243,6.613.243s4.49-.089,6.613-.243c.819-.064,1.624-.141,2.418-.217C51.779,77.569,60.759,73.706,60.759,69.127Z" transform="translate(0 -58.715)" fill="#e8e8e9" opacity="0.1"/>
                  <path id="Path_193283-2" data-name="Path 193283" d="M60.759,10.3v.064c-.077,4.592-9.031,8.468-21.349,9.773-.793.077-1.6.153-2.418.217-2.123.154-4.336.243-6.613.243s-4.49-.089-6.613-.243c-.819-.064-1.624-.141-2.418-.217C9.031,18.829.077,14.953,0,10.361V10.3C0,4.618,13.6,0,30.38,0,40.51,0,49.477,1.688,55,4.272c3.454,1.612,5.564,3.594,5.73,5.731A1.1,1.1,0,0,1,60.759,10.3Z" fill="#d9d1ff"/>
                </g>
                <path id="Path_193284-2" data-name="Path 193284" d="M289.74,162.37v4.7a57.251,57.251,0,0,1-8.327,1.791v-4.7A57.247,57.247,0,0,0,289.74,162.37Z" transform="translate(-239.026 -137.913)" fill="#d9d1ff"/>
              </g>
            </g>
            <path id="Path_193285-2" data-name="Path 193285" d="M30.38,0V77.119c-10.63,0-19.993-1.829-25.416-4.605C2.175,71.094.435,69.431.077,67.628A3.164,3.164,0,0,1,0,66.937V50.078a.283.283,0,0,1,.013-.1C0,49.95,0,49.938.013,49.925a1.9,1.9,0,0,1,.026-.269.859.859,0,0,1,.051-.307A.085.085,0,0,1,.1,49.272a.108.108,0,0,1,.026-.09,1.852,1.852,0,0,1,.064-.256c.038-.115.09-.243.141-.371-.051-.128-.1-.256-.141-.371s-.077-.243-.1-.371v-.026a1.4,1.4,0,0,1-.064-.333C.013,47.315,0,47.187,0,47.047V30.188c0-.128.013-.256.025-.384a2,2,0,0,1,.064-.384.286.286,0,0,1,.038-.128,2.982,2.982,0,0,1,.2-.627,3.168,3.168,0,0,1-.141-.371,2.776,2.776,0,0,1-.09-.307.454.454,0,0,1-.025-.128,2.363,2.363,0,0,1-.051-.294C.013,27.425,0,27.3,0,27.156V10.3C0,4.618,13.6,0,30.38,0Z" fill="#fff" opacity="0.2"/>
          </g>
        </g>
      </g>
    </g>
    <g id="Group_156027" data-name="Group 156027" transform="translate(-1.1 -10)">
      <g id="Group_156021" data-name="Group 156021" transform="translate(0.101)">
        <rect id="Rectangle_2691" data-name="Rectangle 2691" width="185.2" height="70" rx="10" transform="translate(198.899 39)" fill="#836ee3"/>
        <text id="Agents_Builder" data-name="Agents
Builder" transform="translate(291.9 70)" fill="#fff" font-size="18" font-family="Roboto-Medium, Roboto" font-weight="500"><tspan x="-28.564" y="0">Agents</tspan><tspan x="-28.349" y="22">Builder</tspan></text>
      </g>
      <g id="Group_156022" data-name="Group 156022" transform="translate(205.201)">
        <rect id="Rectangle_2691-2" data-name="Rectangle 2691" width="185.2" height="70" rx="10" transform="translate(198.899 39)" fill="#836ee3"/>
        <text id="Workflow_Builder" data-name="Workflow
Builder" transform="translate(291.9 70)" fill="#fff" font-size="18" font-family="Roboto-Medium, Roboto" font-weight="500"><tspan x="-37.907" y="0">Workflow</tspan><tspan x="-28.349" y="22">Builder</tspan></text>
      </g>
      <g id="Group_156023" data-name="Group 156023" transform="translate(409.201)">
        <rect id="Rectangle_2691-3" data-name="Rectangle 2691" width="185.2" height="70" rx="10" transform="translate(198.899 39)" fill="#836ee3"/>
        <text id="Operations_Portal" data-name="Operations
Portal" transform="translate(291.899 70)" fill="#fff" font-size="18" font-family="Roboto-Medium, Roboto" font-weight="500"><tspan x="-44.077" y="0">Operations</tspan><tspan x="-24.363" y="22">Portal</tspan></text>
      </g>
      <g id="Group_156024" data-name="Group 156024" transform="translate(614.2)">
        <rect id="Rectangle_2691-4" data-name="Rectangle 2691" width="185.2" height="70" rx="10" transform="translate(198.899 39)" fill="#836ee3"/>
        <text id="Policy_Portal" data-name="Policy
Portal" transform="translate(291.899 70)" fill="#fff" font-size="18" font-family="Roboto-Medium, Roboto" font-weight="500"><tspan x="-24.508" y="0">Policy</tspan><tspan x="-24.363" y="22">Portal</tspan></text>
      </g>
      <g id="Group_156025" data-name="Group 156025" transform="translate(819.201)">
        <rect id="Rectangle_2691-5" data-name="Rectangle 2691" width="185.2" height="70" rx="10" transform="translate(198.899 39)" fill="#836ee3"/>
        <text id="Knowledge_Model_Builder" data-name="Knowledge
Model Builder" transform="translate(291.899 70)" fill="#fff" font-size="18" font-family="Roboto-Medium, Roboto" font-weight="500"><tspan x="-44.631" y="0">Knowledge</tspan><tspan x="-55.802" y="22">Model Builder</tspan></text>
      </g>
      <g id="Group_156044" data-name="Group 156044" transform="translate(0 3)">
        <path id="Polygon_3" data-name="Polygon 3" d="M5.5,0,11,9H0Z" transform="translate(297.1 124) rotate(180)" fill="#9583e6"/>
        <line id="Line_103" data-name="Line 103" y1="8" transform="translate(291.6 107.5)" fill="none" stroke="#9583e6" stroke-width="1"/>
      </g>
      <g id="Group_156045" data-name="Group 156045" transform="translate(205.101 3)">
        <path id="Polygon_3-2" data-name="Polygon 3" d="M5.5,0,11,9H0Z" transform="translate(297.1 124) rotate(180)" fill="#9583e6"/>
        <line id="Line_103-2" data-name="Line 103" y1="8" transform="translate(291.6 107.5)" fill="none" stroke="#9583e6" stroke-width="1"/>
      </g>
      <g id="Group_156046" data-name="Group 156046" transform="translate(409 3)">
        <path id="Polygon_3-3" data-name="Polygon 3" d="M5.5,0,11,9H0Z" transform="translate(297.1 124) rotate(180)" fill="#9583e6"/>
        <line id="Line_103-3" data-name="Line 103" y1="8" transform="translate(291.6 107.5)" fill="none" stroke="#9583e6" stroke-width="1"/>
      </g>
      <g id="Group_156047" data-name="Group 156047" transform="translate(614 3)">
        <path id="Polygon_3-4" data-name="Polygon 3" d="M5.5,0,11,9H0Z" transform="translate(297.1 124) rotate(180)" fill="#9583e6"/>
        <line id="Line_103-4" data-name="Line 103" y1="8" transform="translate(291.6 107.5)" fill="none" stroke="#9583e6" stroke-width="1"/>
      </g>
      <g id="Group_156048" data-name="Group 156048" transform="translate(819 3)">
        <path id="Polygon_3-5" data-name="Polygon 3" d="M5.5,0,11,9H0Z" transform="translate(297.1 124) rotate(180)" fill="#9583e6"/>
        <line id="Line_103-5" data-name="Line 103" y1="8" transform="translate(291.6 107.5)" fill="none" stroke="#9583e6" stroke-width="1"/>
      </g>
    </g>
    <g id="Group_156037" data-name="Group 156037">
      <g id="Group_156026" data-name="Group 156026" transform="translate(0.101 591)">
        <rect id="Rectangle_2691-6" data-name="Rectangle 2691" width="492.1" height="60" rx="10" transform="translate(198.899 39)" fill="#836ee3"/>
        <text id="Tools_for_Agents_MCP_API_Based_" data-name="Tools for Agents (MCP &amp; API Based)" transform="translate(444.899 76)" fill="#fff" font-size="18" font-family="Roboto-Medium, Roboto" font-weight="500"><tspan x="-146.184" y="0">Tools for Agents (MCP &amp; API Based)</tspan></text>
      </g>
      <g id="Group_156036" data-name="Group 156036" transform="translate(512.201 591)">
        <rect id="Rectangle_2691-7" data-name="Rectangle 2691" width="492.1" height="60" rx="10" transform="translate(198.899 39)" fill="#210c7c"/>
        <text id="RPA" transform="translate(444.899 76)" fill="#fff" font-size="18" font-family="Roboto-Medium, Roboto" font-weight="500"><tspan x="-16.576" y="0">RPA</tspan></text>
      </g>
    </g>
    <g id="Group_156042" data-name="Group 156042">
      <g id="Group_156038" data-name="Group 156038">
        <rect id="Rectangle_2684" data-name="Rectangle 2684" width="155" height="77.778" rx="10" transform="translate(0 150)" fill="#7159de"/>
        <text id="AI_Assistances" data-name="AI
Assistances" transform="translate(78 186)" fill="#fff" font-size="18" font-family="Roboto-Medium, Roboto" font-weight="500"><tspan x="-8.53" y="0">AI</tspan><tspan x="-49.276" y="20">Assistances</tspan></text>
      </g>
      <g id="Group_156039" data-name="Group 156039" transform="translate(0 97.782)">
        <rect id="Rectangle_2684-2" data-name="Rectangle 2684" width="155" height="77.778" rx="10" transform="translate(0 150)" fill="#7159de"/>
        <text id="AI_Assistances-2" data-name="AI
Assistances" transform="translate(78 186)" fill="#fff" font-size="18" font-family="Roboto-Medium, Roboto" font-weight="500"><tspan x="-8.53" y="0">AI</tspan><tspan x="-49.276" y="20">Assistances</tspan></text>
      </g>
      <g id="Group_156040" data-name="Group 156040" transform="translate(0 195.563)">
        <rect id="Rectangle_2684-3" data-name="Rectangle 2684" width="155" height="77.778" rx="10" transform="translate(0 150)" fill="#7159de"/>
        <text id="AI_Assistances-3" data-name="AI
Assistances" transform="translate(78 186)" fill="#fff" font-size="18" font-family="Roboto-Medium, Roboto" font-weight="500"><tspan x="-8.53" y="0">AI</tspan><tspan x="-49.276" y="20">Assistances</tspan></text>
      </g>
      <g id="Group_156041" data-name="Group 156041">
        <rect id="Rectangle_2711" data-name="Rectangle 2711" width="155" height="148.778" rx="10" transform="translate(0 443.341)" fill="#a899eb"/>
        <text id="_3.1_Scheduler_decides_the_files_for_Processing" data-name="3.1
Scheduler
decides the
files for
Processing" transform="translate(78 484.73)" fill="#fff" font-size="18" font-family="Roboto-Medium, Roboto" font-weight="500"><tspan x="-12.744" y="0">3.1</tspan><tspan x="-40.342" y="20">Scheduler</tspan><tspan x="-46.534" y="40">decides the</tspan><tspan x="-30.731" y="60">files for</tspan><tspan x="-45.119" y="80">Processing</tspan></text>
      </g>
    </g>
    <g id="SAP_2011_logo" transform="translate(1248 281.625) rotate(-90)">
      <path id="Path_193286" data-name="Path 193286" d="M0,35.514H36.282L71.79,0H0V35.514" fill-rule="evenodd" fill="url(#linear-gradient)"/>
      <path id="Path_193287" data-name="Path 193287" d="M47.952,42.343h-7.09l.024,16.676L34.711,42.337H28.59l-5.27,13.932c-.56-3.545-4.225-4.768-7.109-5.685-1.9-.612-3.925-1.511-3.9-2.506.016-.816,1.081-1.573,3.2-1.46a11.564,11.564,0,0,1,5.172,1.4l2.454-4.277a19.089,19.089,0,0,0-8-1.892H15.11a9.718,9.718,0,0,0-7.068,2.581,5.956,5.956,0,0,0-1.69,4.122,5.536,5.536,0,0,0,2.425,4.935,16.527,16.527,0,0,0,4.806,2.2c1.961.608,3.563,1.136,3.543,2.262a1.667,1.667,0,0,1-.466,1.1,3.107,3.107,0,0,1-2.277.715,9.762,9.762,0,0,1-5.85-1.67L6.35,62.422a15.176,15.176,0,0,0,7.718,2.017l.641,0A9.632,9.632,0,0,0,20.8,62.509c.092-.073.174-.148.259-.223l-.268,1.383,5.982-.019L27.846,60.9a11.738,11.738,0,0,0,3.774.6,11.862,11.862,0,0,0,3.683-.565l.748,2.715,10.733.01L46.81,57.4h2.284c5.52,0,8.784-2.81,8.784-7.521,0-5.247-3.174-7.533-9.926-7.533ZM31.62,56.6a6.414,6.414,0,0,1-2.263-.4l2.238-7.067h.043l2.2,7.087a6.628,6.628,0,0,1-2.221.376Zm16.747-4.06H46.809v-5.7h1.559c2.076,0,3.733.691,3.733,2.811,0,2.194-1.657,2.884-3.733,2.884" transform="translate(-5.348 -35.24)" fill="#fff" fill-rule="evenodd"/>
    </g>
    <g id="epic-systems-corporation-seeklogo" transform="translate(1248 401.937) rotate(-90)">
      <path id="Path_193288" data-name="Path 193288" d="M411.652,207.1h-8.194l-1.058,4.942h8.21Z" transform="translate(-342.213 -207.1)" fill="#ba122b"/>
      <g id="Group_156043" data-name="Group 156043" transform="translate(0 1.358)">
        <path id="Path_193289" data-name="Path 193289" d="M102.623,226.247c3.126,0,4.595,1.058,4.784,2.937h8.51c.284-6.142-4.705-8.352-12.252-8.352-7.816,0-13.721,2.81-16.2,8.494l1.626-7.642h-8.21l-1.516,7.105c-.363-4.926-4.105-7.642-10.152-7.642a12.472,12.472,0,0,0-8.684,3.331h-.079l.584-2.779H53.062l-3.158,15H31.668l.868-4.705H48.8l1.216-5.731H33.752l.884-4.61H53.094l1.263-5.952H26.695L21.2,242.652H48.625l-1.61,7.579h8.21l2.021-9.473h.079c1.058,1.547,3.6,2.747,7.231,2.747a14.618,14.618,0,0,0,13.326-7.642l-1.437,6.789h8.21L86.25,235.1c.047,5.716,4.595,8.4,12.615,8.4,9.047,0,13.815-3.284,16.357-9.079h-8.668c-1.153,2.447-3.426,3.663-6.379,3.663-3.947,0-5.731-2.131-4.926-5.921a7.042,7.042,0,0,1,7.373-5.921M70.7,232.215c-.742,3.489-3.189,5.337-6.931,5.337-3.837,0-5.4-2.084-4.705-5.337s3.142-5.337,6.979-5.337c3.742,0,5.4,1.847,4.658,5.337" transform="translate(-21.2 -215.7)" fill="#ba122b"/>
      </g>
    </g>
    <g id="svgg" transform="translate(1204 148.6)">
      <path id="path0" d="M60.012.446c0,.027-.16.046-.388.046a1.111,1.111,0,0,0-.417.046.712.712,0,0,1-.325.046c-.167,0-.3.02-.3.046s-.1.046-.23.046-.23.021-.23.046-.1.046-.23.046-.23.021-.23.046-.083.046-.184.046S57.3.881,57.3.906s-.072.046-.161.046-.161.021-.161.046-.083.046-.184.046-.184.021-.184.046-.062.046-.138.046-.138.021-.138.046-.062.046-.138.046-.138.018-.138.041-.114.055-.252.072a.669.669,0,0,0-.279.074.193.193,0,0,1-.139.043c-.062,0-.112.021-.112.046s-.062.046-.138.046S55,1.571,55,1.6s-.041.046-.092.046-.092.021-.092.046-.062.046-.138.046-.138.021-.138.046-.041.046-.092.046-.092.021-.092.046-.041.046-.092.046-.092.021-.092.046-.041.046-.092.046-.092.021-.092.046-.039.046-.088.046a1.287,1.287,0,0,0-.5.242c-.009.019-.055.035-.1.035s-.088.021-.088.046-.037.046-.082.046a.221.221,0,0,0-.148.092.221.221,0,0,1-.148.092c-.045,0-.082.021-.082.046s-.041.046-.092.046-.092.021-.092.046-.037.046-.082.046a.221.221,0,0,0-.148.092.221.221,0,0,1-.148.092c-.045,0-.082.021-.082.046s-.041.046-.092.046-.092.017-.092.037-.067.072-.15.115a1.387,1.387,0,0,0-.407.273.247.247,0,0,1-.14.081.213.213,0,0,0-.131.092.213.213,0,0,1-.13.092.443.443,0,0,0-.192.138.462.462,0,0,1-.184.138.462.462,0,0,0-.184.138.466.466,0,0,1-.182.138,1.044,1.044,0,0,0-.278.23,1.673,1.673,0,0,1-.251.23c-.065,0-2,1.918-2,1.982s-.068.14-.265.328a.6.6,0,0,0-.15.185.828.828,0,0,1-.184.219.724.724,0,0,0-.184.231.464.464,0,0,1-.138.183.443.443,0,0,0-.138.192.213.213,0,0,1-.092.13.215.215,0,0,0-.092.138.215.215,0,0,1-.092.138.215.215,0,0,0-.092.138.215.215,0,0,1-.092.138.213.213,0,0,0-.092.118.273.273,0,0,1-.092.135.3.3,0,0,0-.092.12.862.862,0,0,1-.115.206.66.66,0,0,0-.115.255c0,.047-.021.086-.046.086s-.046.037-.046.082a.221.221,0,0,1-.092.148.221.221,0,0,0-.092.148c0,.045-.021.082-.046.082s-.046.041-.046.092-.021.092-.046.092-.046.041-.046.092-.021.092-.046.092-.046.041-.046.092-.021.092-.046.092-.046.041-.046.092-.021.092-.046.092-.046.031-.046.069-.021.069-.046.069-.046.041-.046.092-.021.092-.046.092-.046.041-.046.092-.021.092-.046.092-.046.041-.046.092-.021.092-.046.092-.046.041-.046.092-.021.092-.046.092-.046.062-.046.138-.021.138-.046.138-.046.041-.046.092-.021.092-.046.092-.046.041-.046.092-.021.092-.046.092-.046.062-.046.138-.021.138-.046.138-.046.062-.046.138-.021.138-.046.138a2.934,2.934,0,0,0,0,1.035.236.236,0,0,1,.046.164c0,.074.021.135.046.135s.046.041.046.092.021.092.046.092.046.031.046.069a.189.189,0,0,0,.092.126.186.186,0,0,1,.092.117.89.89,0,0,0,.379.378.212.212,0,0,1,.127.092.221.221,0,0,0,.148.092c.045,0,.082.021.082.046s.062.046.138.046.138.021.138.046.05.046.112.046a.192.192,0,0,1,.141.046,2.593,2.593,0,0,0,.693.046,2.061,2.061,0,0,0,.664-.046c0-.025.062-.046.138-.046s.138-.021.138-.046.047-.046.1-.046a.241.241,0,0,0,.171-.092.212.212,0,0,1,.126-.092,3.759,3.759,0,0,0,.748-.735.047.047,0,0,1,.046-.047c.025,0,.046-.041.046-.092s.021-.092.046-.092.046-.041.046-.092.021-.092.046-.092.046-.062.046-.138.021-.138.046-.138.046-.041.046-.092.021-.092.046-.092.046-.041.046-.092.021-.092.046-.092.046-.041.046-.092.021-.092.046-.092a.053.053,0,0,0,.046-.058,2.22,2.22,0,0,1,.161-.39,2.486,2.486,0,0,0,.161-.379.047.047,0,0,1,.046-.048c.025,0,.046-.041.046-.092s.021-.092.046-.092.046-.037.046-.082a.221.221,0,0,1,.092-.148.221.221,0,0,0,.092-.148c0-.045.021-.082.046-.082s.046-.037.046-.082a.221.221,0,0,1,.092-.148.215.215,0,0,0,.092-.138.215.215,0,0,1,.092-.138.215.215,0,0,0,.092-.138.215.215,0,0,1,.092-.138c.051-.036.092-.083.092-.1a.651.651,0,0,1,.138-.181.625.625,0,0,0,.138-.184.958.958,0,0,1,.184-.229.915.915,0,0,0,.184-.232,16.515,16.515,0,0,1,1.785-1.787.9.9,0,0,0,.219-.183.909.909,0,0,1,.22-.184.549.549,0,0,0,.168-.139.443.443,0,0,1,.192-.138.213.213,0,0,0,.13-.092.215.215,0,0,1,.138-.092.215.215,0,0,0,.138-.092.215.215,0,0,1,.138-.092A.215.215,0,0,0,54.4,7.21a.221.221,0,0,1,.148-.092c.045,0,.082-.016.082-.036a1.01,1.01,0,0,1,.3-.173,1.042,1.042,0,0,0,.3-.171c0-.019.042-.035.092-.035s.092-.021.092-.046.041-.046.092-.046.092-.021.092-.046.041-.046.092-.046.092-.021.092-.046.041-.046.092-.046.092-.021.092-.046.041-.046.092-.046.092-.021.092-.046.041-.046.092-.046.092-.021.092-.046.041-.046.092-.046.092-.021.092-.046.062-.046.138-.046.138-.021.138-.046.052-.046.115-.046.115-.021.115-.046.041-.046.092-.046.092-.021.092-.046.062-.046.138-.046.138-.021.138-.046.083-.046.184-.046.184-.021.184-.046.062-.046.138-.046.138-.021.138-.046.083-.046.184-.046.184-.021.184-.046.083-.046.184-.046.184-.021.184-.046.093-.046.207-.046.207-.021.207-.046.121-.046.272-.046c.177,0,.279-.02.291-.058a35.211,35.211,0,0,1,4.21,0c.012.037.115.058.291.058.151,0,.272.02.272.046s.093.046.207.046.207.021.207.046.083.046.184.046.184.021.184.046.083.046.184.046.184.021.184.046.062.046.138.046.138.021.138.046.083.046.184.046.184.021.184.046.062.046.138.046.138.021.138.046.041.046.092.046.092.021.092.046.052.046.115.046.115.021.115.046.062.046.138.046.138.021.138.046.041.046.092.046.092.021.092.046.041.046.092.046.092.021.092.046.041.046.092.046.092.021.092.046.041.046.092.046.092.021.092.046.041.046.092.046.092.021.092.046.041.046.092.046.092.021.092.046.041.046.092.046.092.016.092.035a1.042,1.042,0,0,0,.3.171,1.01,1.01,0,0,1,.3.173c0,.02.037.036.082.036a.221.221,0,0,1,.148.092.215.215,0,0,0,.138.092.215.215,0,0,1,.138.092.215.215,0,0,0,.138.092.215.215,0,0,1,.138.092.213.213,0,0,0,.13.092.443.443,0,0,1,.192.138.549.549,0,0,0,.168.139.909.909,0,0,1,.22.184.9.9,0,0,0,.219.183A16.515,16.515,0,0,1,72.757,10.1a.915.915,0,0,0,.184.232.958.958,0,0,1,.184.229.625.625,0,0,0,.138.184.651.651,0,0,1,.138.181c0,.02.041.066.092.1a.215.215,0,0,1,.092.138.215.215,0,0,0,.092.138.215.215,0,0,1,.092.138.215.215,0,0,0,.092.138.221.221,0,0,1,.092.148c0,.045.021.082.046.082s.046.037.046.082a.221.221,0,0,0,.092.148.221.221,0,0,1,.092.148c0,.045.021.082.046.082s.046.041.046.092.021.092.046.092a.047.047,0,0,1,.046.048,2.487,2.487,0,0,0,.161.379,2.22,2.22,0,0,1,.161.39.053.053,0,0,0,.046.058c.025,0,.046.041.046.092s.021.092.046.092.046.041.046.092.021.092.046.092.046.041.046.092.021.092.046.092.046.062.046.138.021.138.046.138.046.041.046.092.021.092.046.092.046.041.046.092.021.092.046.092a.047.047,0,0,1,.046.047,3.76,3.76,0,0,0,.748.735.212.212,0,0,1,.126.092.241.241,0,0,0,.171.092c.058,0,.1.021.1.046s.062.046.138.046.138.021.138.046a4.974,4.974,0,0,0,1.357,0,.192.192,0,0,1,.141-.046c.062,0,.112-.021.112-.046s.062-.046.138-.046.138-.021.138-.046.037-.046.082-.046a.221.221,0,0,0,.148-.092.212.212,0,0,1,.127-.092.89.89,0,0,0,.379-.378.186.186,0,0,1,.092-.117.189.189,0,0,0,.092-.126c0-.038.021-.069.046-.069s.046-.041.046-.092.021-.092.046-.092.046-.061.046-.135a.236.236,0,0,1,.046-.164,1.669,1.669,0,0,0,.046-.532,1.244,1.244,0,0,0-.046-.5c-.025,0-.046-.062-.046-.138s-.021-.138-.046-.138-.046-.062-.046-.138-.021-.138-.046-.138-.046-.041-.046-.092-.021-.092-.046-.092-.046-.041-.046-.092-.021-.092-.046-.092-.046-.062-.046-.138-.021-.138-.046-.138-.046-.041-.046-.092-.021-.092-.046-.092-.046-.041-.046-.092-.021-.092-.046-.092-.046-.041-.046-.092-.021-.092-.046-.092-.046-.041-.046-.092-.021-.092-.046-.092-.046-.031-.046-.069-.021-.069-.046-.069-.046-.041-.046-.092-.021-.092-.046-.092-.046-.041-.046-.092-.021-.092-.046-.092-.046-.041-.046-.092-.021-.092-.046-.092-.046-.041-.046-.092-.021-.092-.046-.092-.046-.037-.046-.082a.221.221,0,0,0-.092-.148.221.221,0,0,1-.092-.148c0-.045-.021-.082-.046-.082s-.046-.039-.046-.086a.66.66,0,0,0-.115-.255A.862.862,0,0,1,78,9.193a.3.3,0,0,0-.092-.12.273.273,0,0,1-.092-.135.213.213,0,0,0-.092-.118.215.215,0,0,1-.092-.138.215.215,0,0,0-.092-.138.215.215,0,0,1-.092-.138.215.215,0,0,0-.092-.138.213.213,0,0,1-.092-.13.443.443,0,0,0-.138-.192.464.464,0,0,1-.138-.183.724.724,0,0,0-.184-.231.828.828,0,0,1-.184-.219.6.6,0,0,0-.15-.185c-.2-.188-.265-.272-.265-.328s-1.939-1.982-2-1.982a1.673,1.673,0,0,1-.251-.23,1.044,1.044,0,0,0-.278-.23.466.466,0,0,1-.182-.138.462.462,0,0,0-.184-.138.462.462,0,0,1-.184-.138.443.443,0,0,0-.192-.138.213.213,0,0,1-.13-.092.213.213,0,0,0-.131-.092.247.247,0,0,1-.14-.081,1.387,1.387,0,0,0-.407-.273c-.082-.042-.15-.094-.15-.115s-.041-.037-.092-.037-.092-.021-.092-.046-.037-.046-.082-.046a.221.221,0,0,1-.148-.092.221.221,0,0,0-.148-.092c-.045,0-.082-.021-.082-.046s-.041-.046-.092-.046-.092-.021-.092-.046-.037-.046-.082-.046a.221.221,0,0,1-.148-.092.221.221,0,0,0-.148-.092c-.045,0-.082-.021-.082-.046s-.04-.046-.088-.046-.1-.016-.1-.035a1.287,1.287,0,0,0-.5-.242c-.048,0-.088-.021-.088-.046s-.041-.046-.092-.046-.092-.021-.092-.046-.041-.046-.092-.046-.092-.021-.092-.046-.041-.046-.092-.046-.092-.021-.092-.046-.062-.046-.138-.046-.138-.021-.138-.046-.041-.046-.092-.046-.092-.021-.092-.046-.062-.046-.138-.046-.138-.021-.138-.046-.05-.046-.112-.046a.193.193,0,0,1-.139-.043.669.669,0,0,0-.279-.074c-.139-.017-.252-.05-.252-.072s-.062-.041-.138-.041-.138-.021-.138-.046-.062-.046-.138-.046-.138-.021-.138-.046-.083-.046-.184-.046-.184-.021-.184-.046-.072-.046-.161-.046-.161-.021-.161-.046S66.509.86,66.408.86s-.184-.021-.184-.046-.1-.046-.23-.046-.23-.021-.23-.046-.1-.046-.23-.046S65.3.655,65.3.63s-.129-.046-.3-.046a.712.712,0,0,1-.325-.046,1.111,1.111,0,0,0-.417-.046c-.228,0-.388-.019-.388-.046A15.887,15.887,0,0,0,61.945.4a15.887,15.887,0,0,0-1.932.046" transform="translate(0 0)" fill="#f4a41c" fill-rule="evenodd"/>
      <path id="path1" d="M44.552,190.446c0,.025-.033.046-.074.046-.107,0-.386.3-.386.41,0,.053-.021.1-.046.1s-.046.153-.046.368.019.368.046.368.046.071.046.158a.287.287,0,0,0,.046.187.287.287,0,0,1,.046.187c0,.087.021.158.046.158s.046.062.046.138.021.138.046.138.046.083.046.184.021.184.046.184.046.083.046.184.021.184.046.184.046.062.046.138.021.138.046.138.046.083.046.184.021.184.046.184.046.072.046.161.021.161.046.161.046.062.046.138.021.138.046.138.046.083.046.184.021.184.046.184.046.083.046.184.021.184.046.184.046.062.046.138.021.138.046.138.046.083.046.184.021.184.046.184.046.072.046.161.021.161.046.161.046.062.046.138.021.138.046.138.046.083.046.184.021.184.046.184.046.083.046.184.017.184.038.184.061.118.175.771a.352.352,0,0,0,.067.175.242.242,0,0,1,.041.161c0,.074.021.135.046.135s.046.083.046.184.021.184.046.184.046.071.046.158a.287.287,0,0,0,.046.187.236.236,0,0,1,.046.164c0,.074.021.135.046.135s.046.071.046.158a.287.287,0,0,0,.046.187.287.287,0,0,1,.046.187c0,.087.021.158.046.158s.046.062.046.138.021.138.046.138.046.083.046.184.021.184.046.184.046.083.046.184.021.184.046.184.046.062.046.138.021.138.046.138.046.072.046.161.021.161.046.161.046.083.046.184.021.184.046.184.046.062.046.138.021.138.046.138.046.083.046.184.021.184.046.184.046.083.046.184.021.184.046.184.046.062.046.138.021.138.046.138.046.072.046.161.021.161.046.161.046.083.046.184.018.184.04.184.054.109.071.242a3.1,3.1,0,0,0,.072.38c.022.076.065.231.094.345a1.879,1.879,0,0,0,.1.287.579.579,0,0,1,.042.219c0,.076.021.139.046.139s.046.083.046.184.021.184.046.184.046.062.046.138.021.138.046.138.046.083.046.184.021.184.046.184.046.071.046.158a.287.287,0,0,0,.046.187.236.236,0,0,1,.046.164c0,.074.021.135.046.135s.046.072.046.161.021.161.046.161.046.083.046.184.021.184.046.184.046.062.046.138.021.138.046.138.046.083.046.184.021.184.046.184.046.083.046.184.021.184.046.184.046.062.046.138.021.138.046.138.046.072.046.161.021.161.046.161.046.083.046.184.021.184.046.184.046.062.046.138.021.138.046.138.046.083.046.184.021.184.046.184.046.083.046.184.018.184.041.184.051.067.064.15a4.724,4.724,0,0,0,.177.782.516.516,0,0,1,.041.2c0,.064.021.116.046.116s.046.083.046.184.021.184.046.184.046.071.046.158a.287.287,0,0,0,.046.187.187.187,0,0,1,.046.138.187.187,0,0,0,.046.138.287.287,0,0,1,.046.187c0,.087.021.158.046.158s.046.041.046.092.021.092.046.092.046.033.046.072a.235.235,0,0,0,.2.2c.04,0,.072.021.072.046s.041.046.092.046.092.021.092.046.989.046,2.876.046,2.876-.016,2.876-.046.041-.046.092-.046.092-.021.092-.046.033-.046.074-.046c.2,0,.524-.584.524-.936,0-.067.021-.123.046-.123s.046-.083.046-.184.021-.184.046-.184.046-.062.046-.138.021-.138.046-.138.046-.083.046-.184.021-.184.046-.184.046-.083.046-.184.021-.184.046-.184.046-.072.046-.161.021-.161.046-.161.046-.062.046-.138.021-.138.046-.138.046-.083.046-.184.021-.184.046-.184.046-.083.046-.184.021-.184.046-.184.046-.062.046-.138.021-.138.046-.138.046-.083.046-.184.021-.184.046-.184.046-.071.046-.158a.287.287,0,0,1,.046-.187.287.287,0,0,0,.046-.187c0-.087.021-.158.046-.158s.046-.062.046-.138.021-.138.046-.138.046-.083.046-.184.021-.184.046-.184.046-.083.046-.184.021-.184.046-.184.046-.083.046-.184.021-.184.046-.184.046-.051.046-.112a.192.192,0,0,1,.046-.141.281.281,0,0,0,.046-.184.29.29,0,0,1,.041-.181.406.406,0,0,0,.067-.2,2.667,2.667,0,0,1,.176-.794c.021,0,.038-.083.038-.184s.021-.184.046-.184.046-.072.046-.161.021-.161.046-.161.046-.083.046-.184.021-.184.046-.184.046-.062.046-.138.021-.138.046-.138.046-.083.046-.184.021-.184.046-.184.046-.083.046-.184.021-.184.046-.184.046-.072.046-.161.021-.161.046-.161.046-.062.046-.138.021-.138.046-.138.046-.083.046-.184.021-.184.046-.184.046-.083.046-.184.021-.184.046-.184.046-.062.046-.138.021-.138.046-.138.046-.083.046-.184.021-.184.046-.184.046-.071.046-.158a.287.287,0,0,1,.046-.187.287.287,0,0,0,.046-.187c0-.087.021-.158.046-.158s.046-.061.046-.135a.236.236,0,0,1,.046-.164.287.287,0,0,0,.046-.187c0-.087.021-.158.046-.158s.046-.083.046-.184.021-.184.046-.184.046-.083.046-.184.016-.184.036-.184a2.9,2.9,0,0,0,.195-.84c0-.07.02-.127.045-.127s.046-.083.046-.184.021-.184.046-.184.046-.062.046-.138.021-.138.046-.138.046-.071.046-.158a.287.287,0,0,1,.046-.187.287.287,0,0,0,.046-.187c0-.087.021-.158.046-.158s.046-.1.046-.23.021-.23.046-.23.046-.1.046-.23.021-.23.046-.23.046-.123.046-.276.02-.276.046-.276.046-.114.046-.253.021-.253.046-.253.046-.138.046-.322.02-.322.046-.322.046-.153.046-.368c0-.337.008-.368.092-.368s.092.031.092.368c0,.215.019.368.046.368s.046.138.046.322.02.322.046.322.046.13.046.3.02.3.046.3.046.123.046.276.02.276.046.276.046.1.046.23.021.23.046.23.046.1.046.23.021.23.046.23.046.072.046.161.021.161.046.161.046.083.046.184.021.184.046.184.046.083.046.184.019.184.042.184.057.135.074.3a.886.886,0,0,0,.073.325.292.292,0,0,1,.041.181.28.28,0,0,0,.046.184.231.231,0,0,1,.046.161.231.231,0,0,0,.046.161.236.236,0,0,1,.046.164c0,.074.021.135.046.135s.046.083.046.184.021.184.046.184.046.083.046.184.021.184.046.184.046.071.046.158a.287.287,0,0,0,.046.187.187.187,0,0,1,.046.138.187.187,0,0,0,.046.138.287.287,0,0,1,.046.187c0,.087.021.158.046.158s.046.083.046.184.021.184.046.184.046.083.046.184.021.184.046.184.046.062.046.138.021.138.046.138.046.083.046.184.021.184.046.184.046.072.046.161.021.161.046.161.046.062.046.138.021.138.046.138.046.083.046.184.021.184.046.184.046.083.046.184.021.184.046.184.046.083.046.184.021.184.046.184.046.062.046.138.021.138.046.138.046.072.046.161.021.161.046.161.046.068.046.151a2.152,2.152,0,0,0,.069.416,2.208,2.208,0,0,1,.069.355c0,.049.021.09.046.09s.046.071.046.158a.287.287,0,0,0,.046.187.281.281,0,0,1,.046.184.281.281,0,0,0,.046.184.287.287,0,0,1,.046.187c0,.087.021.158.046.158s.046.062.046.138.021.138.046.138.046.083.046.184.021.184.046.184.046.083.046.184.021.184.046.184.046.062.046.138.021.138.046.138.046.071.046.158a.287.287,0,0,0,.046.187.287.287,0,0,1,.046.187c0,.087.021.158.046.158s.046.083.046.184.021.184.046.184.046.062.046.138.021.138.046.138.046.083.046.184.021.184.046.184.046.083.046.184.021.184.046.184.046.072.046.161.021.161.046.161.046.062.046.138.021.138.046.138.046.083.046.184.021.184.046.184.046.083.046.184.021.184.046.184.046.083.046.184.021.184.046.184.047.047.049.1a3.374,3.374,0,0,0,.2.754.154.154,0,0,1,.032.094.833.833,0,0,0,.39.382c.039,0,.071.021.071.046s.989.046,2.876.046,2.876-.016,2.876-.046.041-.046.092-.046.092-.021.092-.046.032-.046.071-.046a.476.476,0,0,0,.3-.3c0-.039.021-.071.046-.071s.046-.041.046-.092.021-.092.046-.092.046-.051.046-.112a.192.192,0,0,1,.046-.141.187.187,0,0,0,.046-.138A.187.187,0,0,1,74,213.2a.281.281,0,0,0,.046-.184.28.28,0,0,1,.046-.184.287.287,0,0,0,.046-.187c0-.087.018-.158.041-.158s.052-.067.065-.15.059-.294.1-.472.087-.41.1-.518.043-.2.065-.2.041-.062.041-.138.021-.138.046-.138.046-.083.046-.184.021-.184.046-.184.046-.083.046-.184.021-.184.046-.184.046-.062.046-.138.021-.138.046-.138.046-.072.046-.161.021-.161.046-.161.046-.083.046-.184.021-.184.046-.184.046-.083.046-.184.021-.184.046-.184.046-.062.046-.138.021-.138.046-.138.046-.083.046-.184.021-.184.046-.184.046-.083.046-.184.021-.184.046-.184.046-.051.046-.112a.192.192,0,0,1,.046-.141.287.287,0,0,0,.046-.187c0-.087.021-.158.046-.158s.046-.083.046-.184.021-.184.046-.184.046-.083.046-.184.021-.184.046-.184.046-.062.046-.138.021-.138.046-.138.046-.083.046-.184.021-.184.046-.184.046-.062.046-.139a.579.579,0,0,1,.042-.219,1.877,1.877,0,0,0,.1-.287c.029-.114.073-.27.1-.348a3,3,0,0,0,.072-.426c.016-.157.048-.285.069-.285s.039-.062.039-.138.021-.138.046-.138.046-.072.046-.161.021-.161.046-.161.046-.083.046-.184.021-.184.046-.184.046-.062.046-.138.021-.138.046-.138.046-.083.046-.184.021-.184.046-.184.046-.083.046-.184.021-.184.046-.184.046-.072.046-.161.021-.161.046-.161.046-.062.046-.138.021-.138.046-.138.046-.083.046-.184.021-.184.046-.184.046-.083.046-.184.021-.184.046-.184.046-.062.046-.138.021-.138.046-.138.046-.083.046-.184.021-.184.046-.184.046-.072.046-.161.021-.161.046-.161.046-.083.046-.184.021-.184.046-.184.046-.061.046-.135a.237.237,0,0,1,.046-.164.287.287,0,0,0,.046-.187c0-.087.021-.158.046-.158s.046-.083.046-.184.021-.184.046-.184.046-.061.046-.135a.242.242,0,0,1,.041-.161c.043-.027.064-.117.152-.682a.986.986,0,0,1,.092-.357c.02,0,.037-.062.037-.138s.021-.138.046-.138.046-.083.046-.184.021-.184.046-.184.046-.072.046-.161.021-.161.046-.161.046-.062.046-.138.021-.138.046-.138.046-.083.046-.184.021-.184.046-.184.046-.083.046-.184.021-.184.046-.184.046-.083.046-.184.021-.184.046-.184.046-.062.046-.138.021-.138.046-.138.046-.071.046-.158a.287.287,0,0,1,.046-.187.287.287,0,0,0,.046-.187c0-.087.021-.158.046-.158s.046-.062.046-.138.021-.138.046-.138.046-.083.046-.184.021-.184.046-.184.046-.083.046-.184.021-.184.046-.184.046-.083.046-.184.021-.184.046-.184.046-.05.046-.112a.192.192,0,0,1,.046-.141.287.287,0,0,0,.046-.187c0-.087.021-.158.046-.158.1,0,.056-.938-.046-1.048a.345.345,0,0,1-.092-.147c0-.026-.041-.048-.092-.048s-.092-.021-.092-.046-.041-.046-.092-.046-.092-.021-.092-.046a15.151,15.151,0,0,0-1.886-.046,15.152,15.152,0,0,0-1.886.046c0,.025-.028.046-.062.046-.189,0-.674.38-.674.528,0,.039-.021.07-.046.07s-.046.061-.046.135a.236.236,0,0,1-.046.164.4.4,0,0,0-.046.23.41.41,0,0,1-.043.228,1.166,1.166,0,0,0-.075.394.92.92,0,0,1-.072.367c-.022,0-.04.083-.04.184s-.021.184-.046.184-.046.1-.046.23-.021.23-.046.23-.046.083-.046.184-.021.184-.046.184-.046.1-.046.23-.021.23-.046.23-.046.071-.046.158a.287.287,0,0,1-.046.187.405.405,0,0,0-.046.233c0,.112-.021.2-.046.2s-.046.083-.046.184-.021.184-.046.184-.046.1-.046.23-.021.23-.046.23-.046.083-.046.184-.021.184-.046.184-.046.093-.046.207-.021.207-.046.207-.046.083-.046.184-.021.184-.046.184-.046.1-.046.23-.021.23-.046.23-.046.083-.046.184-.021.184-.046.184-.046.092-.046.2a.405.405,0,0,1-.046.233.281.281,0,0,0-.046.184.281.281,0,0,1-.046.184.405.405,0,0,0-.046.233c0,.112-.021.2-.046.2s-.046.1-.046.23-.021.23-.046.23-.046.083-.046.184-.021.184-.046.184-.046.09-.046.2a.543.543,0,0,1-.035.234,4.9,4.9,0,0,0-.178.936c-.017.133-.049.242-.07.242s-.04.1-.04.23-.021.23-.046.23-.046.072-.046.161-.021.161-.046.161-.046.1-.046.23-.021.23-.046.23-.046.083-.046.184-.021.184-.046.184-.046.1-.046.23-.021.23-.046.23-.046.083-.046.184-.021.184-.046.184-.046.093-.046.207-.021.207-.046.207-.046.083-.046.184-.021.184-.046.184-.046.1-.046.23-.021.23-.046.23-.046.083-.046.184-.021.184-.046.184-.046.092-.046.2a.406.406,0,0,1-.046.233.281.281,0,0,0-.046.184.281.281,0,0,1-.046.184.405.405,0,0,0-.046.233c0,.112-.021.2-.046.2s-.046.083-.046.184-.021.184-.046.184-.046.123-.046.276-.02.276-.046.276-.046.092-.046.2a.406.406,0,0,1-.046.233.517.517,0,0,0-.046.27.67.67,0,0,1-.042.285.839.839,0,0,0-.067.3c-.014.139-.045.388-.07.552a10.762,10.762,0,0,0-.141,1.3c0,.146-.023.265-.049.265s-.046.083-.046.184-.021.184-.046.184-.046-.138-.046-.322-.02-.322-.046-.322-.046-.138-.046-.322-.02-.322-.046-.322-.046-.114-.046-.253-.021-.253-.046-.253-.046-.123-.046-.276-.02-.276-.046-.276S70,209.05,70,208.9s-.02-.276-.046-.276-.046-.083-.046-.184-.021-.184-.046-.184-.046-.093-.046-.207-.021-.207-.046-.207-.046-.083-.046-.184-.021-.184-.046-.184-.046-.083-.046-.184-.021-.184-.046-.184-.046-.062-.046-.138-.021-.138-.046-.138-.046-.083-.046-.184-.021-.184-.046-.184-.046-.083-.046-.184-.021-.184-.046-.184-.046-.072-.046-.161-.021-.161-.046-.161-.046-.062-.046-.138-.021-.138-.046-.138-.046-.083-.046-.184-.021-.184-.046-.184-.046-.083-.046-.184-.021-.184-.046-.184-.046-.062-.046-.138-.021-.138-.046-.138-.046-.083-.046-.184-.021-.184-.046-.184-.046-.059-.046-.132a1.244,1.244,0,0,0-.069-.328,1.238,1.238,0,0,1-.069-.325.225.225,0,0,0-.046-.158.28.28,0,0,1-.046-.184.28.28,0,0,0-.046-.184.236.236,0,0,1-.046-.164c0-.074-.021-.135-.046-.135s-.046-.071-.046-.158a.287.287,0,0,0-.046-.187.287.287,0,0,1-.046-.187c0-.087-.021-.158-.046-.158s-.046-.083-.046-.184-.021-.184-.046-.184-.046-.062-.046-.138-.021-.138-.046-.138-.046-.083-.046-.184-.021-.184-.046-.184-.046-.071-.046-.158a.287.287,0,0,0-.046-.187.187.187,0,0,1-.046-.138.187.187,0,0,0-.046-.138.287.287,0,0,1-.046-.187c0-.087-.021-.158-.046-.158s-.046-.083-.046-.184-.021-.184-.046-.184-.046-.062-.046-.138-.021-.138-.046-.138-.046-.083-.046-.184-.021-.184-.046-.184-.046-.071-.046-.158a.287.287,0,0,0-.046-.187.192.192,0,0,1-.046-.141c0-.062-.021-.112-.046-.112s-.046-.083-.046-.184-.021-.184-.046-.184-.046-.083-.046-.184-.021-.184-.046-.184-.046-.062-.046-.138-.021-.138-.046-.138-.046-.083-.046-.184-.018-.184-.039-.184-.053-.125-.069-.278a1.448,1.448,0,0,0-.076-.365.518.518,0,0,1-.046-.2c0-.065-.021-.118-.046-.118s-.046-.083-.046-.184-.021-.184-.046-.184-.046-.071-.046-.158a.287.287,0,0,0-.046-.187.236.236,0,0,1-.046-.164c0-.074-.021-.135-.046-.135s-.046-.071-.046-.158a.287.287,0,0,0-.046-.187.287.287,0,0,1-.046-.187c0-.087-.021-.158-.046-.158s-.046-.062-.046-.138-.021-.138-.046-.138-.046-.083-.046-.184-.021-.184-.046-.184-.046-.083-.046-.184-.021-.184-.046-.184-.046-.062-.046-.138-.021-.138-.046-.138-.046-.071-.046-.158a.287.287,0,0,0-.046-.187.287.287,0,0,1-.046-.187c0-.087-.021-.158-.046-.158s-.046-.062-.046-.138-.021-.138-.046-.138-.046-.083-.046-.184-.021-.184-.046-.184-.046-.083-.046-.184-.021-.184-.046-.184-.046-.032-.046-.072a1.494,1.494,0,0,0-.532-.526c-.036,0-.066-.021-.066-.046s-.062-.046-.138-.046-.138-.021-.138-.046a22.359,22.359,0,0,0-2.3-.046,22.359,22.359,0,0,0-2.3.046c0,.025-.062.046-.138.046s-.138.021-.138.046-.038.046-.085.046a.881.881,0,0,0-.421.435c0,.039-.021.071-.046.071s-.046.062-.046.138-.021.138-.046.138-.046.083-.046.184-.021.184-.046.184-.046.062-.046.138-.021.138-.046.138-.046.083-.046.184-.021.184-.046.184-.046.072-.046.161-.021.161-.046.161-.046.083-.046.184-.021.184-.046.184-.046.062-.046.138-.021.138-.046.138-.046.083-.046.184-.021.184-.046.184-.046.083-.046.184-.021.184-.046.184-.046.071-.046.158a.287.287,0,0,1-.046.187.187.187,0,0,0-.046.138.187.187,0,0,1-.046.138.287.287,0,0,0-.046.187c0,.087-.021.158-.046.158s-.046.083-.046.184-.021.184-.046.184-.046.083-.046.184-.021.184-.046.184-.046.062-.046.138-.021.138-.046.138-.046.083-.046.184-.021.184-.046.184-.046.071-.046.158a.287.287,0,0,1-.046.187.266.266,0,0,0-.046.178.351.351,0,0,1-.046.195.945.945,0,0,0-.075.331c-.016.157-.048.285-.069.285s-.039.083-.039.184-.021.184-.046.184-.046.072-.046.161-.021.161-.046.161-.046.062-.046.138-.021.138-.046.138-.046.083-.046.184-.021.184-.046.184-.046.083-.046.184-.021.184-.046.184-.046.083-.046.184-.021.184-.046.184-.046.062-.046.138-.021.138-.046.138-.046.072-.046.161-.021.161-.046.161-.046.083-.046.184-.021.184-.046.184-.046.083-.046.184-.021.184-.046.184-.046.062-.046.138-.021.138-.046.138-.046.083-.046.184-.021.184-.046.184-.046.071-.046.158a.287.287,0,0,1-.046.187.287.287,0,0,0-.046.187c0,.087-.021.158-.046.158s-.046.061-.046.135a.236.236,0,0,1-.046.164.287.287,0,0,0-.046.187c0,.087-.021.158-.046.158s-.046.083-.046.184-.021.184-.046.184-.046.083-.046.184-.021.184-.046.184-.046.059-.046.13a.312.312,0,0,1-.035.165,3.716,3.716,0,0,0-.18.821c-.015.12-.046.219-.068.219s-.04.062-.04.138-.021.138-.046.138-.046.083-.046.184-.021.184-.046.184-.046.072-.046.161-.021.161-.046.161-.046.083-.046.184-.021.184-.046.184-.046.062-.046.138-.021.138-.046.138-.046.083-.046.184-.021.184-.046.184-.046.083-.046.184-.021.184-.046.184-.046.071-.046.158a.287.287,0,0,1-.046.187.405.405,0,0,0-.046.233c0,.112-.021.2-.046.2s-.046.1-.046.23-.021.23-.046.23-.046.1-.046.23-.021.23-.046.23-.046.113-.046.25a.547.547,0,0,1-.046.279.547.547,0,0,0-.046.279c0,.138-.021.25-.046.25s-.046.123-.046.276-.02.276-.046.276-.046.123-.046.276-.02.276-.046.276-.046-.083-.046-.184-.021-.184-.046-.184-.046-.184-.046-.46-.018-.46-.046-.46-.046-.161-.046-.391-.019-.391-.046-.391-.046-.138-.046-.322a.7.7,0,0,0-.039-.322,1.633,1.633,0,0,1-.069-.492,2.051,2.051,0,0,0-.076-.538.564.564,0,0,1-.046-.267c0-.121-.021-.221-.046-.221s-.046-.083-.046-.184-.021-.184-.046-.184-.046-.092-.046-.2a.406.406,0,0,0-.046-.233.287.287,0,0,1-.046-.187c0-.087-.021-.158-.046-.158s-.046-.083-.046-.184-.021-.184-.046-.184-.046-.083-.046-.184-.021-.184-.046-.184-.046-.083-.046-.184-.021-.184-.046-.184-.046-.083-.046-.184-.021-.184-.046-.184-.046-.083-.046-.184-.021-.184-.046-.184-.046-.072-.046-.161-.021-.161-.046-.161-.046-.1-.046-.23-.021-.23-.046-.23-.046-.083-.046-.184-.021-.184-.046-.184-.046-.083-.046-.184-.021-.184-.046-.184-.046-.083-.046-.184-.021-.184-.046-.184-.046-.072-.046-.161-.021-.161-.046-.161-.046-.083-.046-.184-.021-.184-.046-.184-.046-.083-.046-.184-.021-.184-.046-.184-.046-.1-.046-.23-.021-.23-.046-.23-.046-.083-.046-.184-.018-.184-.04-.184-.053-.088-.069-.2a4.344,4.344,0,0,0-.179-.844.375.375,0,0,1-.034-.185.269.269,0,0,0-.046-.179.343.343,0,0,1-.046-.21c0-.1-.021-.181-.046-.181s-.046-.071-.046-.158a.287.287,0,0,0-.046-.187.405.405,0,0,1-.046-.233c0-.112-.021-.2-.046-.2s-.046-.083-.046-.184-.021-.184-.046-.184-.046-.083-.046-.184-.021-.184-.046-.184-.046-.083-.046-.184-.021-.184-.046-.184-.046-.071-.046-.158a.287.287,0,0,0-.046-.187.287.287,0,0,1-.046-.187c0-.087-.021-.158-.046-.158s-.046-.083-.046-.184-.021-.184-.046-.184-.046-.083-.046-.184-.021-.184-.046-.184-.046-.1-.046-.23-.021-.23-.046-.23-.046-.072-.046-.161-.021-.161-.046-.161-.046-.083-.046-.184-.021-.184-.046-.184-.046-.083-.046-.184-.021-.184-.046-.184-.046-.083-.046-.184-.021-.184-.046-.184-.046-.083-.046-.184-.021-.184-.046-.184-.046-.083-.046-.184-.021-.184-.046-.184-.046-.093-.046-.207-.018-.207-.039-.207-.053-.128-.069-.285a2.88,2.88,0,0,0-.074-.426c-.024-.077-.07-.239-.1-.359s-.074-.219-.094-.219-.036-.028-.036-.062a1.113,1.113,0,0,0-.34-.386.344.344,0,0,0-.187-.058c-.064,0-.117-.021-.117-.046a16.64,16.64,0,0,0-1.978-.046,16.64,16.64,0,0,0-1.978.046" transform="translate(0 -168.145)" fill="#44b4e4" fill-rule="evenodd"/>
    </g>
    <g id="Group_156051" data-name="Group 156051" transform="translate(-1045 296)">
      <g id="Group_156050" data-name="Group 156050" transform="translate(1239.5 171.959) rotate(90)">
        <path id="Polygon_3-6" data-name="Polygon 3" d="M5.5,0,11,9H0Z" transform="translate(0 0)" fill="#9583e6"/>
        <line id="Line_103-6" data-name="Line 103" y2="26.5" transform="translate(5.5 8.5)" fill="none" stroke="#9583e6" stroke-width="1"/>
      </g>
    </g>
    <g id="Group_156052" data-name="Group 156052" transform="translate(253.459 -609.5) rotate(90)">
      <g id="Group_156050-2" data-name="Group 156050" transform="translate(1239.5 171.959) rotate(90)">
        <path id="Polygon_3-7" data-name="Polygon 3" d="M5.5,0,11,9H0Z" transform="translate(0 0)" fill="#9583e6"/>
        <line id="Line_103-7" data-name="Line 103" y2="26.5" transform="translate(5.5 8.5)" fill="none" stroke="#9583e6" stroke-width="1"/>
      </g>
    </g>
    <g id="document-1-svgrepo-com_1_" data-name="document-1-svgrepo-com (1)" transform="translate(59.444 637)">
      <path id="Path_193290" data-name="Path 193290" d="M4,4.694v24.6a5.271,5.271,0,0,0,5.271,5.271H26.84a5.271,5.271,0,0,0,5.271-5.271V11.722A5.271,5.271,0,0,0,26.84,6.451H5.757A1.757,1.757,0,0,1,4,4.694Zm5.71,12.3a1.318,1.318,0,0,1,1.318-1.318H25.083a1.318,1.318,0,0,1,0,2.635H11.028A1.318,1.318,0,0,1,9.71,16.993Zm0,6.149a1.318,1.318,0,0,1,1.318-1.318h9.663a1.318,1.318,0,0,1,0,2.635H11.028A1.318,1.318,0,0,1,9.71,23.142Z" transform="translate(0 2.039)" fill="#5035cb" fill-rule="evenodd"/>
      <path id="Path_193291" data-name="Path 193291" d="M28.6,5.514V8.791a5.263,5.263,0,0,0-1.757-.3H5.757A1.757,1.757,0,0,1,4,6.734V6.609A1.882,1.882,0,0,1,5.616,4.746l18.97-2.71A3.514,3.514,0,0,1,28.6,5.514Z" fill="#735dd7" opacity="0.5"/>
    </g>
  </g>
</svg>
