<svg xmlns="http://www.w3.org/2000/svg" width="20.058" height="20" viewBox="0 0 20.058 20">
  <g id="Twitter_Icon" transform="translate(-74 -47.55)">
    <rect id="Rectangle_2668" data-name="Rectangle 2668" width="20" height="20" transform="translate(74 47.55)" fill="#fff" opacity="0"/>
    <path id="Path_90" data-name="Path 90" d="M-331.993-161.691A11.065,11.065,0,0,0-326-159.934a11.06,11.06,0,0,0,11.114-11.631,7.91,7.91,0,0,0,1.951-2.024,7.785,7.785,0,0,1-2.245.615,3.916,3.916,0,0,0,1.719-2.163,7.833,7.833,0,0,1-2.482.949,3.906,3.906,0,0,0-2.855-1.234,3.914,3.914,0,0,0-3.808,4.8,11.1,11.1,0,0,1-8.059-4.086,3.914,3.914,0,0,0,1.21,5.22,3.893,3.893,0,0,1-1.772-.489,3.916,3.916,0,0,0,3.136,3.884,3.9,3.9,0,0,1-1.765.066,3.911,3.911,0,0,0,3.652,2.715A7.857,7.857,0,0,1-331.993-161.691Z" transform="translate(406.993 225.972)" fill="#896eeb"/>
  </g>
</svg>
