<svg xmlns="http://www.w3.org/2000/svg" width="40" height="40" viewBox="0 0 40 40">
  <g id="Workflow_Icon" transform="translate(-102 -102)">
    <g id="Bg" transform="translate(102 102)" fill="#fff" stroke="#707070" stroke-width="1" opacity="0">
      <rect width="40" height="40" stroke="none"/>
      <rect x="0.5" y="0.5" width="39" height="39" fill="none"/>
    </g>
    <g id="bank" transform="translate(106.386 106)">
      <g id="Group_154702" data-name="Group 154702" transform="translate(0.614 1)">
        <g id="Group_154701" data-name="Group 154701">
          <g id="Group_154700" data-name="Group 154700">
            <circle id="Ellipse_64" data-name="Ellipse 64" cx="1.172" cy="1.172" r="1.172" transform="translate(13.828 5.039)" fill="#5a3ed9"/>
            <path id="Path_155039" data-name="Path 155039" d="M29.442,91.283H1.786a1.172,1.172,0,1,0,0,2.344H29.442a1.172,1.172,0,1,0,0-2.344Z" transform="translate(-0.614 -63.861)" fill="#5a3ed9"/>
            <path id="Path_155040" data-name="Path 155040" d="M30.614,8.324a1.172,1.172,0,0,0-.7-1.071L16.06,1.1a1.173,1.173,0,0,0-.953,0L1.309,7.254a1.172,1.172,0,0,0-.695,1.07V11.43c0,.01,0,.019,0,.029s0,.019,0,.029A1.172,1.172,0,0,0,1.786,12.66a1.043,1.043,0,0,1,1,1.172V24.76c0,.025,0,.049,0,.073s0,.048,0,.073a1.172,1.172,0,0,0,1.172,1.172H27.391a1.172,1.172,0,0,0,0-2.344H23.876v-9.9a1.172,1.172,0,1,1,2.344,0v5.186a1.172,1.172,0,0,0,2.344,0V13.832c0-.275.063-1.172.879-1.172a1.172,1.172,0,0,0,1.172-1.172c0-.01,0-.019,0-.029s0-.019,0-.029ZM7.469,23.734H5.126v-9.9a1.172,1.172,0,1,1,2.344,0Zm4.687,0H9.813v-9.9a1.172,1.172,0,1,1,2.344,0Zm4.687,0H14.5v-9.9a1.172,1.172,0,1,1,2.344,0Zm4.687,0H19.188v-9.9a1.172,1.172,0,1,1,2.344,0ZM28.27,10.258H2.958V9.085l12.628-5.63L28.27,9.086Z" transform="translate(-0.614 -1)" fill="#5a3ed9"/>
          </g>
        </g>
      </g>
    </g>
  </g>
</svg>
