<svg xmlns="http://www.w3.org/2000/svg" xmlns:xlink="http://www.w3.org/1999/xlink" width="170.455" height="25" viewBox="0 0 170.455 25">
  <defs>
    <clipPath id="clip-path">
      <rect id="Rectangle_2654" data-name="Rectangle 2654" width="170.455" height="25" fill="#fff"/>
    </clipPath>
  </defs>
  <g id="crafted" clip-path="url(#clip-path)">
    <g id="Group_23167" data-name="Group 23167" transform="translate(0.709)">
      <g id="Group_23165" data-name="Group 23165" transform="translate(80.326)">
        <path id="Path_154008" data-name="Path 154008" d="M90.679,17.7a14.963,14.963,0,0,1-.911-5.193v-.047H85.859V12.5a18.9,18.9,0,0,0,1.677,7.781,8.634,8.634,0,1,1,3.145-12.97,14.626,14.626,0,0,1,1.947-3.644,12.489,12.489,0,1,0,0,17.683,14.66,14.66,0,0,1-1.947-3.659S90.679,17.7,90.679,17.7ZM140.238,7.31a15.059,15.059,0,0,1,.9,5.193c0,.022,0,.04,0,.04h3.909s0-.018,0-.04a18.625,18.625,0,0,0-1.678-7.78,8.713,8.713,0,0,1,3.751-.85,8.629,8.629,0,0,1,0,17.258,8.5,8.5,0,0,1-6.881-3.439,15.465,15.465,0,0,1-1.967,3.659,12.511,12.511,0,1,0,0-17.683,15.433,15.433,0,0,1,1.967,3.644v0ZM126.014,0a12.516,12.516,0,0,0-12.5,12.5v.089a8.611,8.611,0,1,1-1.725-5.278,14.553,14.553,0,0,1,1.935-3.644,12.489,12.489,0,1,0,3.668,8.834v-.089a8.622,8.622,0,1,1,8.623,8.717,8.533,8.533,0,0,1-6.9-3.439,14.588,14.588,0,0,1-1.935,3.659A12.5,12.5,0,1,0,126.014,0Z" transform="translate(-71.311)" fill="#896eeb" fill-rule="evenodd"/>
      </g>
      <g id="Group_23166" data-name="Group 23166" transform="translate(0 7.202)" opacity="0.703">
        <path id="Path_154009" data-name="Path 154009" d="M5.615,16.606a4.642,4.642,0,0,0,3.5-1.4l-.641-.641a3.744,3.744,0,0,1-2.823,1.145,3.955,3.955,0,1,1,0-7.909A3.783,3.783,0,0,1,8.479,8.929l.641-.641A4.622,4.622,0,0,0,5.629,6.9a4.792,4.792,0,0,0-5,4.855A4.789,4.789,0,0,0,5.615,16.606ZM12,10.756v-1.4h-.927v7.173h.968V12.87c0-1.691.914-2.645,2.414-2.645.068,0,.15.014.232.014V9.3A2.7,2.7,0,0,0,12,10.756ZM18.924,9.3a4.554,4.554,0,0,0-2.918.968l.436.723a3.654,3.654,0,0,1,2.386-.845c1.336,0,2.032.668,2.032,1.9v.436H18.583c-2.059,0-2.768.927-2.768,2.032,0,1.241,1,2.086,2.618,2.086A2.693,2.693,0,0,0,20.9,15.406v1.118h.927V12.079C21.829,10.224,20.779,9.3,18.924,9.3Zm-.341,6.532c-1.145,0-1.814-.518-1.814-1.35,0-.736.45-1.282,1.841-1.282h2.25V14.37A2.3,2.3,0,0,1,18.583,15.829Zm8.25-8.673a1.64,1.64,0,0,1,1.064.355l.327-.723a2.273,2.273,0,0,0-1.432-.45,1.975,1.975,0,0,0-2.168,2.127v.886H23.342v.818h1.282v6.355h.968V10.17h2.182V9.352H25.565V8.506C25.565,7.62,26,7.156,26.833,7.156Zm5.686,8.236a1.6,1.6,0,0,1-1.064.368,1.149,1.149,0,0,1-1.241-1.309V10.17H32.4V9.352H30.215V7.783h-.968V9.352H27.965v.818h1.282v4.336a1.9,1.9,0,0,0,2.1,2.086,2.306,2.306,0,0,0,1.514-.5l-.341-.7Zm8.1-2.455A3.418,3.418,0,0,0,37.142,9.3a3.455,3.455,0,0,0-3.5,3.641,3.792,3.792,0,0,0,6.532,2.482l-.545-.627a2.827,2.827,0,0,1-2.2.941,2.655,2.655,0,0,1-2.823-2.5h6C40.606,13.129,40.619,13.02,40.619,12.938Zm-3.477-2.809a2.5,2.5,0,0,1,2.55,2.386H34.606A2.491,2.491,0,0,1,37.142,10.129ZM48.174,6.406v4.309A3.133,3.133,0,0,0,45.447,9.3a3.47,3.47,0,0,0-3.573,3.641,3.481,3.481,0,0,0,3.573,3.655,3.107,3.107,0,0,0,2.768-1.486v1.418h.927V6.406Zm-2.645,9.327a2.626,2.626,0,0,1-2.673-2.8,2.669,2.669,0,1,1,5.332,0A2.623,2.623,0,0,1,45.529,15.733ZM59.11,9.3a3.133,3.133,0,0,0-2.727,1.418V6.406h-.968V16.524h.927V15.106a3.107,3.107,0,0,0,2.768,1.486,3.481,3.481,0,0,0,3.573-3.655A3.47,3.47,0,0,0,59.11,9.3Zm-.068,6.436a2.626,2.626,0,0,1-2.673-2.8,2.675,2.675,0,1,1,5.345,0A2.634,2.634,0,0,1,59.042,15.733ZM69.529,9.352l-2.7,6.1-2.7-6.1H63.119l3.2,7.159-.314.7c-.409.9-.845,1.2-1.486,1.2a1.791,1.791,0,0,1-1.309-.545l-.45.723a2.455,2.455,0,0,0,1.745.655c1.023,0,1.786-.45,2.386-1.855l3.586-8.032Z" transform="translate(-0.624 -6.338)" fill="#fff" fill-rule="evenodd"/>
      </g>
    </g>
  </g>
</svg>
