<svg xmlns="http://www.w3.org/2000/svg" width="1921" height="348.5" viewBox="0 0 1921 348.5">
  <g id="Footer_Wave" transform="translate(0 -202)">
    <g id="Rectangle_2673" data-name="Rectangle 2673" transform="translate(0.5 202)" fill="#fff" stroke="#707070" stroke-width="1" opacity="0">
      <rect width="1920" height="348" stroke="none"/>
      <rect x="0.5" y="0.5" width="1919" height="347" fill="none"/>
    </g>
    <path id="Path_183436" data-name="Path 183436" d="M2808.363-2571.5H2758.5c21.05-.184,42.92-1.178,65-2.957v1.849C2818.438-2572.2,2813.346-2571.824,2808.363-2571.5Zm-64.456,0H2696.48c-3.82-.252-7.75-.534-11.684-.838-16.289-1.257-33.236-2.934-51.812-5.125-34.581-4.083-68.812-9.262-101.917-14.271l-.05-.008-.023,0c-35.945-5.626-74.287-11.4-111.145-15.539-29.618-3.3-55.545-5.247-79.263-5.962-10.377-.377-20.93-.569-31.366-.569-27.657,0-55.964,1.341-84.132,3.984s-56.946,6.657-85.555,11.936-57.81,11.968-86.746,19.868c-7.566,2.065-15.281,4.261-22.932,6.526h-6.489c9.606-2.9,19.262-5.68,28.7-8.261,28.938-7.914,58.108-14.614,86.7-19.914s57.365-9.338,85.5-12c28.191-2.664,56.464-4.015,84.032-4.015,10.723,0,21.55.2,32.178.608,24.849.895,50.9,2.885,79.653,6.085,37.958,4.259,76.811,10.153,111.089,15.354h.009l.018,0,4.361.66c65.561,9.925,133.353,20.189,201.315,21.384,2.29.041,4.638.072,6.98.093Zm-160.081,0h-11.772c-14.991-2.31-30.043-4.736-44.6-7.082l-4.678-.752c-33.656-5.651-69.751-11.5-105.669-16.037-29.445-3.586-55.5-5.94-79.644-7.195-13.266-.658-26.864-.992-40.414-.992a926.955,926.955,0,0,0-166.722,15.625c-24.508,4.5-49.392,10.026-73.961,16.433h-7.173c26.906-7.2,54.152-13.343,80.981-18.262a929.8,929.8,0,0,1,167.093-15.652c13.487,0,27.036.33,40.271.982,24.865,1.294,50.916,3.648,79.644,7.2,34.194,4.436,68.167,9.874,105.849,16.008l.058.01c19.734,3.246,40.141,6.6,60.735,9.716Zm-83.56,0h-10.794c-30.328-5.242-53.547-8.921-75.286-11.927-29.434-4.122-55.483-6.84-79.635-8.309-16.545-1.04-33.528-1.567-50.476-1.567a907.87,907.87,0,0,0-162.958,15.188c-10.914,2-21.994,4.224-32.935,6.616h-8.4c13.694-3.111,27.544-5.951,41.166-8.443a910.643,910.643,0,0,1,163.319-15.214c16.9,0,33.841.523,50.354,1.555,24.624,1.5,50.732,4.208,79.817,8.282,28.8,3.985,57.79,8.983,85.825,13.817Zm-76.364,0h-12.365l-.047-.007-.047-.007c-26.878-4.251-52.982-7.323-79.806-9.392-19.8-1.5-40.129-2.262-60.436-2.262-26,0-52.618,1.246-79.125,3.7-20.542,1.9-41.491,4.583-62.263,7.965h-10.8a887.245,887.245,0,0,1,152.437-13.514c20.24,0,40.515.755,60.261,2.245,23.83,1.8,49.994,4.859,79.988,9.364,3.93.6,8.036,1.237,12.2,1.9Zm-90.109,0h-21.9c-17.363-1.141-35.065-1.719-52.614-1.719s-35.5.578-53.373,1.719h-23.244c25.5-2.311,51.162-3.481,76.269-3.481,23.464,0,46.97,1.023,69.864,3.041,1.633.138,3.313.285,4.994.438Zm-326.949,0h-5.986c19.663-6.433,39.43-12.361,58.752-17.621,30.011-8.17,60.209-15.086,89.756-20.554,29.531-5.464,59.176-9.623,88.109-12.361,28.955-2.74,57.958-4.13,86.206-4.13,6.646,0,13.34.076,19.893.227,24.458.525,50.4,2.169,79.3,5.028,39.5,3.89,80.733,9.672,117.111,14.773l.023,0,.012,0h.009c64.891,9.2,131.991,18.711,199.208,19.914,6.078.126,12.257.191,18.365.191,21.241,0,43.411-.776,65.9-2.306v1.872c-6.506.444-12.931.824-19.1,1.13-15.748.782-31.4,1.179-46.534,1.179-6.239,0-12.532-.067-18.7-.2-16.156-.333-32.639-1.119-50.392-2.4-15.79-1.143-32.2-2.657-50.17-4.628-34.253-3.756-68.508-8.581-98.732-12.839l-.013,0h-.007l-.1-.013-6.294-.886-.173-.023-1.618-.228-1.97-.277-.352-.049-.011,0c-34.967-4.922-71.125-10.011-106.716-13.31-28.578-2.875-54.458-4.53-79.119-5.059-6.61-.154-13.363-.232-20.073-.232-28.2,0-57.139,1.387-86.025,4.124s-58.461,6.889-87.908,12.344c-29.469,5.457-59.587,12.36-89.519,20.518C2042.475-2582.55,2024.6-2577.227,2006.845-2571.5Zm-21.524,0h-5.161c123.908-43.345,243.923-65.322,356.711-65.322,3.212,0,6.448.018,9.618.054,25.167.356,51.051,1.646,79.13,3.944,40.426,3.391,81.445,8.67,121.115,13.776l.017,0,2.561.33.029,0h.007l.118.015c29.156,3.834,62.2,8.179,95.137,11.572,36.133,3.722,67.855,5.837,96.979,6.466,7.307.171,14.806.258,22.288.258,19.244,0,39.307-.584,59.63-1.734v1.842c-1.353.076-2.387.133-3.38.186-19.3,1.032-38.383,1.556-56.719,1.557-7.286,0-14.652-.083-21.894-.248-29.073-.625-60.8-2.739-97-6.46-32.565-3.35-64.516-7.525-95.415-11.563l-.012,0-.015,0h-.007l-.016,0-.01,0c-36.083-4.688-80.99-10.524-123.488-14.132-28.078-2.3-53.961-3.59-79.129-3.946-2.845-.028-5.744-.042-8.616-.042C2225.977-2634.946,2107.386-2613.6,1985.321-2571.5Zm-19.749,0h-5.326c5.526-2.035,11.06-4.039,16.448-5.958,131.291-46.25,256.689-69.849,372.71-70.141h1.57c24.845,0,50.158.938,77.387,2.866,40.247,2.847,81.27,7.665,120.943,12.324l.033,0,.441.052,4.563.535,2.192.257,2.832.332,4.6.544c58.725,6.961,119.445,14.16,179.963,15.585,8.639.219,17.528.33,26.417.33,17.174,0,35.059-.418,53.159-1.244v1.848c-18.194.832-36.18,1.253-53.461,1.253-8.808,0-17.62-.108-26.191-.322-62.493-1.621-124.639-8.983-184.738-16.1-41.877-5.125-86.474-10.392-130.824-13.531-27.437-1.945-53.039-2.891-78.271-2.891h-.506c-28.929.073-58.836,1.618-88.892,4.593-29.969,2.966-60.873,7.432-91.856,13.273-30.924,5.83-62.727,13.183-94.524,21.853s-64.387,18.875-96.895,30.336C1973.459-2574.337,1969.5-2572.922,1965.572-2571.5Zm-18.891,0h-5.16c13.259-5.038,26.512-9.884,39.388-14.4,131.8-46.289,256.768-70.629,371.436-72.346,5.508-.095,11.15-.143,16.77-.143,19.651,0,39.927.569,61.987,1.741,46.979,2.7,95.866,8.055,139,12.784l.04,0c30.892,3.367,58.789,6.359,87.36,8.866,33.033,2.9,62.068,4.682,88.764,5.452,10.631.295,21.543.444,32.432.444,14.812,0,29.467-.256,44.8-.784v1.854c-15.432.533-30.147.792-44.988.792-10.866,0-21.742-.149-32.323-.442-56.614-1.635-113.311-7.653-168.141-13.472h-.021l-.281-.031-1.292-.137-4.891-.519-1.5-.159h-.01l-.011,0-.046-.005h-.008c-43.133-4.728-92.021-10.086-138.962-12.779-22.194-1.18-42.667-1.754-62.589-1.754-5.345,0-10.724.043-15.987.128-114.453,1.687-239.3,26.008-371.073,72.289C1969.881-2580.08,1958.208-2575.833,1946.682-2571.5Zm-18.421,0h-5.072c20.774-8.07,41.553-15.746,61.759-22.817,132.493-46.325,257.144-71.488,370.491-74.789,9.882-.314,19.971-.473,29.985-.473,15.894,0,31.8.382,48.63,1.168,47.249,1.939,95.5,6.638,142.154,11.183l.017,0,.035,0,4.169.407,1.57.153c29.2,2.931,55.572,5.538,82.695,7.754,31.243,2.555,58.691,4.166,83.913,4.925,12.785.385,26.008.58,39.3.58,11.567,0,23.542-.148,35.591-.439v1.782c-12.569.311-25.056.468-37.114.469-12.8,0-25.539-.177-37.855-.527-52.728-1.587-105.753-6.753-157.033-11.749h-.028c-2.423-.237-6.048-.591-9.547-.93-23.586-2.359-48.712-4.84-73.8-6.965-27.642-2.343-51.9-3.966-74.175-4.963-16.686-.672-32.2-1-47.44-1-10.528,0-21.007.164-31.146.487-28.045.8-57.228,3-86.739,6.516-29.474,3.516-60.016,8.447-90.778,14.656s-62.551,13.859-94.463,22.737c-31.978,8.9-64.879,19.249-97.791,30.765C1966.6-2585.919,1947.308-2578.831,1928.261-2571.5Zm-18.6,0h-4.917c29.093-11.457,57.434-21.964,84.237-31.233,33.791-11.755,67.154-22.288,99.164-31.308s63.686-16.813,94.184-23.176c30.413-6.346,60.644-11.471,89.853-15.235,29.068-3.746,58.06-6.264,86.169-7.482,14.878-.6,29.408-.886,44.422-.886,11.119,0,22.565.167,34.02.5,49.929,1.4,100.851,5.853,150.1,10.16h.011l2.349.206,5.716.5,4.256.379.023,0h.023c49.575,4.415,100.838,8.979,151.676,10.646,15.415.471,31.45.71,47.66.71,8.133,0,16.508-.06,24.892-.179v1.771c-7.82.1-15.57.155-23.037.155h-.066c-16.835,0-33.508-.26-49.554-.774-53.316-1.713-107.81-6.564-155.889-10.844h-.012l-.048,0c-53.779-4.877-106.343-9.378-158.174-10.866-11.524-.33-23.045-.5-34.243-.5-14.876,0-29.275.28-44.018.857-28.118,1.221-57.1,3.737-86.135,7.478-29.183,3.76-59.379,8.881-89.75,15.22-30.445,6.353-62.077,14.142-94.016,23.15s-65.236,19.533-98.925,31.271C1963.442-2591.926,1936.536-2582.006,1909.663-2571.5Zm-18.872,0h-4.934c36.355-14.374,71.458-27.411,107.315-39.858,34.094-11.762,67.646-22.347,99.723-31.461,32.142-9.131,63.828-17.078,94.178-23.62s60.375-11.9,89.251-15.933c28.783-4.017,57.362-6.842,84.941-8.394,19.744-1.091,39.193-1.622,59.457-1.622,6.133,0,12.463.05,18.814.149,57.617.9,117.153,5.715,169.679,9.967h.01l2.082.162,4.493.35,2.2.171.031,0h.015c44.228,3.446,89.96,7.01,135.21,8.533,20.06.693,41.261,1.045,63.014,1.045,2.412,0,4.843,0,7.227-.012v1.857c-2.731.01-5.263.014-7.526.014-22,0-42.533-.34-62.789-1.04-48.215-1.588-96.641-5.536-143.472-9.354h-.012l-.081-.006-.49-.041-9.169-.715-2.108-.164c-52.006-4.061-105.78-8.259-158.391-8.908-6.477-.11-13.006-.166-19.4-.166-19.916,0-39.111.527-58.685,1.61-110.69,6.216-230.976,32.172-367.734,79.35C1959.541-2597.719,1925.9-2585.263,1890.791-2571.5Zm-19.462,0h-4.952c50.123-19.561,91.7-34.9,130.832-48.274,140.247-48.09,256.863-74.032,367-81.641,25-1.761,50.538-2.657,78.071-2.738,27.313,0,57.322.907,91.74,2.759,29.618,1.594,58.865,3.671,91.285,6.024l1.915.14.082.006c41.882,3.033,85.191,6.169,128.3,7.732,21.629.8,43.839,1.264,67.9,1.409v1.859c-24.107-.142-46.342-.6-67.974-1.406-43.147-1.564-86.508-4.7-128.44-7.741h-.044l-1.812-.132c-32.475-2.356-61.757-4.437-91.263-6.028-34.391-1.856-64.347-2.768-91.581-2.785-27.534.08-53.072.976-78.072,2.738-109.94,7.578-226.385,33.493-366.457,81.556C1958.184-2604.467,1916.8-2589.249,1871.329-2571.5Zm-20.321,0H1845.8c59.234-22.661,108.629-40.674,155.45-56.689,142.452-48.512,258.712-75.22,365.876-84.054,23.615-1.995,49.1-3.245,77.9-3.822,5.182-.063,10.543-.094,15.934-.094,59.469,0,120.086,3.813,178.708,7.5h.014l3.741.237,3.507.226,4.023.259h.015c34.964,2.255,71.118,4.586,106.979,6,20.67.8,42.114,1.358,65.557,1.7v1.849c-23.445-.346-44.914-.9-65.633-1.692-34.415-1.356-69.284-3.572-103-5.714h-.033l-.065,0h-.005l-11.6-.736-8.193-.522-.047,0c-56.417-3.591-114.755-7.3-171.87-7.3-6.135,0-12.167.043-17.927.127-28.743.576-54.165,1.816-77.717,3.793-107.121,8.832-223.267,35.523-365.517,84C1956.058-2610.793,1908.113-2593.336,1851.008-2571.5Zm-22.464,0h-5.06c7.172-2.6,14.6-5.319,21.146-7.715l.046-.017.007,0,.433-.157,1.386-.589,1.181-.432.037-.014.023-.008c51.219-18.763,104.181-38.165,157.72-56.2,73.923-24.985,138.541-43.934,197.547-57.928,59.085-14.011,113.779-23.348,167.207-28.542,24.242-2.4,50.4-3.992,77.756-4.724,12.254-.355,25.176-.535,38.406-.535,58.375,0,117.682,3.441,175.036,6.769h.038l.049,0,2.257.132c29.347,1.718,63.428,3.669,96.527,5.078,19.549.825,40.227,1.49,63.216,2.034v1.788c-22.534-.534-43.237-1.176-63.292-1.959-33.07-1.408-67.165-3.359-96.527-5.077h-.009c-57.955-3.4-117.878-6.908-177.217-6.908-13.3,0-26.277.18-38.559.536-27.1.7-53.2,2.282-77.575,4.7-53.329,5.177-107.941,14.5-166.958,28.5-58.9,13.972-123.479,32.913-197.435,57.907-58.024,19.577-115.333,40.544-158.779,56.624l-1.417.41-.051.019-.019.006-.374.138C1839.866-2575.659,1834.257-2573.591,1828.544-2571.5Zm-24.912,0h-5.885c18.021-5.954,35.369-12.062,52.146-17.969l.018-.006.006,0,.6-.213,20.5-7.321c9.222-3.233,19.11-6.712,26.33-9.252l.9-.318.025-.01.271-.094.021-.008c36.274-12.761,73.783-25.957,110.927-38.358,31.237-10.541,57.722-19.127,83.351-27.021,31.649-9.748,60.873-18.085,89.34-25.487,32.364-8.416,63.957-15.634,93.9-21.455,16.251-3.159,32.473-6,48.216-8.433,16.465-2.549,32.891-4.731,48.821-6.487,27.377-2.925,52.755-4.825,77.584-5.808,18.885-.8,38.295-1.2,59.339-1.2,58.85,0,118.515,3.148,176.217,6.193h.01l.058,0,1.247.065c23.964,1.285,49.5,2.641,75.041,3.854,18.243.794,38.156,1.532,60.874,2.255v1.839c-22.9-.758-42.849-1.547-60.978-2.412-24.231-.977-48.308-2.241-75.013-3.672-57.956-3.087-117.884-6.279-177.59-6.279-21,0-40.332.387-59.1,1.182-24.817.983-50.2,2.883-77.583,5.809-15.884,1.749-32.27,3.925-48.7,6.468-15.68,2.426-31.872,5.258-48.124,8.419-29.93,5.82-61.48,13.031-93.775,21.435-28.444,7.4-57.637,15.73-89.248,25.472-25.659,7.909-52.11,16.49-83.241,27.005-43.679,14.583-86.948,29.75-138.477,48.039l-20.5,7.32-.074.025C1835.807-2582.532,1820-2576.967,1803.632-2571.5Zm-31.2,0h-6.751c2.688-.741,5.514-1.533,8.4-2.357,27.933-7.975,56.174-17.365,80.453-25.541,10.73-3.708,21.981-7.561,31.907-10.96l.933-.32.09-.031.151-.051,1.46-.5.323-.111c10.266-3.517,20.881-7.154,31.161-10.706,6.75-2.294,13.858-4.712,21.128-7.187l.077-.026.694-.236c23.181-7.889,47.152-16.046,71.046-24.121,33.318-11.115,61-20.042,87.127-28.1,32.179-9.921,61.562-18.377,89.827-25.851,67.357-17.812,128.071-29.912,185.612-36.991,23.862-3.078,49.175-5.391,77.384-7.072,25.348-1.462,51.879-2.173,81.107-2.173,59.354,0,119.466,3,177.6,5.9l.023,0,3.135.156c16.469.831,33.162,1.613,49.618,2.324,18.2.919,37.9,1.8,58.562,2.634v1.788l-.11,0-.592-.024-.266-.011-.721-.029-.075,0h-.015l-.16-.007-.053,0c-18.517-.747-37.665-1.519-56.643-2.477-16.414-.71-33.108-1.493-49.618-2.325l-4.109-.205c-57.858-2.89-117.686-5.878-176.752-5.878-29.112,0-55.549.709-80.824,2.167-27.534,1.622-53.509,3.992-77.2,7.044-57.551,7.08-118.228,19.174-185.5,36.971-28.266,7.478-57.61,15.928-89.711,25.832-26.094,8.051-53.737,16.973-86.994,28.076-29.016,9.806-60.287,20.428-92.946,31.57-19.443,6.718-41.049,14.077-66.053,22.5-25.808,8.767-53.436,17.952-80.609,25.727Zm-43.774,0h-9.237c18.95-3.513,38.634-8.044,60.177-13.854,27.408-7.392,54.13-15.871,78.925-23.934,31.458-10.108,66.217-21.609,106.262-35.161,17.514-5.826,35.324-11.762,52.937-17.641,22.594-7.511,52.617-17.409,84.5-27.356,32.221-10.056,61.51-18.664,89.54-26.315,32.818-8.959,63.185-16.421,92.836-22.811,15.985-3.445,31.835-6.581,47.109-9.321,16.056-2.88,31.963-5.41,47.28-7.52,26.37-3.6,52.347-6.344,77.213-8.155,32.162-2.317,66.222-3.443,104.126-3.443,62.66,0,125.979,3.121,187.213,6.139h.022l1.058.052,47.393,2.307,2.716.133,3.779.185c6.694.328,13.87.679,20.995,1.031v1.867c-7.356-.363-15.716-.774-24.85-1.22l-2.715-.134-47.394-2.306-1.94-.1h-.019c-61-3.006-124.069-6.115-186.453-6.115-37.784,0-71.746,1.123-103.825,3.433-24.6,1.779-50.521,4.513-77.033,8.128-15.334,2.113-31.238,4.643-47.272,7.519-15.288,2.743-31.131,5.879-47.089,9.319-29.634,6.387-59.981,13.844-92.775,22.8-27.943,7.629-57.211,16.233-89.476,26.3-31.737,9.907-61.813,19.822-84.469,27.352l-52.754,17.614c-7.259,2.415-14.847,4.95-21.542,7.186l-.431.144-.671.224-.334.112-.1.034-.047.016c-27.375,9.142-55.681,18.6-83.314,27.474-24.963,8.04-51.8,16.486-78.9,23.792C1761.8-2578.788,1744.974-2574.792,1728.66-2571.5Zm-183.187,0h-7.85c-3.193-.783-6.407-1.618-9.554-2.482-53.894-15.015-102.355-41.535-149.22-67.182l-.921-.5c-19.154-10.616-39.682-21.814-60.023-31.783-21.245-10.39-40.639-18.886-59.289-25.973-17.394-6.536-35.7-12.364-54.394-17.32-18.624-4.935-38.066-9.116-57.786-12.429-19.685-3.309-40.121-5.83-60.738-7.493s-41.908-2.509-63.248-2.509c-16.479,0-33.354.5-50.156,1.5-16.872,1-34.093,2.514-51.186,4.506-6.21.725-12.471,1.516-18.609,2.35v-1.845c6.123-.829,12.288-1.607,18.323-2.312a881.7,881.7,0,0,1,101.73-6.036c21.4,0,42.719.847,63.374,2.519s41.128,4.2,60.859,7.531c19.773,3.334,39.263,7.542,57.928,12.508a571.218,571.218,0,0,1,54.576,17.447,626.119,626.119,0,0,1,59.469,25.944c20.351,9.973,40.875,21.168,60.023,31.781l.013.008c23.272,12.8,47.331,26.027,72.248,37.868,13.369,6.354,25.771,11.737,37.915,16.459a411.585,411.585,0,0,0,39.573,13.228c5.614,1.541,11.314,2.96,16.941,4.22Zm-50.551,0h-5.162c-40.946-15.76-78.894-37.556-115.592-58.633l-.007,0-.013-.007-.759-.436-1.973-1.131-1.844-1.058-.722-.413-.041-.024c-17.249-9.889-35.085-20.115-52.887-29.375a612.787,612.787,0,0,0-58.737-27.171,544.1,544.1,0,0,0-55.053-18.79c-18.865-5.348-38.6-9.881-58.641-13.473-19.991-3.583-40.768-6.312-61.754-8.115s-42.659-2.715-64.394-2.715a843.836,843.836,0,0,0-97.305,5.767c-5.806.681-11.706,1.428-17.538,2.22v-1.846c5.8-.785,11.6-1.519,17.251-2.181a843.634,843.634,0,0,1,97.4-5.775c21.811,0,43.546.917,64.6,2.724,21.038,1.807,41.882,4.544,61.955,8.136,20.119,3.6,39.917,8.14,58.846,13.491a550.9,550.9,0,0,1,55.276,18.787,620.272,620.272,0,0,1,58.946,27.324c17.823,9.271,35.687,19.513,52.962,29.419l.024.014.008,0,.028.016.023.012,1.272.73,1.919,1.1,1.229.706.522.3c38.083,21.873,77.464,44.49,120.156,60.4Zm-36.125,0h-4.256c-29.468-14.223-57.541-31.124-84.691-47.467l-.013-.008,0,0-1.609-.968-3.227-1.94-.011-.007-.029-.017c-16.645-10-33.856-20.35-51.042-29.983-19.108-10.537-38.082-19.827-58.007-28.4a526.932,526.932,0,0,0-55.79-20.122,591.057,591.057,0,0,0-59.566-14.427c-20.317-3.834-41.457-6.757-62.832-8.687-21.356-1.927-43.426-2.905-65.6-2.905a817.86,817.86,0,0,0-93.155,5.45c-5.466.644-11.006,1.346-16.466,2.087v-1.846c5.4-.73,10.842-1.419,16.18-2.047a817.178,817.178,0,0,1,93.19-5.458c22.232,0,44.379.984,65.825,2.924s42.647,4.879,63.053,8.737a593.815,593.815,0,0,1,59.792,14.5,532,532,0,0,1,56.04,20.209,553.962,553.962,0,0,1,58.216,28.55c18.277,9.951,36.106,20.7,54.282,31.765l1.409.847c28.27,17.02,57.5,34.62,88.311,49.216Zm-29.647,0h-3.737c-21.008-11.794-41.439-24.722-61.2-37.225l-.012-.007-.967-.613c-16.311-10.445-33.708-21.495-51.3-31.683a617.484,617.484,0,0,0-57.3-29.805,514.414,514.414,0,0,0-56.255-21.424,571.554,571.554,0,0,0-60.175-15.394,634.6,634.6,0,0,0-63.58-9.293c-21.641-2.066-44.005-3.114-66.471-3.114a781.107,781.107,0,0,0-90.222,5.349c-5.048.586-10.238,1.234-15.423,1.927v-1.843c5.01-.668,10.1-1.3,15.137-1.891a781.936,781.936,0,0,1,90.354-5.36c22.548,0,44.993,1.054,66.712,3.132a636.6,636.6,0,0,1,63.8,9.34,572.774,572.774,0,0,1,60.371,15.469,515.053,515.053,0,0,1,56.422,21.514,588.178,588.178,0,0,1,57.694,29.928c15.935,9.35,32,19.487,47.543,29.29l.107.068.011.007,1.9,1.2,1.536.969.954.6.015.01,0,0c20.681,13.087,42.066,26.619,64.08,38.844Zm-25.4,0h-3.576c-14.244-8.948-28.208-18.253-41.712-27.252l-.015-.01-.007,0-.007,0-1.689-1.125-.033-.022c-15.216-10.13-30.95-20.6-46.758-30.241a587.561,587.561,0,0,0-56.572-31.032c-71.684-34.277-158.658-52.4-251.521-52.4a739,739,0,0,0-85,4.971c-4.808.559-9.637,1.162-14.353,1.794v-1.843c4.649-.622,9.381-1.212,14.067-1.756a739.148,739.148,0,0,1,85.146-4.985,658.86,658.86,0,0,1,133.779,13.333c42.8,8.9,82.685,22.119,118.558,39.292a534.539,534.539,0,0,1,56.962,31.155c15.795,9.628,31.51,20.09,46.707,30.206l.01.007.022.014.023.016,1.72,1.144.6.4.015.011c14.166,9.392,28.814,19.1,43.635,28.328Zm-22.548,0h-3.221c-8.048-5.49-16.069-11.076-23.825-16.478l-.074-.052-.05-.035-.005,0-.009-.006-6.424-4.469-.123-.085-.341-.239c-12.685-8.834-25.8-17.968-38.981-26.454a575.516,575.516,0,0,0-56.229-32.383c-35.983-18.135-76.112-32.091-119.272-41.482a636.808,636.808,0,0,0-135.1-14.064,718.921,718.921,0,0,0-81.763,4.729c-4.427.515-8.9,1.073-13.28,1.659v-1.844c4.431-.589,8.8-1.134,12.994-1.62a720.231,720.231,0,0,1,82-4.747,639.182,639.182,0,0,1,135.619,14.121c43.33,9.427,83.589,23.434,119.66,41.63a547.291,547.291,0,0,1,56.259,32.564c13.772,8.867,28.835,19.079,46.048,31.218,8.489,5.911,17.266,12.023,26.117,18.037Zm-20.2,0h-3.3c-2.416-1.751-4.8-3.482-7.23-5.25l-.011-.008-.854-.619c-12.039-8.884-27.855-20.446-43.433-31.076a592.632,592.632,0,0,0-55.529-33.791c-36.061-19.119-76.381-33.845-119.841-43.77A613.618,613.618,0,0,0,994.42-2700.9a692.292,692.292,0,0,0-79.862,4.687c-4.037.463-8.094.961-12.057,1.48v-1.847c3.958-.519,7.979-1.012,11.952-1.468a691.926,691.926,0,0,1,79.843-4.686,615.659,615.659,0,0,1,136.835,14.953c43.62,9.962,84.116,24.74,120.363,43.924a537.324,537.324,0,0,1,55.557,33.969c14.7,9.884,29.475,20.617,43.761,31l.007.005.014.01.011.007.865.629.009.006c2.955,2.147,6.106,4.436,9.277,6.733Zm-18.712,0H1339.3l-.013-.01c-10.771-8.223-22.98-17.543-35.107-26.078a604.635,604.635,0,0,0-54.8-35.015c-36.2-20.215-76.842-35.783-120.8-46.272-43.7-10.43-90.147-15.719-138.055-15.719a675.725,675.725,0,0,0-77.047,4.472c-3.637.418-7.334.871-10.986,1.346v-1.849c3.629-.471,7.289-.919,10.88-1.333a676.042,676.042,0,0,1,77.148-4.482c48.021,0,94.609,5.312,138.469,15.788,44.065,10.528,84.859,26.15,121.246,46.433,8.639,4.774,17.37,10,26.692,15.976,8.925,5.721,18.186,12,28.313,19.192,12.13,8.536,24.273,17.806,36.016,26.771l.046.035.021.016,0,0,.219.167.728.556Zm-17.3,0h-2.941c-7.069-5.523-13.56-10.5-19.844-15.219a570.718,570.718,0,0,0-54.274-36.4c-36.234-21.258-77.044-37.637-121.295-48.685-44.055-11-90.954-16.578-139.394-16.578a655.206,655.206,0,0,0-74.825,4.351c-3.32.383-6.656.791-9.914,1.212v-1.847c3.361-.434,6.661-.837,9.809-1.2a654.81,654.81,0,0,1,74.831-4.353c48.556,0,95.617,5.6,139.877,16.636,44.436,11.083,85.464,27.508,121.947,48.818a573.708,573.708,0,0,1,54.3,36.577c6.831,5.128,13.935,10.584,21.718,16.681Zm-16.323,0h-2.771c-1.909-1.528-3.827-3.052-5.7-4.532-19.83-15.4-37.343-27.7-53.541-37.622-36.309-22.292-77.373-39.472-122.049-51.063-44.441-11.531-91.845-17.377-140.894-17.377a641.128,641.128,0,0,0-72.364,4.162c-3.01.348-5.985.71-8.843,1.079v-1.677c2.954-.374,5.9-.729,8.766-1.055a638.065,638.065,0,0,1,73.034-4.259c49.049,0,96.495,5.875,141.017,17.464,44.707,11.637,85.887,28.884,122.4,51.262a567.67,567.67,0,0,1,53.572,37.8c2.336,1.815,4.749,3.717,7.375,5.814Zm-15.532,0h-2.757a529.717,529.717,0,0,0-44.975-32.513,405.527,405.527,0,0,0-58.21-30.827,472.533,472.533,0,0,0-64.845-22.433,533.423,533.423,0,0,0-69.906-13.7,578.969,578.969,0,0,0-73.4-4.641,603.7,603.7,0,0,0-68.737,3.958c-2.526.287-5.151.6-7.8.935v-1.842c2.474-.311,5-.614,7.514-.9a612.148,612.148,0,0,1,69.98-4.067c18.066,0,36.238.84,54.009,2.5,17.725,1.651,35.5,4.157,52.835,7.448,14.888,2.9,29.581,6.407,43.673,10.433,14.115,4.031,27.991,8.681,41.241,13.821,13.283,5.149,26.3,10.928,38.682,17.176a407.394,407.394,0,0,1,36,20.5,549.355,549.355,0,0,1,46.7,34.156Zm-14.764,0h-3c-10.963-8.7-21.184-16.239-31.248-23.053a398.261,398.261,0,0,0-58.337-32.207,461.243,461.243,0,0,0-65.19-23.456,518.663,518.663,0,0,0-70.424-14.341,562.406,562.406,0,0,0-74.043-4.862,586.573,586.573,0,0,0-66.9,3.856c-2.2.253-4.467.527-6.729.813v-1.842c2.187-.275,4.355-.536,6.443-.778a593.431,593.431,0,0,1,66.912-3.817,567.027,567.027,0,0,1,74.4,4.867,520.685,520.685,0,0,1,70.735,14.383,461.184,461.184,0,0,1,65.453,23.555A397.647,397.647,0,0,1,1245-2595.988c11,7.348,21.915,15.358,33.363,24.487Zm-14.4,0h-2.946c-6.236-4.865-12.242-9.3-18.361-13.564a389.365,389.365,0,0,0-58.381-33.612,448.738,448.738,0,0,0-65.479-24.472,504.848,504.848,0,0,0-70.932-14.959,549.212,549.212,0,0,0-74.743-5.07,576.063,576.063,0,0,0-64.967,3.708c-1.911.221-3.815.449-5.657.68v-1.841c1.78-.222,3.587-.439,5.371-.645a578.392,578.392,0,0,1,65.348-3.736,551.418,551.418,0,0,1,75.046,5.091,506.035,506.035,0,0,1,71.2,15.024,449.182,449.182,0,0,1,65.705,24.587,389.2,389.2,0,0,1,58.549,33.779c6.742,4.7,13.362,9.612,20.241,15.027Zm-14.263,0h-2.986c-1.746-1.313-3.532-2.632-5.308-3.923a380.313,380.313,0,0,0-58.317-35.051,436.011,436.011,0,0,0-65.655-25.505,490.329,490.329,0,0,0-71.315-15.581,535.217,535.217,0,0,0-75.3-5.278,563.977,563.977,0,0,0-63.71,3.644c-1.428.162-2.981.346-4.615.545v-1.842c1.631-.2,3.087-.37,4.329-.51a565.831,565.831,0,0,1,64.042-3.671,536.909,536.909,0,0,1,75.577,5.3,491.813,491.813,0,0,1,71.567,15.651,437.664,437.664,0,0,1,65.9,25.62,382.5,382.5,0,0,1,58.562,35.21c2.374,1.725,4.806,3.537,7.229,5.386Zm-13.953,0h-3.074a379.315,379.315,0,0,0-50.914-30.9,427.106,427.106,0,0,0-65.921-26.537,478.413,478.413,0,0,0-71.755-16.225,521.737,521.737,0,0,0-75.87-5.5,549.761,549.761,0,0,0-62.175,3.561c-1.2.137-2.357.273-3.543.417v-1.841c1.131-.136,2.166-.257,3.257-.382a551.827,551.827,0,0,1,62.509-3.587,523.264,523.264,0,0,1,76.149,5.522,479.9,479.9,0,0,1,72.006,16.294,428.629,428.629,0,0,1,66.161,26.652,380.463,380.463,0,0,1,53.167,32.521Zm-14.212,0h-3.045a379.541,379.541,0,0,0-38.056-22.828,418.307,418.307,0,0,0-66.179-27.545,467.648,467.648,0,0,0-72.227-16.837,511.294,511.294,0,0,0-76.556-5.707,542.471,542.471,0,0,0-60.685,3.442c-.676.077-1.425.165-2.291.267v-1.848c.6-.072,1.178-.138,1.753-.205l.249-.029.185-.021a543.638,543.638,0,0,1,60.88-3.458,512.55,512.55,0,0,1,76.829,5.736,468.37,468.37,0,0,1,72.5,16.931,418.413,418.413,0,0,1,66.433,27.72,378.582,378.582,0,0,1,40.208,24.381Zm-14.3,0h-3.422c-7.916-5.132-16.172-10.045-24.537-14.6a406.95,406.95,0,0,0-66.17-28.614,453.91,453.91,0,0,0-72.442-17.5,496.922,496.922,0,0,0-76.954-5.935,528.471,528.471,0,0,0-59.97,3.452c-.422.047-.848.1-1.248.143v-1.848l.185-.022.31-.035.228-.026.419-.047a513.347,513.347,0,0,1,58.576-3.351,511.442,511.442,0,0,1,61.035,3.647,477.674,477.674,0,0,1,58.975,10.856c11.557,2.919,22.99,6.28,33.984,9.987s21.816,7.851,32.206,12.33,20.6,9.4,30.364,14.643,19.34,10.934,28.456,16.922Zm-14.7,0h-3.726c-3.526-2.124-7.146-4.223-10.762-6.239a406.792,406.792,0,0,0-67.04-29.628,456.175,456.175,0,0,0-73.662-18.247,488.99,488.99,0,0,0-77.959-6.226,501.393,501.393,0,0,0-56.711,3.234l-.065.006-.033,0-.047.005-.033,0v-1.847l.025,0h.006l.017,0,.024,0a511.415,511.415,0,0,1,56.887-3.179,504.527,504.527,0,0,1,62,3.813,472.409,472.409,0,0,1,60.017,11.394,446.889,446.889,0,0,1,43.822,13.984,403.3,403.3,0,0,1,40.669,17.972c9.053,4.625,17.99,9.657,26.563,14.956Zm-15.331,0h-3.748a402.317,402.317,0,0,0-64-28.777,447.679,447.679,0,0,0-74.115-18.9,479.693,479.693,0,0,0-78.592-6.451,493.5,493.5,0,0,0-54.255,3.01v-1.845a494.329,494.329,0,0,1,54.363-3.015,481.014,481.014,0,0,1,78.868,6.477,448.928,448.928,0,0,1,74.41,18.983A402.423,402.423,0,0,1,1177.2-2571.5Zm-15.551,0h-3.943a400.24,400.24,0,0,0-49.473-21.725A437.169,437.169,0,0,0,1033.8-2612.8a468.8,468.8,0,0,0-79.095-6.683,483.515,483.515,0,0,0-52.2,2.844v-1.843a488.049,488.049,0,0,1,51.991-2.795,472.909,472.909,0,0,1,79.458,6.684,439.553,439.553,0,0,1,74.795,19.6,399.841,399.841,0,0,1,52.913,23.483Zm-16.2,0h-4.113c-11.05-5.346-22.569-10.258-34.239-14.6a427.052,427.052,0,0,0-74.666-20.18,459.436,459.436,0,0,0-79.514-6.888,476.056,476.056,0,0,0-50.422,2.7v-1.839a477.616,477.616,0,0,1,50.45-2.69,460.923,460.923,0,0,1,79.892,6.933,428.587,428.587,0,0,1,74.981,20.3,397.334,397.334,0,0,1,37.63,16.27Zm-16.912,0h-4.431c-6.021-2.659-12.211-5.207-18.4-7.573a419.031,419.031,0,0,0-75.023-20.8,451.747,451.747,0,0,0-80.06-7.1,469.653,469.653,0,0,0-48.126,2.489v-1.837a471.517,471.517,0,0,1,48.155-2.485,453.3,453.3,0,0,1,80.437,7.143,420.864,420.864,0,0,1,75.341,20.921c7.455,2.854,14.893,5.963,22.109,9.242Zm-18.305,0h-4.522l-1.2-.474a410.957,410.957,0,0,0-75.359-21.509,442.107,442.107,0,0,0-80.573-7.349,460.369,460.369,0,0,0-46.084,2.33v-1.837c14.8-1.486,29.889-2.239,44.843-2.239a451.689,451.689,0,0,1,66.3,4.9,433.638,433.638,0,0,1,63.971,14.5c11.048,3.418,22.022,7.347,32.617,11.677Zm526.193-2.7a412.493,412.493,0,0,1-48.479-2.784,379.686,379.686,0,0,1-56.372-11.066c-12.708-3.508-25.407-7.676-38.822-12.742-11.949-4.512-24.174-9.63-37.374-15.646-25.082-11.43-49.747-24.364-71.507-35.775l-.017-.009-.011-.005-.355-.185-.077-.041-.041-.021c-20.676-10.728-42.055-21.82-63.487-31.838-22.607-10.394-41.671-18.2-59.993-24.566-17.145-6.047-35.143-11.433-53.493-16.008-18.3-4.562-37.371-8.429-56.7-11.492-19.311-3.062-39.325-5.393-59.488-6.93-20.181-1.54-41-2.321-61.87-2.321-17.257,0-34.929.534-52.525,1.587-17.685,1.059-35.733,2.667-53.641,4.779-6.494.756-13.116,1.592-19.68,2.485v-1.846c6.533-.889,13.119-1.721,19.575-2.473a909.466,909.466,0,0,1,106.121-6.359c20.938,0,41.827.783,62.089,2.329,20.229,1.541,40.316,3.879,59.7,6.949s38.535,6.943,56.891,11.513c18.41,4.581,36.465,9.971,53.663,16.02,19.757,7.038,39.45,15.122,60.2,24.717,19.313,8.88,38.61,18.911,57.272,28.612l.007,0q3.352,1.743,6.678,3.469l.019.01.014.007c21.767,11.394,46.439,24.307,71.3,35.644,13.177,6.008,25.376,11.123,37.3,15.637,13.4,5.073,26.064,9.245,38.714,12.756a377.935,377.935,0,0,0,56.164,10.917,407.979,407.979,0,0,0,48.523,2.818,492.059,492.059,0,0,0,63.27-4.23,715.214,715.214,0,0,0,78.532-15.031c23.889-5.863,49.744-13.156,83.832-23.646,42.323-13,85.606-27.225,127.465-40.986l.006,0,.006,0,.075-.024,2.255-.741.8-.264q5.875-1.932,11.725-3.854l17.063-5.665c54.7-17.993,118.3-38.647,180.857-56.047,31.956-8.889,61.3-16.309,89.694-22.684,15.189-3.409,30.258-6.543,44.789-9.313,15.172-2.89,30.245-5.479,44.8-7.694,26.459-4,52.379-7.107,77.041-9.239,38.506-3.321,79.181-4.935,124.348-4.935,60.439,0,122.627,2.881,186.334,6.09,20.632,1.044,37.752,1.95,53.88,2.851v1.881c-20.513-1.15-39.61-2.138-53.955-2.87-28.372-1.484-61.806-3.161-94.656-4.352-33.572-1.218-63.239-1.811-90.7-1.811-45.34,0-86.217,1.62-124.967,4.952-24.668,2.135-50.589,5.243-77.042,9.239-14.548,2.214-29.617,4.8-44.789,7.694-14.532,2.771-29.594,5.9-44.766,9.31-28.383,6.371-57.7,13.786-89.613,22.67-62.412,17.368-125.951,38.017-180.609,56.008l-17.063,5.663-10.13,3.329-2.014.662-.036.013-.353.116-.014,0c-42.684,14.027-86.82,28.531-129.788,41.75-59.461,18.272-109.919,31.856-162.9,38.762A495.086,495.086,0,0,1,1636.429-2574.2Zm8.987-13.3a424.606,424.606,0,0,1-54.106-3.346c-9.208-1.159-18.706-2.723-28.23-4.647-9.128-1.846-18.545-4.077-27.99-6.629-50.729-14.032-97.557-37.154-142.842-59.515l-2.092-1.033c-3.642-1.785-7.663-3.763-10.759-5.287l-.432-.212-.006,0-.035-.017,0,0c-18.6-9.156-37.839-18.623-57.051-26.99-21-9.044-40.854-16.619-60.693-23.16-17.058-5.62-34.793-10.612-52.712-14.835-17.9-4.221-36.488-7.793-55.245-10.615-18.727-2.819-38.134-4.965-57.683-6.38s-39.748-2.129-60.025-2.129c-18.055,0-36.656.568-55.287,1.689-18.654,1.122-37.831,2.828-57,5.072-6.8.792-13.768,1.674-20.723,2.621v-1.846c7.014-.954,13.951-1.831,20.618-2.608,19.224-2.251,38.449-3.963,57.141-5.088,18.674-1.126,37.323-1.7,55.429-1.7,20.306,0,40.53.718,60.108,2.134,19.554,1.412,38.994,3.563,57.781,6.391,18.768,2.824,37.4,6.4,55.369,10.642s35.757,9.243,52.873,14.883c20.328,6.7,40.191,14.333,60.723,23.339,23.409,10.195,46.659,21.636,68.468,32.482l.039.019.015.007c21.41,10.626,45.677,22.67,70.151,33.359,12.938,5.65,24.891,10.481,36.544,14.772,13.1,4.822,25.46,8.834,37.8,12.266a409.5,409.5,0,0,0,56.01,11.125,420.517,420.517,0,0,0,54.2,3.389,521.609,521.609,0,0,0,57.464-3.3,736.636,736.636,0,0,0,84.087-14.87c29.544-6.863,57.774-14.911,79.067-21.156,52.951-15.616,105.709-32.692,159.6-50.275l.151-.207,4.45-1.452.019-.006c115.473-37.679,234.877-76.641,354.395-96.483,24.453-4.053,50.325-7.466,76.9-10.144,23.292-2.355,47.981-4.113,73.381-5.226,23.263-1.019,48.043-1.535,73.651-1.535,59.673,0,118.477,2.8,163.04,5.234,18.763,1,35.621,1.973,51.538,2.975v1.884c-16.066-1.014-32.948-1.994-51.613-2.993-44.568-2.439-103.391-5.238-163.161-5.238-25.6,0-50.333.514-73.524,1.528-25.381,1.112-50.011,2.864-73.207,5.208-26.342,2.642-52.153,6.045-76.717,10.114-119.541,19.847-238.786,58.789-354.105,96.449l-.005,0h-.005l-4.386,1.434-.333.237c-50.849,16.617-105.057,34.187-159.6,50.274-21.318,6.251-49.573,14.306-79.086,21.158a738.468,738.468,0,0,1-84.247,14.894A525.827,525.827,0,0,1,1645.415-2587.5Zm9.553-13.323a455.413,455.413,0,0,1-60.3-3.886,453.344,453.344,0,0,1-56.07-11.487c-11.979-3.3-24.036-7.124-36.86-11.7-11.4-4.067-23.1-8.62-35.771-13.92-23.857-9.977-47.778-21.242-68.884-31.181l-.005,0-.011-.005-.026-.012-.009-.005c-2.109-.983-4.291-2-6.868-3.208l-.384-.178-.077-.037-.11-.051c-21.479-10.038-43.689-20.418-65.743-29.553-19.907-8.157-40-15.331-61.427-21.931-16.665-5.1-33.988-9.633-51.485-13.465-17.479-3.827-35.609-7.063-53.885-9.618s-37.167-4.5-56.186-5.773-38.656-1.924-58.386-1.924c-18.985,0-38.552.6-58.161,1.781-19.633,1.183-39.829,2.981-60.026,5.343-7.19.846-14.522,1.779-21.794,2.775v-1.848c7.346-1,14.643-1.932,21.689-2.761,20.16-2.359,40.322-4.153,59.925-5.333,19.561-1.178,39.1-1.775,58.08-1.775,19.8,0,39.521.65,58.605,1.932s38.058,3.229,56.409,5.791,36.547,5.8,54.121,9.636,35,8.37,51.74,13.469c21.157,6.605,41.259,13.838,61.456,22.112,24.109,9.723,48.113,21.043,71.328,31.99l.009,0,.042.02,1.774.835.01.005.018.009c21.1,9.938,45.021,21.2,68.884,31.194,12.664,5.3,24.348,9.859,35.72,13.929,12.776,4.571,24.8,8.4,36.756,11.715a429.873,429.873,0,0,0,55.861,11.334,450.18,450.18,0,0,0,60.294,3.929c16.714,0,34-.857,51.385-2.547,14.137-1.315,28.934-3.215,43.978-5.647,13.543-2.188,27.786-4.888,42.335-8.024,29.456-6.348,56.878-13.751,77.478-19.491,55.009-15.361,111.557-33.38,159.618-48.98,9.154-3.036,17.5-5.811,25.5-8.485l.039-.012.045-.015c53.439-17.418,108.7-35.43,164.672-51.594,29.945-8.648,57.3-15.966,83.633-22.374,29.619-7.207,57.1-13.064,84.03-17.906,26.485-4.77,52.289-8.608,76.7-11.407,26.51-3.052,54.708-5.326,83.811-6.758,25.923-1.276,53.385-1.923,81.625-1.923,57.157,0,109.692,2.64,144.236,4.626,16.767.941,33.319,1.984,49.2,3.1v1.7c-15.866-1.12-32.453-2.17-49.3-3.121-24.97-1.382-47.246-2.4-68.1-3.117-26.618-.911-51.277-1.354-75.386-1.354-28.38,0-55.937.645-81.9,1.917-29.221,1.431-57.507,3.706-84.073,6.763-24.286,2.779-50.03,6.607-76.517,11.378-26.873,4.834-54.324,10.686-83.921,17.888-26.314,6.406-53.647,13.721-83.561,22.362-56.135,16.217-111.231,34.191-164.514,51.573l-.039.013-.014.005-.007,0c-8.548,2.833-17.139,5.626-25.532,8.3-40.327,13.224-100.765,32.711-159.772,49.19-47.763,13.312-104.617,27.669-164.151,33.219C1689.234-2601.687,1671.826-2600.824,1654.968-2600.824Zm10.158-13.143a471.888,471.888,0,0,1-67.1-4.606,474.583,474.583,0,0,1-55.915-11.7,667.921,667.921,0,0,1-70.484-24.178c-22.169-8.862-43.62-18.365-67.356-28.975-23.49-10.6-50.86-22.8-78.44-33.5-20.3-7.761-41.146-14.676-61.948-20.552-16.3-4.6-33.232-8.689-50.323-12.155s-34.765-6.389-52.554-8.7c-17.831-2.317-36.237-4.077-54.707-5.233-18.49-1.16-37.591-1.749-56.771-1.749-19.935,0-40.477.636-61.056,1.89-20.621,1.258-41.853,3.171-63.107,5.687-7.529.88-15.222,1.85-22.865,2.885v-1.849c7.609-1.03,15.266-2,22.759-2.873,21.288-2.521,42.562-4.439,63.231-5.7,20.625-1.259,41.209-1.9,61.179-1.9,19.2,0,38.325.59,56.849,1.752s36.956,2.93,54.783,5.251,35.533,5.26,52.637,8.736,34.053,7.583,50.41,12.211c21.009,5.937,41.922,12.9,62.158,20.706,24.677,9.416,49.416,20.419,73.341,31.06l.015.007.008,0,2.417,1.075,2.628,1.169.036.016.021.01c21.716,9.708,44.171,19.747,67.286,29.023,12.375,4.965,23.742,9.234,34.75,13.052,12.406,4.3,24.04,7.929,35.566,11.083a471.6,471.6,0,0,0,55.707,11.542,472.9,472.9,0,0,0,67.284,4.635c14.434,0,29.387-.6,44.445-1.777a709.075,709.075,0,0,0,75.506-10.155c26.428-4.913,55.505-11.563,88.893-20.329,58.763-15.654,116.166-33.8,159.61-47.867,15.823-5.034,32.182-10.3,48.622-15.662l.013-.006c46.893-15.375,100.043-32.8,152.775-48.265,27.74-8.133,53.095-15.074,77.514-21.221,27.446-6.908,52.928-12.621,77.9-17.466,26.551-5.162,52.3-9.365,76.526-12.49,56.2-7.283,115.151-10.824,180.211-10.824,19.987,0,40.958.342,62.33,1.015,21.281.671,43.722,1.7,66.7,3.045,15.832.932,31.605,2,46.884,3.173v1.882c-15.25-1.175-31.049-2.249-46.959-3.191-22.994-1.358-45.452-2.388-66.749-3.062-21.4-.678-42.389-1.021-62.386-1.021-64.889,0-123.684,3.53-179.744,10.791-24.217,3.124-49.964,7.326-76.527,12.489-103.872,20.158-207.567,53.991-307.848,86.711l-.011,0-.009,0c-16.184,5.4-32.535,10.734-48.6,15.844-43.429,14.061-100.838,32.212-159.788,47.9-33.472,8.779-62.609,15.438-89.074,20.358a713.274,713.274,0,0,1-75.689,10.183C1694.866-2614.576,1679.729-2613.967,1665.126-2613.967Zm12.333-13.091a522.587,522.587,0,0,1-76.073-5.38,546.586,546.586,0,0,1-55.765-11.9c-20.8-5.7-43.062-13.126-68.052-22.711-21.518-8.254-42.4-17.048-65.516-26.861l-.013-.005-.007,0c-25.973-10.989-55.412-23.443-84.22-33.864-20.776-7.342-41.855-13.783-62.651-19.147-15.884-4.152-32.341-7.833-48.915-10.941-16.556-3.107-33.722-5.736-51.019-7.813-17.269-2.074-35.117-3.651-53.051-4.686s-36.432-1.562-55.01-1.562c-20.916,0-42.5.665-64.146,1.976-21.665,1.31-44.016,3.3-66.433,5.925-7.866.924-15.971,1.953-24.089,3.058v-1.844c8.015-1.089,16.024-2.1,23.8-3.02,22.446-2.627,44.862-4.628,66.626-5.946s43.407-1.985,64.357-1.985c18.609,0,37.148.526,55.1,1.564s35.838,2.618,53.141,4.7,34.512,4.723,51.105,7.844c16.632,3.129,33.115,6.828,48.991,10.994,20.3,5.159,41.446,11.652,62.861,19.3,27.469,9.771,54.483,21.108,84.418,33.842l.014.005c19.875,8.41,42.4,17.942,65.3,26.726,24.982,9.585,47.182,17.016,67.868,22.718a484.14,484.14,0,0,0,55.556,11.752,517.369,517.369,0,0,0,76.084,5.417c11.612,0,23.56-.356,35.513-1.059,48.872-3.1,101.3-11.992,164.98-27.983,46.988-11.747,97.835-26.507,160.019-46.452,19.437-6.173,39.047-12.621,58.011-18.857l.014,0,.01,0c3.405-1.121,7.01-2.306,11.689-3.842l4.954-1.622.01,0c91.5-29.96,186.115-60.94,280.835-80.671,26.666-5.562,52.355-10.13,76.355-13.576,14.993-2.163,30.407-4.078,45.812-5.691,15.46-1.618,31.389-2.984,47.345-4.059,31.929-2.152,65.537-3.243,99.891-3.243,18.345,0,37.409.312,56.662.927,19.191.614,39.086,1.547,59.13,2.774,14.905.908,29.892,1.977,44.544,3.177v1.875c-14.544-1.193-29.556-2.267-44.619-3.189-20.109-1.23-40.044-2.165-59.25-2.78-19.254-.616-38.345-.928-56.745-.928-34.292,0-67.809,1.086-99.62,3.228-15.924,1.072-31.8,2.432-47.2,4.044-15.363,1.607-30.728,3.516-45.668,5.673-24.027,3.446-49.655,8-76.173,13.545-94.722,19.732-189.331,50.709-280.826,80.667l-.01,0-.029.01-4.936,1.615-.7.231-.068.022-.061.02-.043.014c-22.52,7.425-45.808,15.1-68.853,22.421-61.795,19.847-112.642,34.608-160.02,46.453-32.2,8.085-61.106,14.26-88.358,18.878a737.242,737.242,0,0,1-76.983,9.161C1701.278-2627.422,1689.2-2627.059,1677.459-2627.058Zm10.92-13a522.953,522.953,0,0,1-83.663-6.42,476.484,476.484,0,0,1-55.583-11.933c-19.844-5.434-41.177-12.366-65.219-21.191-20.663-7.586-40.811-15.62-63.119-24.581-30.563-12.325-60.518-24.221-90.972-34.286-20.86-6.942-42.194-13.032-63.409-18.1-15.31-3.645-31.179-6.881-47.166-9.619s-32.527-5.057-49.182-6.888c-16.633-1.83-33.833-3.224-51.121-4.142s-35.119-1.383-52.984-1.383c-22.124,0-44.955.712-67.86,2.115-22.992,1.407-46.691,3.547-70.44,6.36-8.247.974-16.712,2.05-25.16,3.2v-1.843c8.386-1.138,16.755-2.2,24.875-3.159,23.8-2.823,47.549-4.969,70.578-6.379,22.972-1.408,45.852-2.122,68-2.122,17.912,0,35.769.467,53.073,1.387s34.531,2.317,51.223,4.154,33.268,4.164,49.306,6.916,31.958,6,47.319,9.666c21.211,5.065,42.545,11.155,63.411,18.1,29.63,9.794,59.356,21.614,88.1,33.044l.04.017.016.006,2.993,1.191.032.012.025.01c20.345,8.172,41.383,16.622,62.971,24.571,24.031,8.85,45.335,15.787,65.13,21.207a560.853,560.853,0,0,0,55.4,11.962,532.719,532.719,0,0,0,83.49,6.282c9.215,0,18.678-.212,28.124-.632,49.014-2.117,101.641-10.1,165.621-25.12,47.671-11.255,98.524-25.6,160.039-45.16,26.648-8.528,53.53-17.388,79.526-25.957l.109-.036.268-.088.11-.036.652-.217,8.136-2.681.274-.09.035-.013.183-.06c40.308-13.368,85.994-28.519,131.378-42.317,23.868-7.256,45.7-13.552,66.729-19.249,23.6-6.394,45.521-11.848,67-16.673,24.871-5.538,50.511-10.41,76.209-14.478,16.061-2.576,32.51-4.858,48.891-6.782,16.416-1.928,33.252-3.555,50.044-4.836s34.088-2.259,51.367-2.9,35.066-.965,52.858-.965c33.761,0,69.173,1.171,105.254,3.479,14.014.89,28.213,1.967,42.2,3.2v1.876c-13.913-1.228-28.136-2.31-42.277-3.214-36.1-2.321-71.547-3.5-105.353-3.5-17.764,0-35.512.324-52.752.963s-34.486,1.612-51.257,2.893-33.566,2.9-49.927,4.826-32.771,4.2-48.761,6.764c-25.769,4.081-51.35,8.942-76.031,14.448-21.5,4.83-43.412,10.284-67,16.674-20.975,5.68-42.8,11.976-66.711,19.246-45.622,13.874-91.119,28.98-131.261,42.307l-.1.031-.081.027-1.614.532-.331.109c-28.541,9.4-58.054,19.129-87.13,28.465-61.779,19.608-112.69,33.966-160.22,45.186-32.143,7.54-60.906,13.208-87.934,17.331a722.905,722.905,0,0,1-78.047,7.848C1707.179-2640.278,1697.642-2640.061,1688.379-2640.061Zm14.571-12.791a575.993,575.993,0,0,1-94.874-7.491,552.325,552.325,0,0,1-55.433-12.143c-40.9-11.1-81.1-26.258-119.983-40.915l-.014-.005-2.54-.957c-15.49-5.937-32.016-12.242-48.795-18.309-18.353-6.636-34.546-12.089-49.505-16.669-21.906-6.667-43.417-12.293-63.934-16.72-14.871-3.23-30.168-6.095-45.467-8.515s-31.085-4.465-46.883-6.079-32.083-2.841-48.421-3.648-33.188-1.214-50.087-1.214c-23.367,0-47.678.781-72.26,2.322-24.545,1.541-50.122,3.885-76.022,6.969-8.535,1-17.36,2.115-26.231,3.31v-1.842c8.716-1.174,17.445-2.274,25.945-3.272,25.858-3.083,51.416-5.427,75.964-6.965s48.828-2.318,72.186-2.318c16.978,0,33.906.412,50.314,1.224,16.383.811,32.739,2.045,48.613,3.668,15.85,1.62,31.677,3.675,47.042,6.107,15.311,2.422,30.651,5.3,45.592,8.541,20.423,4.342,41.995,9.958,64.115,16.692,30.995,9.411,61.938,21.12,91.862,32.444l.011,0,.714.272,1.976.747.635.24.952.36.719.272,1.611.609.009,0,.009,0,.009,0,0,0c39.595,15.021,80.538,30.554,122.325,41.893,18.857,5.117,37.446,9.212,55.25,12.172a561.971,561.971,0,0,0,92.648,7.41c6.259,0,12.657-.1,19.017-.285,50.444-1.492,104.817-8.833,166.228-22.44,47.162-10.394,99.517-24.743,160.058-43.866,31.773-10.128,66.768-21.667,106.986-35.274l.032-.011.066-.022.023-.008c37.449-12.577,79.9-26.833,122.07-39.91,22.181-6.879,42.463-12.876,62.007-18.333,21.978-6.136,42.358-11.41,62.3-16.123,26.638-6.316,52.212-11.612,76.011-15.743,33.662-5.85,68.68-10.308,104.084-13.25s72.011-4.436,108.777-4.436c31.125,0,63.077,1.071,94.969,3.184,13.24.879,26.65,1.95,39.86,3.18v1.833c-13.156-1.217-26.592-2.277-39.936-3.15-32.272-2.14-64.541-3.226-95.908-3.226-36.666,0-73.051,1.483-108.142,4.407-35.255,2.936-70.051,7.4-103.419,13.264-23.78,4.125-49.354,9.421-76.012,15.741-37.276,8.814-77.879,20.075-124.131,34.426-42.363,13.144-84.573,27.335-121.815,39.857l-.012,0-.012,0-.009,0-.1.032-.066.022c-5.457,1.817-11.253,3.75-20,6.673l-.288.1-.1.035c-28.334,9.459-57.632,19.241-86.589,28.473-60.747,19.16-113.162,33.518-160.24,43.894-61.592,13.637-116.144,21.005-166.771,22.526C1714.283-2652.924,1708.564-2652.852,1702.95-2652.852Zm10.629-12.711a590.946,590.946,0,0,1-102.145-8.644c-18.875-3.325-36.957-7.365-55.28-12.353-38.974-10.55-77.506-24.422-114.77-37.837l-.882-.317-.049-.018c-32.8-11.757-69.968-25.083-106.665-35.477-22.525-6.224-44.272-11.377-64.637-15.314-14.213-2.791-28.813-5.262-43.4-7.344-14.616-2.088-29.672-3.851-44.749-5.24s-30.623-2.446-46.2-3.14-31.64-1.045-47.76-1.045c-24.671,0-50.4.824-76.488,2.45-25.976,1.62-53.153,4.09-80.778,7.341-8.966,1.07-18.143,2.24-27.275,3.476v-1.846c9.167-1.239,18.247-2.394,26.988-3.435,27.7-3.266,54.982-5.749,81.091-7.379,26.158-1.635,51.971-2.463,76.72-2.463,16.1,0,32.171.351,47.756,1.043s31.139,1.75,46.194,3.136,30.1,3.142,44.746,5.228c14.589,2.078,29.194,4.543,43.411,7.326,22.961,4.557,44.778,9.761,64.845,15.467,34.905,9.886,69.076,21.994,106.925,35.648,40.888,14.718,77.8,27.737,115.443,38,18.728,5.1,36.751,9.148,55.1,12.38a608.065,608.065,0,0,0,102.249,8.513c3.066,0,6.18-.022,9.254-.067,51.447-.577,106.088-6.99,167.047-19.607,49.12-10.222,101.541-24.157,160.26-42.6,41.844-13.2,83.853-27.5,123.3-41.007l4.687-1.59.043-.015c73.01-24.781,148.5-50.4,224.156-69.454,26.7-6.7,52.22-12.364,75.839-16.825,17.626-3.323,35.655-6.275,53.587-8.773,17.952-2.5,36.283-4.618,54.483-6.288,18.251-1.675,36.847-2.948,55.271-3.785,18.468-.84,37.292-1.266,55.95-1.266,29.112,0,58.766,1.036,88.139,3.081,12.517.858,25.14,1.9,37.519,3.109v1.707c-12.434-1.216-25.092-2.27-37.623-3.133-29.113-1.977-58.452-2.979-87.2-2.979-18.7,0-37.571.425-56.075,1.262s-37.125,2.108-55.386,3.781c-18.245,1.67-36.62,3.786-54.616,6.291s-36.094,5.468-53.76,8.8c-23.437,4.428-48.893,10.08-75.658,16.8-75.989,19.135-151.734,44.874-224.986,69.765l-.012,0-.008,0-.034.012-3.667,1.246-.048.017-.014,0-.075.026-.008,0c-35.893,12.265-80.563,27.53-123.36,40.805-59.925,18.823-112.4,32.826-160.411,42.81-61.056,12.638-115.758,19.061-167.23,19.636C1720.04-2665.588,1716.76-2665.562,1713.579-2665.562Zm15.431-12.447h-.066c-19.665,0-39.235-.848-58.167-2.52-18.841-1.664-37.676-4.2-55.983-7.539-55.4-10.022-109.565-28.494-161.949-46.357l-.777-.265-.619-.21-1.034-.351-1.027-.349-1.879-.637c-36.438-12.364-74.115-25.148-111.92-34.809-19.1-4.93-38.864-9.268-58.75-12.892-19.245-3.509-39.161-6.45-59.2-8.742-19.336-2.212-39.356-3.883-59.5-4.967-19.384-1.043-39.46-1.572-59.672-1.572-16.008,0-32.546.332-49.154.987-15.946.628-32.464,1.577-49.1,2.821-31.026,2.319-63.9,5.783-97.719,10.3v-1.912c33.75-4.492,66.574-7.941,97.56-10.251,16.567-1.234,33.059-2.178,49.019-2.807,16.57-.651,33.081-.981,49.074-.981,20.276,0,40.418.531,59.865,1.578,20.208,1.088,40.293,2.765,59.7,4.985,20.105,2.3,40.086,5.255,59.39,8.776,19.95,3.639,39.784,7.993,58.949,12.942,17.645,4.508,36.89,10.1,58.835,17.112,19.968,6.376,39.974,13.209,57.625,19.238l.017.006.008,0,.007,0,.125.043.019.006c24.477,8.345,52.22,17.8,80.067,26.146,14.629,4.381,28.035,8.09,40.987,11.337,14.543,3.648,28.122,6.62,41.515,9.085,18.634,3.413,37.969,5.987,57.467,7.65,18.551,1.584,37.764,2.387,57.107,2.387,14.474,0,29.4-.45,44.352-1.337,14.254-.845,28.948-2.111,43.674-3.765,13.98-1.571,28.38-3.534,42.8-5.835,13.639-2.177,27.677-4.716,41.723-7.544,46.357-9.33,94.706-22.048,152.159-40.024,43.892-13.58,87.992-28.863,130.64-43.643l.006,0,.105-.036.009,0,.1-.035,1.984-.688.512-.178.8-.278.232-.081,1.278-.443.851-.3,2.03-.7.008,0,.005,0,.025-.009c46.133-16,93.837-32.54,142.218-47.537,25.971-8.05,49.712-14.911,72.578-20.974,25.756-6.834,49.755-12.492,73.368-17.3,18.367-3.742,37.115-7.064,55.721-9.872,18.545-2.8,37.449-5.166,56.186-7.032,18.679-1.863,37.689-3.279,56.5-4.21,18.751-.929,37.817-1.4,56.667-1.4,19.168,0,38.6.487,57.762,1.448s38.535,2.418,57.628,4.334l.836.084.209.021.7.07v1.893l-1.8-.183-.135-.014-.173-.017c-19.056-1.915-38.424-3.373-57.566-4.332s-38.544-1.448-57.695-1.448c-18.817,0-37.84.469-56.542,1.4-18.762.927-37.727,2.341-56.366,4.2-18.7,1.864-37.56,4.224-56.05,7.016-18.566,2.8-37.271,6.117-55.594,9.852-23.566,4.8-47.53,10.453-73.261,17.283-22.887,6.074-46.6,12.931-72.5,20.964-48.577,15.064-96.094,31.559-142.045,47.511l-.03.011-5.593,1.936-.028.01-.009,0c-43.448,15.057-88.375,30.627-132.924,44.435-82.074,25.623-153.567,42.275-218.562,50.91-18.674,2.53-37.176,4.452-54.99,5.711S1746.124-2678.01,1729.01-2678.01Z" transform="translate(-902.5 3121.999)" fill="#fff"/>
  </g>
</svg>
