<svg xmlns="http://www.w3.org/2000/svg" width="40" height="40" viewBox="0 0 40 40">
  <g id="Guardrails_Icon" transform="translate(-102 -102)">
    <g id="Bg" transform="translate(102 102)" fill="#fff" stroke="#707070" stroke-width="1" opacity="0">
      <rect width="40" height="40" stroke="none"/>
      <rect x="0.5" y="0.5" width="39" height="39" fill="none"/>
    </g>
    <g id="album" transform="translate(105.741 105.755)">
      <path id="Path_153340" data-name="Path 153340" d="M11.609,6.25H20.9c5.011,0,7.526,0,9.159,1.765,1.662,1.794,1.305,4.328.658,8.912l-.591,4.189c-.51,3.609-.789,5.6-2.354,6.893-1.543,1.278-3.646,1.278-7.463,1.278h-8.1c-3.817,0-5.92,0-7.463-1.278-1.565-1.3-1.846-3.284-2.354-6.893L1.8,16.927c-.646-4.589-1-7.121.658-8.912C4.084,6.25,6.6,6.25,11.609,6.25Zm8.7,20.943c3.439,0,5.166,0,6.128-.8.9-.748,1.135-2.161,1.615-5.571l.591-4.189c.614-4.363.827-6.174-.121-7.2C27.511,8.347,25.3,8.347,20.9,8.347h-9.29c-4.4,0-6.61,0-7.623,1.093-.948,1.023-.736,2.834-.121,7.2l.591,4.189c.48,3.41.712,4.824,1.617,5.572.962.8,2.688.8,6.128.8Z" transform="translate(0 1.983)" fill="#5a3ed9"/>
      <path id="Path_153341" data-name="Path 153341" d="M26.894,8.468l-2.062-.362a1.93,1.93,0,0,0-1.9-2.262H7.68a1.93,1.93,0,0,0-1.9,2.263l-2.062.36A4.024,4.024,0,0,1,7.68,3.75H22.932a4.024,4.024,0,0,1,3.962,4.718Z" transform="translate(0.95 0.992)" fill="#5a3ed9"/>
      <path id="Path_153342" data-name="Path 153342" d="M23.213,5.9l-2.082-.228c.034-.3.053-.487.053-.579a1.741,1.741,0,0,0-1.56-1.74c-.094-.01-.279-.01-.582-.01h-9.1c-.306,0-.49,0-.582.01A1.741,1.741,0,0,0,7.8,5.091c0,.094.021.279.053.579L5.773,5.9a7.7,7.7,0,0,1-.066-.8A3.831,3.831,0,0,1,9.138,1.27a7.7,7.7,0,0,1,.806-.022h9.1a7.7,7.7,0,0,1,.806.022A3.831,3.831,0,0,1,23.28,5.1a7.667,7.667,0,0,1-.067.808Z" transform="translate(1.762)" fill="#5a3ed9"/>
      <path id="Ellipse_57" data-name="Ellipse 57" d="M2.392-.75A3.142,3.142,0,1,1-.75,2.392,3.142,3.142,0,0,1,2.392-.75Zm0,4.189A1.047,1.047,0,1,0,1.344,2.392,1.047,1.047,0,0,0,2.392,3.439Z" transform="translate(20.147 13.172)" fill="#5a3ed9"/>
      <path id="Path_153343" data-name="Path 153343" d="M26.936,23.722a1.043,1.043,0,0,1-.624-.208l-4.027-3a3.315,3.315,0,0,0-3.51-.166l-.373.216a3.918,3.918,0,0,1-4.4-.328L8.646,15.8A2.274,2.274,0,0,0,6,15.734L4.156,17.073a1.047,1.047,0,0,1-1.229-1.7l1.849-1.339a4.362,4.362,0,0,1,5.205.149l5.359,4.439a1.864,1.864,0,0,0,2.009.131l.373-.216a5.417,5.417,0,0,1,5.814.3l4.027,3a1.047,1.047,0,0,1-.626,1.885Z" transform="translate(0.489 4.756)" fill="#5a3ed9"/>
    </g>
  </g>
</svg>
