<svg xmlns="http://www.w3.org/2000/svg" xmlns:xlink="http://www.w3.org/1999/xlink" width="350.918" height="350.918" viewBox="0 0 350.918 350.918">
  <defs>
    <linearGradient id="linear-gradient" x1="0.616" y1="0.089" x2="0.867" y2="0.873" gradientUnits="objectBoundingBox">
      <stop offset="0" stop-color="#1921a8"/>
      <stop offset="1" stop-color="#d313d6"/>
    </linearGradient>
  </defs>
  <g id="HalfCircle_Full" transform="matrix(0.616, 0.788, -0.788, 0.616, 1286.874, -2958.071)">
    <path id="Path_194061" data-name="Path 194061" d="M125,0A125,125,0,1,1,0,125,125,125,0,0,1,125,0Z" transform="translate(1660 2680)" fill="#ebebeb" opacity="0"/>
    <path id="Path_194063" data-name="Path 194063" d="M-9302,3130a125.916,125.916,0,0,1-25.191-2.54,124.337,124.337,0,0,1-23.464-7.283,125.011,125.011,0,0,1-21.234-11.525,125.937,125.937,0,0,1-18.5-15.263,125.9,125.9,0,0,1-15.264-18.5,124.986,124.986,0,0,1-11.524-21.232,124.356,124.356,0,0,1-7.283-23.463A125.877,125.877,0,0,1-9427,3005a125.89,125.89,0,0,1,2.54-25.192,124.352,124.352,0,0,1,7.283-23.464,125,125,0,0,1,11.524-21.233,125.984,125.984,0,0,1,15.264-18.5,125.978,125.978,0,0,1,18.5-15.263,125.012,125.012,0,0,1,21.234-11.525,124.337,124.337,0,0,1,23.464-7.283A125.916,125.916,0,0,1-9302,2880h.5v50l-.5,0a75.086,75.086,0,0,0-75,75,75.084,75.084,0,0,0,75,75l.5,0v50h-.5Z" transform="translate(11087 -200)" fill="url(#linear-gradient)"/>
  </g>
</svg>
