<svg xmlns="http://www.w3.org/2000/svg" width="517.214" height="534.04" viewBox="0 0 517.214 534.04">
  <path id="Path_183429" data-name="Path 183429" d="M1815.865,3083.515h-99.948a52.075,52.075,0,0,1-1.989-14.29c0-.457.005-.882.016-1.3h-.016a137.851,137.851,0,0,0-10.941-54.055,139.7,139.7,0,0,0-74.006-74.006,137.758,137.758,0,0,0-54.053-10.941c-76.646,0-139,62.356-139,139H1332a244.781,244.781,0,0,1,4.936-48.96,241.54,241.54,0,0,1,36.553-86.864,243.6,243.6,0,0,1,106.881-88.013,241.439,241.439,0,0,1,45.6-14.153,245.235,245.235,0,0,1,97.915,0,241.563,241.563,0,0,1,86.865,36.551,243.618,243.618,0,0,1,88.012,106.88,241.7,241.7,0,0,1,14.156,45.6,244.808,244.808,0,0,1,4.934,48.958v0l-.015,0c.013.446.017.872.017,1.3a52.059,52.059,0,0,1-1.989,14.288Z" transform="translate(-2990.667 -539.365) rotate(-48)" fill="#fff"/>
</svg>
