<svg xmlns="http://www.w3.org/2000/svg" width="40" height="40" viewBox="0 0 40 40">
  <g id="ModelBuilder_Icon" transform="translate(-102 -102)">
    <g id="Bg" transform="translate(102 102)" fill="#fff" stroke="#707070" stroke-width="1" opacity="0">
      <rect width="40" height="40" stroke="none"/>
      <rect x="0.5" y="0.5" width="39" height="39" fill="none"/>
    </g>
    <path id="appstore" d="M20.859,16.891a1.172,1.172,0,1,1-1.172-1.172A1.172,1.172,0,0,1,20.859,16.891Zm-1.172,3.516a1.172,1.172,0,1,0,1.172,1.172A1.172,1.172,0,0,0,19.688,20.407Zm9.141.469A1.172,1.172,0,0,0,30,19.7V9.157a1.172,1.172,0,0,0-1.172-1.172H21.445V6.7a6.445,6.445,0,0,0-12.891,0V7.985H1.172A1.172,1.172,0,0,0,0,9.157V25.563a4.693,4.693,0,0,0,4.688,4.688H25.313A4.693,4.693,0,0,0,30,25.563a1.172,1.172,0,1,0-2.344,0,2.346,2.346,0,0,1-2.344,2.344H4.688a2.346,2.346,0,0,1-2.344-2.344V10.329H9.727A1.172,1.172,0,0,0,10.9,9.157V6.7a4.1,4.1,0,0,1,8.2,0V7.985H14.414a1.172,1.172,0,0,0,0,2.344H27.656V19.7A1.172,1.172,0,0,0,28.828,20.876ZM15,20.407a1.172,1.172,0,1,0,1.172,1.172A1.172,1.172,0,0,0,15,20.407Zm-4.687,0a1.172,1.172,0,1,0,1.172,1.172A1.172,1.172,0,0,0,10.313,20.407Zm0-4.688a1.172,1.172,0,1,0,1.172,1.172A1.172,1.172,0,0,0,10.313,15.719Zm4.688,0a1.172,1.172,0,1,0,1.172,1.172A1.172,1.172,0,0,0,15,15.719Z" transform="translate(107 106.716)" fill="#421ad5"/>
  </g>
</svg>
