<svg xmlns="http://www.w3.org/2000/svg" xmlns:xlink="http://www.w3.org/1999/xlink" width="100" height="100" viewBox="0 0 100 100">
  <defs>
    <linearGradient id="linear-gradient" x1="0.902" y1="0.227" x2="0.614" y2="0.171" gradientUnits="objectBoundingBox">
      <stop offset="0" stop-color="#fb2cfe"/>
      <stop offset="1" stop-color="#892fc1"/>
    </linearGradient>
    <linearGradient id="linear-gradient-2" x1="0.85" y1="0.15" x2="0.5" y2="0.2" gradientUnits="objectBoundingBox">
      <stop offset="0" stop-color="#bc3dfb"/>
      <stop offset="1" stop-color="#952ec7"/>
    </linearGradient>
    <linearGradient id="linear-gradient-3" x1="0.611" y1="0.147" x2="0.235" y2="0.41" gradientUnits="objectBoundingBox">
      <stop offset="0" stop-color="#896eeb"/>
      <stop offset="1" stop-color="#593acb"/>
    </linearGradient>
    <linearGradient id="linear-gradient-4" x1="0.544" y1="0.688" x2="0.352" y2="0.296" gradientUnits="objectBoundingBox">
      <stop offset="0" stop-color="#1922a8"/>
      <stop offset="1" stop-color="#081066"/>
    </linearGradient>
  </defs>
  <g id="Logo" transform="translate(-313.946 -258.978)">
    <rect id="Rectangle_6100" data-name="Rectangle 6100" width="100" height="100" transform="translate(313.946 258.978)" fill="#fff" opacity="0"/>
    <g id="Group_157204" data-name="Group 157204" transform="translate(-6.571 -7.143)">
      <g id="Icon" transform="translate(322.518 266.12)">
        <path id="Path_155035" data-name="Path 155035" d="M11744.252,8880.979h0c-.2-.171-.407-.357-.645-.572a57.337,57.337,0,0,1-7.759-8.545,56.91,56.91,0,0,1-9.4-20.036,57.541,57.541,0,0,1-1.139-21.777,56.895,56.895,0,0,1,44.861-47.881,57.781,57.781,0,0,1,11.637-1.188h0a57.233,57.233,0,0,1,20.1,3.641,56.7,56.7,0,0,1,18.056,10.988l.636.584-16.153,17.938c-.251-.194-.509-.408-.764-.636l-.046-.04-.034-.032c-.057-.056-.109-.1-.154-.15l-.007.007a33.715,33.715,0,0,0-11.637-6.875,34.056,34.056,0,0,0-11.147-1.862c-.593,0-1.194.019-1.793.048a34.159,34.159,0,0,0-12.677,3.159c-.7.327-1.385.677-2.037,1.038s-1.328.766-2,1.2a33.756,33.756,0,0,0-5.149,4.1c-.552.526-1.1,1.1-1.639,1.694a34.465,34.465,0,0,0-5.833,8.972,33.5,33.5,0,0,0-2.823,11.069,34.307,34.307,0,0,0,.089,6.451,33.9,33.9,0,0,0,3.792,12.355c.405.76.863,1.541,1.362,2.319a33.828,33.828,0,0,0,6.908,7.813l-14.6,16.22Z" transform="translate(-11724.756 -8780.979)" fill="url(#linear-gradient)"/>
        <path id="Path_155036" data-name="Path 155036" d="M11744.25,8881.045v0c-.23-.2-.442-.389-.643-.571a57.344,57.344,0,0,1-7.759-8.546,56.9,56.9,0,0,1-9.4-20.035,57.543,57.543,0,0,1-1.139-21.776,56.855,56.855,0,0,1,42.484-47.335,57.537,57.537,0,0,1,10.771-1.644,13.4,13.4,0,0,1,1.572.943,12.649,12.649,0,0,1,5.236,8.221,12.528,12.528,0,0,1-.326,5.82,12.856,12.856,0,0,1-2.752,4.917,12.681,12.681,0,0,1-7.253,4.017c-.082.015-.174.029-.312.051l0,0a33.943,33.943,0,0,0-17.734,9.044c-.538.519-1.087,1.09-1.634,1.7a35.322,35.322,0,0,0-2.608,3.277,34.627,34.627,0,0,0-3.225,5.692,34.163,34.163,0,0,0-2.092,6.243,33.979,33.979,0,0,0,11.418,33.765l-14.6,16.221Z" transform="translate(-11724.756 -8781.045)" fill="url(#linear-gradient-2)"/>
        <path id="Path_155037" data-name="Path 155037" d="M11744.252,8894.221h0c-.216-.187-.428-.375-.645-.573a57.023,57.023,0,0,1-4.225-80.576c.05-.054.1-.106.146-.16.3-.06.6-.109.9-.147a13.131,13.131,0,0,1,1.6-.1,12.731,12.731,0,0,1,10.55,19.855c-.059.087-.1.147-.134.2l-.046.065v0a33.855,33.855,0,0,0-5.811,19.038,34.3,34.3,0,0,0,5.519,18.624,33.882,33.882,0,0,0,6.738,7.568l-14.593,16.207Z" transform="translate(-11724.756 -8794.222)" fill="url(#linear-gradient-3)"/>
        <path id="Path_155038" data-name="Path 155038" d="M11744.259,8919.384h0c-.215-.187-.427-.374-.646-.571a57.34,57.34,0,0,1-8.036-8.928,56.668,56.668,0,0,1-5.831-10.1,57.272,57.272,0,0,1-4.97-22.214c.137-.168.275-.333.412-.485a12.652,12.652,0,0,1,7.029-3.976,12.858,12.858,0,0,1,2.44-.235,12.715,12.715,0,0,1,12.489,10.31l.03.146.029.169,0,0a33.753,33.753,0,0,0,5.158,12.492,34.2,34.2,0,0,0,4.192,5.081c.729.725,1.5,1.431,2.3,2.095l-14.6,16.218Z" transform="translate(-11724.765 -8819.386)" fill="url(#linear-gradient-4)"/>
      </g>
      <g id="Text" transform="translate(352.234 297.565)">
        <path id="O" d="M26.193,10.477A15.716,15.716,0,1,0,41.909,26.193,15.734,15.734,0,0,0,26.193,10.477M26.193,0A26.193,26.193,0,1,1,0,26.193,26.193,26.193,0,0,1,26.193,0Z" transform="translate(0 0)" fill="#0b1370"/>
      </g>
    </g>
  </g>
</svg>
