<svg xmlns="http://www.w3.org/2000/svg" xmlns:xlink="http://www.w3.org/1999/xlink" width="259.857" height="80" viewBox="0 0 259.857 80">
  <defs>
    <linearGradient id="linear-gradient" x1="0.902" y1="0.227" x2="0.614" y2="0.171" gradientUnits="objectBoundingBox">
      <stop offset="0" stop-color="#fb2cfe"/>
      <stop offset="1" stop-color="#892fc1"/>
    </linearGradient>
    <linearGradient id="linear-gradient-2" x1="0.85" y1="0.15" x2="0.5" y2="0.2" gradientUnits="objectBoundingBox">
      <stop offset="0" stop-color="#bc3dfb"/>
      <stop offset="1" stop-color="#952ec7"/>
    </linearGradient>
    <linearGradient id="linear-gradient-3" x1="0.611" y1="0.147" x2="0.235" y2="0.41" gradientUnits="objectBoundingBox">
      <stop offset="0" stop-color="#896eeb"/>
      <stop offset="1" stop-color="#593acb"/>
    </linearGradient>
    <linearGradient id="linear-gradient-4" x1="0.544" y1="0.688" x2="0.352" y2="0.296" gradientUnits="objectBoundingBox">
      <stop offset="0" stop-color="#1922a8"/>
      <stop offset="1" stop-color="#081066"/>
    </linearGradient>
  </defs>
  <g id="Logo" transform="translate(-319.946 -263.978)">
    <g id="Icon" transform="translate(319.946 263.978)">
      <path id="Path_155035" data-name="Path 155035" d="M11740.353,8860.978h0c-.16-.138-.326-.286-.517-.458a45.8,45.8,0,0,1-6.205-6.836,45.255,45.255,0,0,1-4.581-7.71,45.763,45.763,0,0,1-4.232-16.985,46.272,46.272,0,0,1,.376-8.755,45.6,45.6,0,0,1,45.2-39.255h0a45.749,45.749,0,0,1,16.078,2.912,45.28,45.28,0,0,1,14.442,8.791c.163.148.331.3.51.467l-12.922,14.35c-.2-.155-.406-.327-.612-.51l-.035-.031-.026-.025c-.047-.045-.087-.081-.126-.119l0,0a26.978,26.978,0,0,0-9.31-5.5,27.594,27.594,0,0,0-5.124-1.229,27.906,27.906,0,0,0-3.794-.26c-.474,0-.955.014-1.435.037a27.3,27.3,0,0,0-10.14,2.527c-.561.262-1.11.541-1.63.831s-1.063.611-1.6.961a27.043,27.043,0,0,0-4.119,3.278c-.441.422-.881.879-1.311,1.355a27.667,27.667,0,0,0-4.666,7.178,26.7,26.7,0,0,0-1.354,3.75,27.2,27.2,0,0,0-.905,5.1,27.53,27.53,0,0,0,.071,5.161,27.088,27.088,0,0,0,3.032,9.884c.324.608.692,1.233,1.09,1.855a27.12,27.12,0,0,0,5.527,6.25l-11.683,12.977Z" transform="translate(-11724.755 -8780.979)" fill="url(#linear-gradient)"/>
      <path id="Path_155036" data-name="Path 155036" d="M11740.351,8861.063v0c-.185-.161-.354-.312-.515-.457a45.754,45.754,0,0,1-6.205-6.837,45.2,45.2,0,0,1-4.581-7.708,45.774,45.774,0,0,1-4.232-16.986,46.279,46.279,0,0,1,.376-8.755,45.583,45.583,0,0,1,42.605-39.182,10.394,10.394,0,0,1,1.259.755,10.126,10.126,0,0,1,4.189,6.576,10.046,10.046,0,0,1-.261,4.656,10.3,10.3,0,0,1-2.2,3.934,10.148,10.148,0,0,1-5.8,3.214c-.065.012-.138.022-.25.04l0,0a27.141,27.141,0,0,0-14.188,7.235c-.431.415-.871.872-1.308,1.356a27.356,27.356,0,0,0-6.341,12.17,27.2,27.2,0,0,0,9.135,27.012l-11.681,12.977Z" transform="translate(-11724.755 -8781.063)" fill="url(#linear-gradient-2)"/>
      <path id="Path_155037" data-name="Path 155037" d="M11740.353,8877.908v0c-.172-.15-.342-.3-.517-.458a45.713,45.713,0,0,1-6.205-6.838,45.23,45.23,0,0,1-4.581-7.707,45.6,45.6,0,0,1,7.408-49.916l.116-.129c.239-.046.478-.087.716-.118a10.6,10.6,0,0,1,1.283-.08,10.187,10.187,0,0,1,8.439,15.887c-.046.068-.078.116-.106.154l-.035.055h0a27.029,27.029,0,0,0-4.148,9.984,27.467,27.467,0,0,0,1.484,15.473,27.64,27.64,0,0,0,2.429,4.674,27.1,27.1,0,0,0,5.39,6.054l-11.673,12.968Z" transform="translate(-11724.755 -8797.908)" fill="url(#linear-gradient-3)"/>
      <path id="Path_155038" data-name="Path 155038" d="M11740.36,8910.082h0c-.17-.151-.34-.3-.516-.457a46.036,46.036,0,0,1-6.43-7.143,45.514,45.514,0,0,1-7.548-16.793,46.079,46.079,0,0,1-1.092-9.056c.11-.136.222-.268.331-.389a10.116,10.116,0,0,1,5.622-3.181,10.386,10.386,0,0,1,1.953-.187,10.146,10.146,0,0,1,5.69,1.745,10.147,10.147,0,0,1,4.3,6.5l.023.118.022.134h0a27.109,27.109,0,0,0,7.482,14.058c.582.58,1.2,1.145,1.838,1.675l-11.684,12.976Z" transform="translate(-11724.766 -8830.085)" fill="url(#linear-gradient-4)"/>
    </g>
    <g id="Text" transform="translate(343.72 289.133)">
      <path id="A" d="M12226.63,8936.393a9.781,9.781,0,0,1,1.154-4.867,8.476,8.476,0,0,1,3.232-3.166,15.577,15.577,0,0,1,4.9-1.691,49.934,49.934,0,0,1,6.268-.709l4.727-.041.1-.8a8.061,8.061,0,0,0,.1-2.368,3,3,0,0,0-.665-1.614,4.9,4.9,0,0,0-3.445-1.122c-1.477-.05-4.28.334-4.971,2.951h-8.4c1.069-3.313,2.521-5.595,4.511-7.019a13.14,13.14,0,0,1,4.1-1.828,22.188,22.188,0,0,1,5.158-.489c4.839,0,8.317,1.185,10.336,3.523,1.816,2.1,2.42,5.106,1.8,8.941l-1.431,8.982c-.637,3.885-1.155,6.933-1.542,9.666h-8.191c.264-1.617.372-2.024.523-3.361a11.185,11.185,0,0,1-3.088,2.211,10.861,10.861,0,0,1-5.389,1.336C12230.473,8944.924,12226.63,8941.573,12226.63,8936.393Zm10.3-3.984a3.245,3.245,0,0,0-1.659,3.137,3.029,3.029,0,0,0,.964,2.306,4.334,4.334,0,0,0,2.986.972,6.731,6.731,0,0,0,4.249-1.377,5.983,5.983,0,0,0,2.165-3.91v-.006l.4-2.261h-3.62A11.221,11.221,0,0,0,12236.934,8932.408Z" transform="translate(-12019.689 -8903.365)" fill="#fff"/>
      <path id="R" d="M11843.051,8937.718h0c2.721-17.254,4.574-27.15,5.119-30.827h9.025c-.393,2.38-.234,1.474-.48,2.925,1.633-1.866,3.914-2.859,10.023-2.842.516,0,1.141-.016,1.729,0a15.469,15.469,0,0,0-1.623,1.585,20.966,20.966,0,0,0-2.973,4.066,21.333,21.333,0,0,0-1.52,3.405,9.569,9.569,0,0,0-5.191.645c-2.217,1.358-2.383,4.643-2.844,7.554l-2.273,13.489Z" transform="translate(-11655.321 -8896.666)" fill="#fff"/>
      <path id="T" d="M12136.156,8936.357c-1.551-1.821-2.057-4.507-1.5-7.978l2.283-14.341h-3.9l1-6.461a6.452,6.452,0,0,0,4.07-1.739c1.486-1.646,1.875-4.837,1.875-4.837h8.045l-1.178,6.576h6.885l-1.264,6.461h-6.592l-2.33,14.239a3.517,3.517,0,0,0,.369,2.844,2.883,2.883,0,0,0,2.311.729,8.84,8.84,0,0,0,3.117-.564l.377-.148-1.131,7.049-.123.05a13.077,13.077,0,0,1-4.861.832C12140.2,8939.068,12137.691,8938.155,12136.156,8936.357Z" transform="translate(-11963.27 -8897.508)" fill="#fff"/>
      <path id="C" d="M12064.706,8942.139a13.581,13.581,0,0,1-4.2-10.4,21,21,0,0,1,1.3-7.5,16.313,16.313,0,0,1,3.577-5.666,15.5,15.5,0,0,1,5.363-3.578,17.673,17.673,0,0,1,6.641-1.244,19.067,19.067,0,0,1,5.279.692,12.447,12.447,0,0,1,4.31,2.166,10.491,10.491,0,0,1,2.967,3.757,14.122,14.122,0,0,1,1.242,5.423l.007.242h-8.366l-.022-.207a5.587,5.587,0,0,0-1.743-3.927,5.954,5.954,0,0,0-3.906-1.1,6.662,6.662,0,0,0-5.672,3.028,14.025,14.025,0,0,0-2.069,7.974,8.169,8.169,0,0,0,1.61,5.451,6.3,6.3,0,0,0,5.022,1.941,6.461,6.461,0,0,0,4.232-1.445,6.214,6.214,0,0,0,1.445-1.773,8.218,8.218,0,0,0,.848-2.471l.035-.189h8.09l-.041.267a16.14,16.14,0,0,1-1.678,5.233,12.728,12.728,0,0,1-3.162,3.868,13.446,13.446,0,0,1-4.47,2.39,18.345,18.345,0,0,1-5.588.814C12071.22,8945.881,12067.4,8944.585,12064.706,8942.139Z" transform="translate(-11922.264 -8904.437)" fill="#fff"/>
      <path id="E" d="M11992.123,8942.337a11.843,11.843,0,0,1-3.126-4.317,14.935,14.935,0,0,1-1.116-5.885,21.525,21.525,0,0,1,1.293-7.53,17.36,17.36,0,0,1,3.58-5.848,15.886,15.886,0,0,1,5.408-3.787,17.2,17.2,0,0,1,6.772-1.345c4.775,0,8.586,1.5,11.021,4.341a11.945,11.945,0,0,1,2.556,5.268,19.427,19.427,0,0,1,.1,7.132v0l-.267,1.533h-21.674v.641a7.438,7.438,0,0,0,1.5,4.99,6.235,6.235,0,0,0,4.961,1.876,7.274,7.274,0,0,0,4.112-1.079,5.567,5.567,0,0,0,2.184-3.008l.054-.162h8.438l-.068.289a13.571,13.571,0,0,1-1.982,4.525,12.424,12.424,0,0,1-3.316,3.268,14.743,14.743,0,0,1-4.4,1.971,20.144,20.144,0,0,1-5.253.658C11998.5,8945.871,11994.773,8944.65,11992.123,8942.337Zm10.437-22.062a6.8,6.8,0,0,0-2.106,1.156,9.652,9.652,0,0,0-3,4.824h12.859a9.53,9.53,0,0,0-.179-2.791,4.588,4.588,0,0,0-1.054-2.092,4.158,4.158,0,0,0-1.687-1.084,7.54,7.54,0,0,0-2.511-.377A7.357,7.357,0,0,0,12002.56,8920.275Z" transform="translate(-11882.234 -8904.313)" fill="#fff"/>
      <path id="P" d="M11851.854,8942.966H11843l4.93-31.408c.229-1.4.448-2.7.642-3.851l.013-.084c.4-2.4.753-4.467,1-6.4h8.484c-.181,1.11-.206,1.281-.348,2.228l0,.029c-.025.164-.054.352-.085.571l-.018.116.041-.029a13.521,13.521,0,0,1,3.5-2.123,18.4,18.4,0,0,1,6.447-1.016,11.84,11.84,0,0,1,4.625.9,10.459,10.459,0,0,1,3.7,2.622c2.171,2.4,3.32,5.831,3.32,9.926a23.542,23.542,0,0,1-1.056,7.264,18.014,18.014,0,0,1-3.077,5.942,13.851,13.851,0,0,1-4.782,3.868,14.009,14.009,0,0,1-6.188,1.38,13.774,13.774,0,0,1-3.7-.486,10.787,10.787,0,0,1-2.937-1.306l-.123-.078a10.294,10.294,0,0,1-3.2-2.729Zm13.582-35.585a7.14,7.14,0,0,0-2.517.471,8.542,8.542,0,0,0-2.323,1.333,10.448,10.448,0,0,0-3.324,4.8,11.55,11.55,0,0,0-.634,3.627,9.981,9.981,0,0,0,.531,3.368,6.82,6.82,0,0,0,4.153,4.405,6.249,6.249,0,0,0,2.04.34c3.448,0,6.348-2.778,7.718-6.755a10.657,10.657,0,0,0,.131-6.916c-.737-2.126-1.736-3.662-3.66-4.323A6.471,6.471,0,0,0,11865.436,8907.381Z" transform="translate(-11775.519 -8891.688)" fill="#fff"/>
      <path id="S" d="M11850.667,8945.211a11.925,11.925,0,0,1-4.142-2.079,9.023,9.023,0,0,1-2.6-3.307,10.637,10.637,0,0,1-.922-4.372v-.234h8.309l.016.217a4.148,4.148,0,0,0,1.214,2.914,4.019,4.019,0,0,0,1.544.856,8.211,8.211,0,0,0,2.422.319,5.325,5.325,0,0,0,3.233-.812,2.721,2.721,0,0,0,1.016-2.331,2.112,2.112,0,0,0-1.023-1.989,13.971,13.971,0,0,0-4.321-1.45c-3.58-.759-5.979-1.777-7.545-3.207a6.753,6.753,0,0,1-1.789-2.593,9.193,9.193,0,0,1-.57-3.392,9.063,9.063,0,0,1,3.725-7.582,12.392,12.392,0,0,1,4.016-1.909,18.2,18.2,0,0,1,5.066-.638c3.641,0,6.546.758,8.638,2.247a9.28,9.28,0,0,1,3.758,7.4l.016.245h-8.144l-.02-.214a3.471,3.471,0,0,0-1.27-2.458,5,5,0,0,0-3.213-1,5.37,5.37,0,0,0-3.146.787,2.469,2.469,0,0,0-1.045,2.125,2.014,2.014,0,0,0,1.1,1.867,13.789,13.789,0,0,0,4.016,1.338,30.57,30.57,0,0,1,4.639,1.31,11.187,11.187,0,0,1,3.276,1.862c1.753,1.5,2.569,3.564,2.569,6.483a9.887,9.887,0,0,1-.973,4.428,9,9,0,0,1-2.735,3.238c-2.323,1.728-5.629,2.637-9.562,2.637A20.055,20.055,0,0,1,11850.667,8945.211Z" transform="translate(-11801.094 -8904.774)" fill="#fff"/>
      <path id="O" d="M20.954,8.382A12.573,12.573,0,1,0,33.527,20.954,12.587,12.587,0,0,0,20.954,8.382m0-8.382A20.954,20.954,0,1,1,0,20.954,20.954,20.954,0,0,1,20.954,0Z" transform="translate(0 0)" fill="#fff"/>
    </g>
  </g>
</svg>
