<svg xmlns="http://www.w3.org/2000/svg" xmlns:xlink="http://www.w3.org/1999/xlink" width="600" height="500" viewBox="0 0 600 500">
  <defs>
    <linearGradient id="linear-gradient" x1="0.202" y1="0.77" x2="0.558" y2="0.38" gradientUnits="objectBoundingBox">
      <stop offset="0" stop-color="#0b1370"/>
      <stop offset="1" stop-color="#0b1370" stop-opacity="0"/>
    </linearGradient>
    <linearGradient id="linear-gradient-2" x1="0.798" y1="0.23" x2="0.442" y2="0.62" gradientUnits="objectBoundingBox">
      <stop offset="0" stop-color="#cc2ee5"/>
      <stop offset="1" stop-color="#cc2ee5" stop-opacity="0"/>
    </linearGradient>
  </defs>
  <g id="Group_156095" data-name="Group 156095" transform="translate(-260 -120)">
    <path id="Rectangle_1191" data-name="Rectangle 1191" d="M20,0H580a20,20,0,0,1,20,20V400A100,100,0,0,1,500,500H20A20,20,0,0,1,0,480V20A20,20,0,0,1,20,0Z" transform="translate(260 120)" fill="#0b1370" opacity="0.163"/>
    <path id="Rectangle_1192" data-name="Rectangle 1192" d="M20,0H580a20,20,0,0,1,20,20V400A100,100,0,0,1,500,500H20A20,20,0,0,1,0,480V20A20,20,0,0,1,20,0Z" transform="translate(260 120)" opacity="0.842" fill="url(#linear-gradient)"/>
    <path id="Rectangle_1206" data-name="Rectangle 1206" d="M20,0H580a20,20,0,0,1,20,20V400A100,100,0,0,1,500,500H20A20,20,0,0,1,0,480V20A20,20,0,0,1,20,0Z" transform="translate(260 120)" opacity="0.098" fill="url(#linear-gradient-2)"/>
  </g>
</svg>
