<svg xmlns="http://www.w3.org/2000/svg" xmlns:xlink="http://www.w3.org/1999/xlink" width="157" height="157" viewBox="0 0 157 157">
  <defs>
    <filter id="Ellipse_318" x="0" y="0" width="157" height="157" filterUnits="userSpaceOnUse">
      <feOffset input="SourceAlpha"/>
      <feGaussianBlur stdDeviation="5" result="blur"/>
      <feFlood flood-opacity="0.161"/>
      <feComposite operator="in" in2="blur"/>
      <feComposite in="SourceGraphic"/>
    </filter>
    <filter id="Ellipse_319" x="13" y="13" width="131" height="131" filterUnits="userSpaceOnUse">
      <feOffset input="SourceAlpha"/>
      <feGaussianBlur stdDeviation="5" result="blur-2"/>
      <feFlood flood-opacity="0.161"/>
      <feComposite operator="in" in2="blur-2"/>
      <feComposite in="SourceGraphic"/>
    </filter>
  </defs>
  <g id="Group_155963" data-name="Group 155963" transform="translate(-1333 -3388)">
    <g id="alarm-play-svgrepo-com" transform="translate(1368.609 3427.5)">
      <path id="Ellipse_66" data-name="Ellipse 66" d="M34.5-.5a35,35,0,1,1-35,35A35.04,35.04,0,0,1,34.5-.5Zm0,66.316A31.316,31.316,0,1,0,3.184,34.5,31.351,31.351,0,0,0,34.5,65.816Z" transform="translate(3 4)" fill="#fff"/>
      <path id="Path_155041" data-name="Path 155041" d="M14.844,8.5c1.97,0,3.993,1.23,7.056,3.093,1.139.693,2.145,1.345,2.991,1.938.96.674,2.064,1.519,3.28,2.512,4.127,3.367,6.618,5.4,6.618,9.036s-2.491,5.669-6.617,9.035c-1.218.994-2.321,1.839-3.281,2.513-.844.592-1.85,1.244-2.99,1.938-3.064,1.863-5.087,3.093-7.057,3.093a4.422,4.422,0,0,1-2.7-.92C9.684,38.895,9.5,35.625,9.152,29.688,9.051,27.946,9,26.395,9,25.079s.051-2.867.152-4.609c.343-5.936.532-9.206,2.988-11.05A4.422,4.422,0,0,1,14.844,8.5Zm0,29.474c.938,0,2.793-1.128,5.142-2.556,1.072-.652,2.01-1.26,2.788-1.806.888-.623,1.92-1.414,3.068-2.351,3.911-3.191,5.263-4.385,5.263-6.181s-1.352-2.991-5.261-6.18c-1.15-.938-2.182-1.729-3.069-2.352-.78-.547-1.718-1.155-2.788-1.806-2.349-1.429-4.2-2.557-5.142-2.557a.742.742,0,0,0-.493.182c-1.088.817-1.251,3.639-1.522,8.316-.1,1.672-.146,3.151-.146,4.4s.049,2.725.146,4.4c.27,4.677.434,7.5,1.522,8.316A.742.742,0,0,0,14.844,37.974Z" transform="translate(17.447 13.421)" fill="#fff"/>
    </g>
    <g id="Group_155950" data-name="Group 155950" transform="translate(396 2591.143)">
      <g transform="matrix(1, 0, 0, 1, 937, 796.86)" filter="url(#Ellipse_318)">
        <circle id="Ellipse_318-2" data-name="Ellipse 318" cx="63.5" cy="63.5" r="63.5" transform="translate(15 15)" fill="#fff" opacity="0.201"/>
      </g>
      <g transform="matrix(1, 0, 0, 1, 937, 796.86)" filter="url(#Ellipse_319)">
        <circle id="Ellipse_319-2" data-name="Ellipse 319" cx="50.5" cy="50.5" r="50.5" transform="translate(28 28)" fill="#fff"/>
      </g>
      <path id="play-svgrepo-com" d="M29.1,12.6a4.321,4.321,0,0,1,0,7.633L10.626,30.275A4.46,4.46,0,0,1,4,26.459V6.372a4.46,4.46,0,0,1,6.626-3.816Z" transform="translate(999.896 859.013)" fill="#5a3ed9"/>
    </g>
  </g>
</svg>
